<?xml version="1.0" encoding="UTF-8"?>
<svg width="16px" height="16px" viewBox="0 0 16 16" version="1.1" xmlns="http://www.w3.org/2000/svg" xmlns:xlink="http://www.w3.org/1999/xlink">
    <!-- Generator: Sketch 58 (84663) - https://sketch.com -->
    <title>Group 3</title>
    <desc>Created with Sketch.</desc>
    <defs>
        <polygon id="path-1" points="1 0 14 0 14 14 1 14"></polygon>
    </defs>
    <g id="Page-1" stroke="none" stroke-width="1" fill="none" fill-rule="evenodd">
        <g id="thing-page-with-overlay" transform="translate(-1169.000000, -457.000000)">
            <g id="Group-3" transform="translate(1170.000000, 458.000000)">
                <mask id="mask-2" fill="white">
                    <use xlink:href="#path-1"></use>
                </mask>
                <g id="Clip-2"></g>
                <path d="M2.44148631,5 L0.559088297,5 C0.250526719,5 0,5.25007985 0,5.55879911 L0,13.4412009 C0,13.7499202 0.250526719,14 0.559088297,14 L2.44148631,14 C2.75004788,14 3,13.7499202 3,13.4412009 L3,5.55879911 C3,5.25007985 2.75004788,5 2.44148631,5" id="Path" stroke="#FFFFFF"></path>
                <path d="M13.4414506,5.10411883 L10.6170987,5.10411883 C10.1568127,5.10411883 9.89420253,4.58417432 10.170604,4.22049729 L11.6382327,2.28505358 C11.7106372,2.18902011 11.7502873,2.07309806 11.7502873,1.95319829 L11.7502873,1.11446813 C11.7502873,0.123448216 10.5383731,-0.372629987 9.82926829,0.328016547 L5.16377219,4.9421689 C5.05918784,5.04558956 5,5.18651441 5,5.33312171 L5,13.4476655 C5,13.7528133 5.25054271,14 5.55854936,14 L12.6576427,14 C12.966224,14 13.2161921,13.7528133 13.2161921,13.4476655 L14,8.07092787 L14,5.65702157 C14,5.35187381 13.7500319,5.10411883 13.4414506,5.10411883" id="Path" stroke="#FFFFFF"></path>
            </g>
        </g>
    </g>
</svg>