<?xml version="1.0" encoding="UTF-8" standalone="no"?>
<!-- Created with Inkscape (http://www.inkscape.org/) -->

<svg
   xmlns:dc="http://purl.org/dc/elements/1.1/"
   xmlns:cc="http://creativecommons.org/ns#"
   xmlns:rdf="http://www.w3.org/1999/02/22-rdf-syntax-ns#"
   xmlns:svg="http://www.w3.org/2000/svg"
   xmlns="http://www.w3.org/2000/svg"
   xmlns:sodipodi="http://sodipodi.sourceforge.net/DTD/sodipodi-0.dtd"
   xmlns:inkscape="http://www.inkscape.org/namespaces/inkscape"
   sodipodi:docname="moto.svg"
   id="svg8"
   version="1.1"
   viewBox="0 0 320 300"
   height="300mm"
   width="320mm"
   inkscape:version="0.92.3 (2405546, 2018-03-11)">
  <sodipodi:namedview
     inkscape:window-maximized="1"
     inkscape:window-y="27"
     inkscape:window-x="67"
     inkscape:window-height="713"
     inkscape:window-width="1299"
     showgrid="false"
     inkscape:current-layer="svg8"
     inkscape:document-units="mm"
     inkscape:cy="581.04573"
     inkscape:cx="601.70247"
     inkscape:zoom="2.8"
     inkscape:pageshadow="2"
     inkscape:pageopacity="0.0"
     borderopacity="1.0"
     bordercolor="#666666"
     pagecolor="#ffffff"
     id="base" />
  <defs
     id="defs2" />
  <metadata
     id="metadata5">
    <rdf:RDF>
      <cc:Work
         rdf:about="">
        <dc:format>image/svg+xml</dc:format>
        <dc:type
           rdf:resource="http://purl.org/dc/dcmitype/StillImage" />
        <dc:title></dc:title>
      </cc:Work>
    </rdf:RDF>
  </metadata>
  <g
     transform="translate(0,3)"
     id="layer1"
     inkscape:groupmode="layer"
     inkscape:label="Calque 1">
    <g
       id="g168"
       transform="matrix(0.62863574,0,0,0.62863574,101.1254,31.342817)">
      <path
         style="fill:none;stroke:#000000;stroke-width:0.26458332px;stroke-linecap:butt;stroke-linejoin:miter;stroke-opacity:1"
         d="m 78.610647,175.05828 c 3.073598,2.50565 3.107007,6.48128 1.870887,9.12057 -1.236123,2.63929 -3.627177,4.20605 -6.748558,4.17609 -3.130631,-0.03 -4.812818,-1.54479 -6.280832,-3.27405 -1.57021,-1.84964 -1.737249,-5.51244 0.06682,-8.4524 1.80407,-2.93996 4.165256,-3.54741 8.007258,-3.01287 1.202713,-2.20497 2.063581,-3.83221 2.063581,-3.83221 0,0 0.03706,-0.0905 -1.073248,-0.30313 -1.110305,-0.21261 -3.071056,-0.44884 -4.323102,-0.3071 -1.252047,0.14174 -1.801341,0.61488 -2.394345,0.62323 -0.593005,0.008 -1.044022,-0.10022 -1.277883,-0.50948 -0.233861,-0.40926 -0.210892,-0.36332 -0.210892,-0.36332 0,0 2.13498,-1.69937 4.107543,-1.99466 1.972563,-0.2953 2.598586,-0.37798 4.027809,-0.14175 1.429222,0.23624 2.090681,0.54335 2.090681,0.54335 0,0 0.697487,-1.18914 1.200355,-1.80622 0.419347,-0.41454 0.883752,-0.76586 1.206927,-0.87469 0.740782,-1.31153 2.491154,-4.8721 2.491154,-4.8721"
         id="path115"
         inkscape:connector-curvature="0"
         sodipodi:nodetypes="csssscccscsccccccc" />
      <path
         style="fill:none;stroke:#000000;stroke-width:0.26458332px;stroke-linecap:butt;stroke-linejoin:miter;stroke-opacity:1"
         d="m 83.4348,159.77754 c 0,0 0.143322,-0.30272 0.350161,-0.5118 0.2815,-0.28456 0.503729,-0.19161 0.503729,-0.19161 l 1.145741,0.36616 c 0,0 1.252045,0.12993 2.055243,0.10631 0.803201,-0.0236 0.803201,0.43703 0.826823,0.96856 0.02363,0.53153 -0.34254,1.09849 -0.779573,1.12212 -0.437036,0.0236 -2.126118,0.0118 -2.126118,0.0118 l -1.559152,3.04743 1.606399,0.54334 c 0,0 2.879127,1.15483 4.397788,1.51729 1.727474,0.33741 1.856538,0.50252 3.64602,0.50253 2.049337,-0.0295 4.441269,-0.46326 4.441269,-0.46326"
         id="path117"
         inkscape:connector-curvature="0"
         sodipodi:nodetypes="csccccccccccc" />
      <path
         style="fill:none;stroke:#000000;stroke-width:0.26458332px;stroke-linecap:butt;stroke-linejoin:miter;stroke-opacity:1"
         d="m 97.943129,166.79641 c 0,0 5.840971,-1.00904 6.976861,-1.14268 1.1359,-0.13363 7.30976,-0.28415 8.74263,-0.29781 -0.012,0.15844 -0.0323,0.37492 -0.0405,0.55527 -1.14281,1.14774 -3.93325,1.96286 -4.59036,2.29257 0.24156,0.50554 0.33535,0.7117 0.61589,1.28658 -1.61065,0.86947 -6.16425,3.07899 -7.48389,3.64694 0.22062,0.37541 0.45304,0.7812 0.68025,1.15645 0.83522,-0.61806 4.00359,-1.43854 6.21864,-0.12078 3.2092,1.90919 4.34864,4.84464 3.92552,7.58377 -0.52949,3.42774 -2.99334,6.47829 -6.43117,6.63162 -3.688,0.16449 -8.469105,-1.99616 -8.552627,-8.00973 -0.432113,-0.0575 -0.496065,-0.0662 -0.985557,-0.14199 0,1.16931 -0.0084,0.7517 0,1.65373 -2.810443,-0.0981 -5.579249,0.35079 -7.834336,-0.23386 -3.056895,-1.15259 -3.720422,-3.16871 -4.593696,-5.24516 -1.503391,-3.57473 -3.023487,-4.56028 -4.092564,-5.22846 -1.195421,1.77091 -1.887593,3.87541 -1.887593,3.87541"
         id="path119"
         inkscape:connector-curvature="0"
         sodipodi:nodetypes="ccccccccsssccccscc" />
    </g>
    <g
       transform="matrix(0.62863574,0,0,0.62863574,101.14487,29.474105)"
       id="g1537">
      <g
         id="g1371">
        <path
           style="fill:none;stroke:#000000;stroke-width:0.26458332px;stroke-linecap:butt;stroke-linejoin:miter;stroke-opacity:1"
           d="m 74.744791,179.41378 c 0,0 -0.494559,0.96363 -0.944941,1.77177 -1.394176,-0.14398 -2.794411,1.18713 -2.763356,2.68116 0.02986,1.43637 1.12483,2.78345 2.705239,2.76406 2.017758,-0.0248 3.540739,-2.18808 2.352157,-4.20452 0.399166,-0.89507 0.553332,-1.15961 0.918758,-1.86673 1.025248,1.2306 1.487256,2.07774 1.386519,3.86097 -0.09039,1.60011 -1.727858,4.05019 -4.516635,4.17103 -2.5481,0.11041 -3.963714,-1.62094 -4.65383,-3.54353 -0.573189,-1.83907 0.324237,-4.50774 2.740326,-5.48065 1.42373,-0.57331 2.775763,-0.15356 2.775763,-0.15356 z"
           id="path555"
           inkscape:connector-curvature="0"
           sodipodi:nodetypes="ccssccsscsc" />
        <path
           style="fill:none;stroke:#000000;stroke-width:0.26458332px;stroke-linecap:butt;stroke-linejoin:miter;stroke-opacity:1"
           d="m 103.61272,182.0478 c 1.27567,-1.06305 2.73005,-1.2382 3.77976,-0.18898 0.8857,0.88528 1.2654,2.05287 0.49729,3.43282 -0.91846,1.09597 -1.95621,1.546 -3.04863,1.24463 -0.99218,-0.4016 -1.60049,-1.02762 -1.9076,-1.97256 -0.66145,-0.17718 -0.97447,-0.27167 -1.99027,-0.48428 -0.14223,0.96856 0.84827,4.25579 4.37035,4.51209 3.07105,-0.0945 4.81919,-2.48047 4.86644,-4.13412 0.19754,-1.52001 -0.39726,-4.40801 -3.94513,-5.19717 -2.17811,-0.42169 -4.38586,1.39072 -4.60658,2.17336 1.37017,0.51972 1.98437,0.61421 1.98437,0.61421 z"
           id="path557"
           inkscape:connector-curvature="0"
           sodipodi:nodetypes="csccccccccc" />
        <path
           style="fill:none;stroke:#000000;stroke-width:0.26458332px;stroke-linecap:butt;stroke-linejoin:miter;stroke-opacity:1"
           d="m 85.359205,168.63703 c -0.306065,2.1861 0.434313,3.70836 6.748555,6.44787 6.781963,-1.20271 8.25195,-2.23838 9.78875,-2.87314 0.86863,-0.43432 2.95666,-1.56186 3.0569,-3.13207"
           id="path559"
           inkscape:connector-curvature="0"
           sodipodi:nodetypes="cccc" />
      </g>
    </g>
  </g>
  <defs
     id="defs2137">
    <marker
       style="overflow:visible"
       refY="-2.41063"
       refX="-8"
       orient="auto"
       id="DrawCurveMarker">
      <path
         id="path2134"
         style="fill:#000044; fill-rule:evenodd;stroke-width:0.62500000;stroke-linejoin:round;"
         d="m -6.55552,-2.41063 0,0 L -13.11104,0 c 1.0473,-1.42323 1.04126,-3.37047 0,-4.82126" />
    </marker>
  </defs>
  <defs
     id="defs2142">
    <marker
       style="overflow:visible"
       refY="-2.41063"
       refX="8"
       orient="auto"
       id="DrawCurveMarker_r">
      <path
         id="path2139"
         style="fill:#000044; fill-rule:evenodd;stroke-width:0.62500000;stroke-linejoin:round;"
         d="m 6.55552,-2.41063 0,0 L 13.11104,0 c -1.0473,-1.42323 -1.04126,-3.37047 0,-4.82126" />
    </marker>
  </defs>
</svg>
