  0
SECTION
  2
HEADER
  9
$ACADVER
  1
AC1014
  9
$HANDSEED
  5
FFFF
  9
$MEASUREMENT
 70
     1
  0
ENDSEC
  0
SECTION
  2
TABLES
  0
TABLE
  2
VPORT
  5
8
330
0
100
AcDbSymbolTable
 70
     4
  0
VPORT
  5
2E
330
8
100
AcDbSymbolTableRecord
100
AcDbViewportTableRecord
  2
*ACTIVE
 70
     0
 10
0.0
 20
0.0
 11
1.0
 21
1.0
 12
210.0
 22
148.5
 13
0.0
 23
0.0
 14
10.0
 24
10.0
 15
10.0
 25
10.0
 16
0.0
 26
0.0
 36
1.0
 17
0.0
 27
0.0
 37
0.0
 40
341.0
 41
1.24
 42
50.0
 43
0.0
 44
0.0
 50
0.0
 51
0.0
 71
     0
 72
   100
 73
     1
 74
     3
 75
     0
 76
     0
 77
     0
 78
     0
  0
ENDTAB
  0
TABLE
  2
LTYPE
  5
5
330
0
100
AcDbSymbolTable
 70
     1
  0
LTYPE
  5
14
330
5
100
AcDbSymbolTableRecord
100
AcDbLinetypeTableRecord
  2
BYBLOCK
 70
     0
  3

 72
    65
 73
     0
 40
0.0
  0
LTYPE
  5
15
330
5
100
AcDbSymbolTableRecord
100
AcDbLinetypeTableRecord
  2
BYLAYER
 70
     0
  3

 72
    65
 73
     0
 40
0.0
  0
LTYPE
  5
16
330
5
100
AcDbSymbolTableRecord
100
AcDbLinetypeTableRecord
  2
CONTINUOUS
 70
     0
  3
Solid line
 72
    65
 73
     0
 40
0.0
  0
ENDTAB
  0
TABLE
  2
LAYER
  5
2
100
AcDbSymbolTable
 70
1
  0
LAYER
  5
50
100
AcDbSymbolTableRecord
100
AcDbLayerTableRecord
  2
0
 70
0
  6
CONTINUOUS
  0
ENDTAB
  0
TABLE
  2
STYLE
  5
3
330
0
100
AcDbSymbolTable
 70
     1
  0
STYLE
  5
11
330
3
100
AcDbSymbolTableRecord
100
AcDbTextStyleTableRecord
  2
STANDARD
 70
     0
 40
0.0
 41
1.0
 50
0.0
 71
     0
 42
2.5
  3
txt
  4

  0
ENDTAB
  0
TABLE
  2
VIEW
  5
6
330
0
100
AcDbSymbolTable
 70
     0
  0
ENDTAB
  0
TABLE
  2
UCS
  5
7
330
0
100
AcDbSymbolTable
 70
     0
  0
ENDTAB
  0
TABLE
  2
APPID
  5
9
330
0
100
AcDbSymbolTable
 70
     2
  0
APPID
  5
12
330
9
100
AcDbSymbolTableRecord
100
AcDbRegAppTableRecord
  2
ACAD
 70
     0
  0
ENDTAB
  0
TABLE
  2
DIMSTYLE
  5
A
330
0
100
AcDbSymbolTable
 70
     1
  0
DIMSTYLE
105
27
330
A
100
AcDbSymbolTableRecord
100
AcDbDimStyleTableRecord
  2
ISO-25
 70
     0
  3

  4

  5

  6

  7

 40
1.0
 41
2.5
 42
0.625
 43
3.75
 44
1.25
 45
0.0
 46
0.0
 47
0.0
 48
0.0
140
2.5
141
2.5
142
0.0
143
0.03937007874016
144
1.0
145
0.0
146
1.0
147
0.625
 71
     0
 72
     0
 73
     0
 74
     0
 75
     0
 76
     0
 77
     1
 78
     8
170
     0
171
     3
172
     1
173
     0
174
     0
175
     0
176
     0
177
     0
178
     0
270
     2
271
     2
272
     2
273
     2
274
     3
340
11
275
     0
280
     0
281
     0
282
     0
283
     0
284
     8
285
     0
286
     0
287
     3
288
     0
  0
ENDTAB
  0
TABLE
  2
BLOCK_RECORD
  5
1
330
0
100
AcDbSymbolTable
 70
     1
  0
BLOCK_RECORD
  5
1F
330
1
100
AcDbSymbolTableRecord
100
AcDbBlockTableRecord
  2
*MODEL_SPACE
  0
BLOCK_RECORD
  5
1B
330
1
100
AcDbSymbolTableRecord
100
AcDbBlockTableRecord
  2
*PAPER_SPACE
  0
ENDTAB
  0
ENDSEC
  0
SECTION
  2
BLOCKS
  0
BLOCK
  5
20
330
1F
100
AcDbEntity
  8
0
100
AcDbBlockBegin
  2
*MODEL_SPACE
 70
     0
 10
0.0
 20
0.0
 30
0.0
  3
*MODEL_SPACE
  1

  0
ENDBLK
  5
21
330
1F
100
AcDbEntity
  8
0
100
AcDbBlockEnd
  0
BLOCK
  5
1C
330
1B
100
AcDbEntity
 67
     1
  8
0
100
AcDbBlockBegin
  2
*PAPER_SPACE
  1

  0
ENDBLK
  5
1D
330
1B
100
AcDbEntity
 67
     1
  8
0
100
AcDbBlockEnd
  0
ENDSEC
  0
SECTION
  2
ENTITIES
  0
SPLINE
  5
100
100
AcDbEntity
  8
0
 62
7
100
AcDbSpline
 70
0
 71
3
 72
16
 73
12
 74
10
 40
0.000000
 40
0.000000
 40
0.000000
 40
0.000000
 40
23.678895
 40
56.414618
 40
88.783081
 40
106.587952
 40
124.768198
 40
140.776754
 40
183.285372
 40
245.440347
 40
288.671948
 40
288.671948
 40
288.671948
 40
288.671948
 10
179.477077
 20
425.537797
 30
0.0
 10
171.584346
 20
425.445965
 30
0.0
 10
152.780030
 20
425.227176
 30
0.0
 10
123.203767
 20
424.191957
 30
0.0
 10
95.509217
 20
426.710140
 30
0.0
 10
72.854823
 20
422.103723
 30
0.0
 10
58.118759
 20
411.272619
 30
0.0
 10
48.718840
 20
386.544142
 30
0.0
 10
54.468421
 20
345.766689
 30
0.0
 10
52.559745
 20
296.704036
 30
0.0
 10
52.970409
 20
261.549037
 30
0.0
 10
53.138871
 20
247.127780
 30
0.0
 11
179.477077
 21
425.537797
 31
0.0
 11
155.800811
 21
425.184959
 31
0.0
 11
123.066513
 21
424.879545
 31
0.0
 11
90.698877
 21
425.110977
 31
0.0
 11
73.402173
 21
420.887533
 31
0.0
 11
59.058395
 21
409.717155
 31
0.0
 11
52.712053
 21
395.020291
 31
0.0
 11
52.486936
 21
352.512268
 31
0.0
 11
52.931464
 21
290.358883
 31
0.0
 11
53.138871
 21
247.127780
 31
0.0
  0
SPLINE
  5
101
100
AcDbEntity
  8
0
 62
7
100
AcDbSpline
 70
0
 71
3
 72
10
 73
6
 74
4
 40
0.000000
 40
0.000000
 40
0.000000
 40
0.000000
 40
96.368948
 40
173.872185
 40
224.685219
 40
224.685219
 40
224.685219
 40
224.685219
 10
53.138871
 20
247.127780
 30
0.0
 10
80.255915
 20
265.548081
 30
0.0
 10
129.181422
 20
298.782624
 30
0.0
 10
161.636042
 20
368.770688
 30
0.0
 10
174.416168
 20
409.434854
 30
0.0
 10
179.477077
 20
425.537797
 30
0.0
 11
53.138871
 21
247.127780
 31
0.0
 11
127.175517
 21
308.816912
 31
0.0
 11
163.391960
 21
377.337865
 31
0.0
 11
179.477077
 21
425.537797
 31
0.0
  0
SPLINE
  5
102
100
AcDbEntity
  8
0
 62
7
100
AcDbSpline
 70
0
 71
3
 72
25
 73
21
 74
19
 40
0.000000
 40
0.000000
 40
0.000000
 40
0.000000
 40
25.324172
 40
77.371443
 40
120.255872
 40
150.528973
 40
164.210546
 40
185.455720
 40
237.654197
 40
281.741024
 40
311.952082
 40
317.263172
 40
323.200322
 40
331.521384
 40
332.380058
 40
334.282858
 40
336.228078
 40
349.749167
 40
361.502329
 40
366.706119
 40
366.706119
 40
366.706119
 40
366.706119
 10
211.566063
 20
424.641154
 30
0.0
 10
208.844156
 20
416.674154
 30
0.0
 10
200.528073
 20
392.333052
 30
0.0
 10
186.778467
 20
353.758921
 30
0.0
 10
176.144326
 20
316.225438
 30
0.0
 10
161.903400
 20
284.197960
 30
0.0
 10
183.131203
 20
268.231395
 30
0.0
 10
209.455909
 20
290.048747
 30
0.0
 10
236.195057
 20
314.510837
 30
0.0
 10
263.335982
 20
347.964606
 30
0.0
 10
279.061366
 20
369.177731
 30
0.0
 10
288.743521
 20
379.147731
 30
0.0
 10
292.388773
 20
384.451051
 30
0.0
 10
296.695610
 20
387.961884
 30
0.0
 10
297.296287
 20
391.629838
 30
0.0
 10
297.572103
 20
393.171985
 30
0.0
 10
297.942320
 20
398.960758
 30
0.0
 10
297.463311
 20
408.025539
 30
0.0
 10
297.952186
 20
418.215425
 30
0.0
 10
297.206141
 20
423.825072
 30
0.0
 10
296.977192
 20
425.546574
 30
0.0
 11
211.566063
 21
424.641154
 31
0.0
 11
203.343532
 21
400.689042
 31
0.0
 11
186.569829
 21
351.418754
 31
0.0
 11
173.085789
 21
310.709358
 31
0.0
 11
169.390174
 21
280.662676
 31
0.0
 11
180.543057
 21
272.738118
 31
0.0
 11
199.644724
 21
282.037780
 31
0.0
 11
237.674086
 21
317.793181
 31
0.0
 11
265.867745
 21
351.686630
 31
0.0
 11
284.904943
 21
375.144958
 31
0.0
 11
288.478799
 21
379.073727
 31
0.0
 11
292.188546
 21
383.709191
 31
0.0
 11
297.081544
 21
390.439618
 31
0.0
 11
297.240870
 21
391.283381
 31
0.0
 11
297.534534
 21
393.163383
 31
0.0
 11
297.686064
 21
395.102692
 31
0.0
 11
297.675520
 21
408.623778
 31
0.0
 11
297.568162
 21
420.376449
 31
0.0
 11
296.977192
 21
425.546574
 31
0.0
  0
LWPOLYLINE
  5
103
100
AcDbEntity
  8
0
 62
7
100
AcDbPolyline
 90
1
 70
1
 10
179.477077
 20
425.537797
 30
0.0
  0
LWPOLYLINE
  5
104
100
AcDbEntity
  8
0
 62
7
100
AcDbPolyline
 90
1
 70
1
 10
211.566063
 20
424.641154
 30
0.0
  0
SPLINE
  5
105
100
AcDbEntity
  8
0
 62
7
100
AcDbSpline
 70
0
 71
3
 72
10
 73
6
 74
4
 40
0.000000
 40
0.000000
 40
0.000000
 40
0.000000
 40
14.682976
 40
47.342130
 40
85.417649
 40
85.417649
 40
85.417649
 40
85.417649
 10
296.977192
 20
425.546574
 30
0.0
 10
292.082847
 20
425.570360
 30
0.0
 10
276.302074
 20
425.647055
 30
0.0
 10
247.831514
 20
425.189591
 30
0.0
 10
224.256289
 20
424.833066
 30
0.0
 10
211.566063
 20
424.641154
 30
0.0
 11
296.977192
 21
425.546574
 31
0.0
 11
282.294270
 21
425.586168
 31
0.0
 11
249.637131
 21
425.223354
 31
0.0
 11
211.566063
 21
424.641154
 31
0.0
  0
LWPOLYLINE
  5
106
100
AcDbEntity
  8
0
 62
7
100
AcDbPolyline
 90
4
 70
0
 10
53.050476
 20
235.963554
 30
0.0
 10
52.498645
 20
157.495944
 30
0.0
 10
297.492309
 20
157.495944
 30
0.0
 10
297.705722
 20
370.264832
 30
0.0
  0
LWPOLYLINE
  5
107
100
AcDbEntity
  8
0
 62
7
100
AcDbPolyline
 90
1
 70
1
 10
53.050476
 20
235.963554
 30
0.0
  0
SPLINE
  5
108
100
AcDbEntity
  8
0
 62
7
100
AcDbSpline
 70
0
 71
3
 72
28
 73
24
 74
22
 40
0.000000
 40
0.000000
 40
0.000000
 40
0.000000
 40
11.399554
 40
33.434933
 40
47.861317
 40
75.733371
 40
90.280993
 40
106.095106
 40
131.959213
 40
159.728275
 40
184.410072
 40
207.850769
 40
223.282309
 40
233.981875
 40
237.294950
 40
244.445837
 40
259.395677
 40
272.452667
 40
285.044729
 40
299.955026
 40
317.177388
 40
331.759045
 40
337.932457
 40
337.932457
 40
337.932457
 40
337.932457
 10
297.705722
 20
370.264832
 30
0.0
 10
295.355708
 20
367.278819
 30
0.0
 10
288.463109
 20
358.520832
 30
0.0
 10
278.589005
 20
345.989702
 30
0.0
 10
265.283807
 20
329.172348
 30
0.0
 10
253.264733
 20
314.516600
 30
0.0
 10
240.283697
 20
300.073502
 30
0.0
 10
226.859340
 20
286.975890
 30
0.0
 10
209.613323
 20
271.559644
 30
0.0
 10
187.333688
 20
257.220383
 30
0.0
 10
161.387636
 20
253.054985
 30
0.0
 10
140.465675
 20
261.936153
 30
0.0
 10
132.041119
 20
278.407130
 30
0.0
 10
133.261269
 20
286.871737
 30
0.0
 10
135.313231
 20
296.171110
 30
0.0
 10
126.131607
 20
283.969719
 30
0.0
 10
119.628974
 20
279.199343
 30
0.0
 10
108.948392
 20
269.262412
 30
0.0
 10
98.600093
 20
260.975818
 30
0.0
 10
86.601047
 20
251.958512
 30
0.0
 10
73.052603
 20
244.239807
 30
0.0
 10
61.451790
 20
239.123689
 30
0.0
 10
54.976495
 20
236.688022
 30
0.0
 10
53.050476
 20
235.963554
 30
0.0
 11
297.705722
 21
370.264832
 31
0.0
 11
290.655071
 21
361.307257
 31
0.0
 11
277.012449
 21
344.003015
 31
0.0
 11
268.041857
 21
332.704829
 31
0.0
 11
250.237275
 21
311.260755
 31
0.0
 11
240.455566
 21
300.492679
 31
0.0
 11
229.201402
 21
289.382774
 31
0.0
 11
209.635432
 21
272.467549
 31
0.0
 11
185.611582
 21
258.540045
 31
0.0
 11
161.123889
 21
255.450698
 31
0.0
 11
140.080136
 21
265.776717
 31
0.0
 11
133.163294
 21
279.571273
 31
0.0
 11
134.020934
 21
290.236410
 31
0.0
 11
134.460441
 21
293.520204
 31
0.0
 11
129.357229
 21
288.510970
 31
0.0
 11
118.655476
 21
278.072091
 31
0.0
 11
108.878831
 21
269.417487
 31
0.0
 11
99.115770
 21
261.464960
 31
0.0
 11
87.070923
 21
252.676410
 31
0.0
 11
72.142745
 21
244.088089
 31
0.0
 11
58.816561
 21
238.168837
 31
0.0
 11
53.050476
 21
235.963554
 31
0.0
  0
LWPOLYLINE
  5
109
100
AcDbEntity
  8
0
 62
7
100
AcDbPolyline
 90
6
 70
0
 10
101.255942
 20
175.198447
 30
0.0
 10
115.591731
 20
175.198420
 30
0.0
 10
115.591731
 20
211.566087
 30
0.0
 10
133.851000
 20
211.867871
 30
0.0
 10
134.001902
 20
223.638310
 30
0.0
 10
115.591731
 20
223.336500
 30
0.0
  0
SPLINE
  5
10a
100
AcDbEntity
  8
0
 62
7
100
AcDbSpline
 70
0
 71
3
 72
13
 73
9
 74
7
 40
0.000000
 40
0.000000
 40
0.000000
 40
0.000000
 40
2.467371
 40
7.341503
 40
13.211289
 40
20.992973
 40
24.797669
 40
25.992990
 40
25.992990
 40
25.992990
 40
25.992990
 10
115.591731
 20
223.336500
 30
0.0
 10
115.495041
 20
224.146720
 30
0.0
 10
115.207345
 20
226.557477
 30
0.0
 10
115.882707
 20
231.330809
 30
0.0
 10
122.093276
 20
234.468366
 30
0.0
 10
127.831658
 20
234.076182
 30
0.0
 10
132.225159
 20
233.108783
 30
0.0
 10
133.385971
 20
231.890734
 30
0.0
 10
133.663479
 20
231.599543
 30
0.0
 11
115.591731
 21
223.336500
 31
0.0
 11
115.376547
 21
225.794470
 31
0.0
 11
116.460066
 21
230.546642
 31
0.0
 11
121.435893
 21
233.660409
 31
0.0
 11
129.217427
 21
233.708687
 31
0.0
 11
132.799074
 21
232.425130
 31
0.0
 11
133.663479
 21
231.599543
 31
0.0
  0
LWPOLYLINE
  5
10b
100
AcDbEntity
  8
0
 62
7
100
AcDbPolyline
 90
2
 70
0
 10
133.663479
 20
231.599543
 30
0.0
 10
136.099376
 20
243.255682
 30
0.0
  0
SPLINE
  5
10c
100
AcDbEntity
  8
0
 62
7
100
AcDbSpline
 70
0
 71
3
 72
19
 73
15
 74
13
 40
0.000000
 40
0.000000
 40
0.000000
 40
0.000000
 40
0.748837
 40
3.126398
 40
7.422435
 40
20.878542
 40
31.454871
 40
41.220942
 40
51.705205
 40
66.475922
 40
80.011796
 40
89.072778
 40
95.425114
 40
97.820411
 40
97.820411
 40
97.820411
 40
97.820411
 10
136.099376
 20
243.255682
 30
0.0
 10
135.883540
 20
243.381553
 30
0.0
 10
134.982422
 20
243.907067
 30
0.0
 10
132.615312
 20
244.695294
 30
0.0
 10
126.040854
 20
246.039768
 30
0.0
 10
116.503243
 20
246.306888
 30
0.0
 10
105.270957
 20
241.800895
 30
0.0
 10
101.029193
 20
231.551653
 30
0.0
 10
101.649793
 20
219.882896
 30
0.0
 10
101.359003
 20
206.950649
 30
0.0
 10
101.576058
 20
194.495781
 30
0.0
 10
101.509288
 20
184.845687
 30
0.0
 10
101.384376
 20
178.910552
 30
0.0
 10
101.283550
 20
175.996405
 30
0.0
 10
101.255942
 20
175.198447
 30
0.0
 11
136.099376
 21
243.255682
 31
0.0
 11
135.446363
 21
243.622195
 31
0.0
 11
133.220623
 21
244.458184
 31
0.0
 11
129.022103
 21
245.368327
 31
0.0
 11
115.566444
 21
245.258536
 31
0.0
 11
106.072466
 21
240.597729
 31
0.0
 11
101.859557
 21
231.787079
 31
0.0
 11
101.464079
 21
221.310278
 31
0.0
 11
101.452295
 21
206.539566
 31
0.0
 11
101.536252
 21
193.003952
 31
0.0
 11
101.477964
 21
183.943157
 31
0.0
 11
101.335808
 21
177.592412
 31
0.0
 11
101.255942
 21
175.198447
 31
0.0
  0
LWPOLYLINE
  5
10d
100
AcDbEntity
  8
0
 62
7
100
AcDbPolyline
 90
1
 70
1
 10
101.255942
 20
175.198447
 30
0.0
  0
SPLINE
  5
10e
100
AcDbEntity
  8
0
 62
7
100
AcDbSpline
 70
0
 71
3
 72
10
 73
6
 74
4
 40
0.000000
 40
0.000000
 40
0.000000
 40
0.000000
 40
10.892182
 40
14.575770
 40
14.942435
 40
14.942435
 40
14.942435
 40
14.942435
 10
141.703661
 20
175.208898
 30
0.0
 10
145.328872
 20
175.222444
 30
0.0
 10
150.180080
 20
175.240572
 30
0.0
 10
155.182946
 20
175.010425
 30
0.0
 10
156.521151
 20
175.192422
 30
0.0
 10
156.642298
 20
175.208898
 30
0.0
 11
141.703661
 21
175.208898
 31
0.0
 11
152.595430
 21
175.114048
 31
0.0
 11
156.278712
 21
175.161473
 31
0.0
 11
156.642298
 21
175.208898
 31
0.0
  0
SPLINE
  5
10f
100
AcDbEntity
  8
0
 62
7
100
AcDbSpline
 70
0
 71
3
 72
13
 73
9
 74
7
 40
0.000000
 40
0.000000
 40
0.000000
 40
0.000000
 40
1.337704
 40
4.594692
 40
8.638342
 40
11.826934
 40
15.102266
 40
18.902979
 40
18.902979
 40
18.902979
 40
18.902979
 10
156.466617
 20
197.482951
 30
0.0
 10
156.457518
 20
197.928726
 30
0.0
 10
156.426267
 20
199.459855
 30
0.0
 10
156.469918
 20
202.342651
 30
0.0
 10
156.254318
 20
205.823563
 30
0.0
 10
157.263030
 20
209.371511
 30
0.0
 10
160.323865
 20
211.408426
 30
0.0
 10
162.689154
 20
211.623137
 30
0.0
 10
163.959606
 20
211.738463
 30
0.0
 11
156.466617
 21
197.482951
 31
0.0
 11
156.443938
 21
198.820463
 31
0.0
 11
156.428735
 21
202.077415
 31
0.0
 11
156.500253
 21
206.120433
 31
0.0
 11
157.572734
 21
209.123249
 31
0.0
 11
160.221893
 21
211.049322
 31
0.0
 11
163.959606
 21
211.738463
 31
0.0
  0
LWPOLYLINE
  5
110
100
AcDbEntity
  8
0
 62
7
100
AcDbPolyline
 90
2
 70
0
 10
156.642298
 20
175.208898
 30
0.0
 10
156.466617
 20
197.482951
 30
0.0
  0
SPLINE
  5
111
100
AcDbEntity
  8
0
 62
7
100
AcDbSpline
 70
0
 71
3
 72
13
 73
9
 74
7
 40
0.000000
 40
0.000000
 40
0.000000
 40
0.000000
 40
3.493728
 40
6.576723
 40
9.658085
 40
22.493079
 40
34.993214
 40
40.614492
 40
40.614492
 40
40.614492
 40
40.614492
 10
163.959606
 20
211.738463
 30
0.0
 10
165.122544
 20
211.618493
 30
0.0
 10
167.311702
 20
211.392658
 30
0.0
 10
170.221817
 20
209.484184
 30
0.0
 10
171.826792
 20
203.079726
 30
0.0
 10
171.041862
 20
193.670675
 30
0.0
 10
171.526856
 20
183.334469
 30
0.0
 10
171.568135
 20
177.295579
 30
0.0
 10
171.580940
 20
175.422311
 30
0.0
 11
163.959606
 21
211.738463
 31
0.0
 11
167.389864
 21
211.075541
 31
0.0
 11
169.887965
 21
209.268789
 31
0.0
 11
170.935981
 21
206.371125
 31
0.0
 11
171.314093
 21
193.541702
 31
0.0
 11
171.519179
 21
181.043249
 31
0.0
 11
171.580940
 21
175.422311
 31
0.0
  0
SPLINE
  5
112
100
AcDbEntity
  8
0
 62
7
100
AcDbSpline
 70
0
 71
3
 72
13
 73
9
 74
7
 40
0.000000
 40
0.000000
 40
0.000000
 40
0.000000
 40
1.787713
 40
5.997475
 40
11.434826
 40
16.197391
 40
21.795806
 40
28.799977
 40
28.799977
 40
28.799977
 40
28.799977
 10
185.665940
 20
208.820823
 30
0.0
 10
185.619243
 20
209.414928
 30
0.0
 10
185.462581
 20
211.408050
 30
0.0
 10
184.361408
 20
215.134443
 30
0.0
 10
181.277852
 20
218.990095
 30
0.0
 10
176.908132
 20
221.960009
 30
0.0
 10
171.557559
 20
224.403665
 30
0.0
 10
167.320241
 20
224.606880
 30
0.0
 10
164.965256
 20
224.719821
 30
0.0
 11
185.665940
 21
208.820823
 31
0.0
 11
185.488451
 21
210.599703
 31
0.0
 11
184.263420
 21
214.627283
 31
0.0
 11
180.952000
 21
218.939971
 31
0.0
 11
177.070303
 21
221.699402
 31
0.0
 11
171.920807
 21
223.895976
 31
0.0
 11
164.965256
 21
224.719821
 31
0.0
  0
LWPOLYLINE
  5
113
100
AcDbEntity
  8
0
 62
7
100
AcDbPolyline
 90
3
 70
0
 10
171.580940
 20
175.422311
 30
0.0
 10
185.879351
 20
175.208898
 30
0.0
 10
185.665940
 20
208.820823
 30
0.0
  0
SPLINE
  5
114
100
AcDbEntity
  8
0
 62
7
100
AcDbSpline
 70
0
 71
3
 72
13
 73
9
 74
7
 40
0.000000
 40
0.000000
 40
0.000000
 40
0.000000
 40
11.582190
 40
18.388114
 40
22.499764
 40
26.643998
 40
30.129871
 40
31.631476
 40
31.631476
 40
31.631476
 40
31.631476
 10
164.965256
 20
224.719821
 30
0.0
 10
161.026887
 20
224.649114
 30
0.0
 10
154.774255
 20
224.536858
 30
0.0
 10
148.148114
 20
220.386172
 30
0.0
 10
145.092776
 20
216.395704
 30
0.0
 10
142.812454
 20
213.169699
 30
0.0
 10
141.953939
 20
210.205373
 30
0.0
 10
141.679564
 20
208.567136
 30
0.0
 10
141.596957
 20
208.073904
 30
0.0
 11
164.965256
 21
224.719821
 31
0.0
 11
153.482366
 21
223.206419
 31
0.0
 11
147.743482
 21
219.547757
 31
0.0
 11
145.117093
 21
216.384255
 31
0.0
 11
142.910119
 21
212.876558
 31
0.0
 11
141.862412
 21
209.551859
 31
0.0
 11
141.596957
 21
208.073904
 31
0.0
  0
SPLINE
  5
115
100
AcDbEntity
  8
0
 62
7
100
AcDbSpline
 70
0
 71
3
 72
22
 73
18
 74
16
 40
0.000000
 40
0.000000
 40
0.000000
 40
0.000000
 40
8.848694
 40
28.044947
 40
46.564154
 40
49.411569
 40
52.300931
 40
54.499788
 40
56.611728
 40
57.991774
 40
59.539812
 40
62.289352
 40
64.689468
 40
66.663271
 40
69.090241
 40
72.130141
 40
76.265746
 40
76.265746
 40
76.265746
 40
76.265746
 10
199.423731
 20
234.600897
 30
0.0
 10
199.393636
 20
231.651251
 30
0.0
 10
199.298252
 20
222.302678
 30
0.0
 10
199.518253
 20
206.789233
 30
0.0
 10
198.513694
 20
193.245856
 30
0.0
 10
199.499253
 20
185.183724
 30
0.0
 10
200.446447
 20
182.689853
 30
0.0
 10
201.638688
 20
180.594344
 30
0.0
 10
202.889257
 20
179.157681
 30
0.0
 10
204.106220
 20
177.991908
 30
0.0
 10
205.704347
 20
176.965757
 30
0.0
 10
207.655198
 20
175.875241
 30
0.0
 10
209.892729
 20
175.041889
 30
0.0
 10
212.118839
 20
174.596048
 30
0.0
 10
214.560060
 20
174.169865
 30
0.0
 10
217.740574
 20
173.732830
 30
0.0
 10
220.135940
 20
173.832016
 30
0.0
 10
221.516511
 20
173.889183
 30
0.0
 11
199.423731
 21
234.600897
 31
0.0
 11
199.356132
 21
225.752461
 31
0.0
 11
199.233321
 21
206.556600
 31
0.0
 11
199.175280
 21
188.037485
 31
0.0
 11
199.608815
 21
185.223267
 31
0.0
 11
200.604710
 21
182.510961
 31
0.0
 11
201.713832
 21
180.612324
 31
0.0
 11
203.077820
 21
178.999926
 31
0.0
 11
204.091686
 21
178.063656
 31
0.0
 11
205.371612
 21
177.192902
 31
0.0
 11
207.790499
 21
175.885632
 31
0.0
 11
210.044047
 21
175.059751
 31
0.0
 11
211.971183
 21
174.633085
 31
0.0
 11
214.362332
 21
174.217648
 31
0.0
 11
217.381015
 21
173.859114
 31
0.0
 11
221.516511
 21
173.889183
 31
0.0
  0
LWPOLYLINE
  5
116
100
AcDbEntity
  8
0
 62
7
100
AcDbPolyline
 90
2
 70
0
 10
141.596957
 20
208.073904
 30
0.0
 10
141.703661
 20
175.208898
 30
0.0
  0
SPLINE
  5
117
100
AcDbEntity
  8
0
 62
7
100
AcDbSpline
 70
0
 71
3
 72
10
 73
6
 74
4
 40
0.000000
 40
0.000000
 40
0.000000
 40
0.000000
 40
7.476736
 40
11.475170
 40
12.697814
 40
12.697814
 40
12.697814
 40
12.697814
 10
221.516511
 20
173.889183
 30
0.0
 10
223.982783
 20
174.232330
 30
0.0
 10
227.767978
 20
174.758988
 30
0.0
 10
231.874449
 20
175.979888
 30
0.0
 10
233.375789
 20
176.864599
 30
0.0
 10
233.727365
 20
177.071776
 30
0.0
 11
221.516511
 21
173.889183
 31
0.0
 11
228.883860
 21
175.163444
 31
0.0
 11
232.662374
 21
176.471232
 31
0.0
 11
233.727365
 21
177.071776
 31
0.0
  0
SPLINE
  5
118
100
AcDbEntity
  8
0
 62
7
100
AcDbSpline
 70
0
 71
3
 72
10
 73
6
 74
4
 40
0.000000
 40
0.000000
 40
0.000000
 40
0.000000
 40
0.441181
 40
2.849886
 40
9.255434
 40
9.255434
 40
9.255434
 40
9.255434
 10
231.176511
 20
188.126544
 30
0.0
 10
231.087728
 20
188.007547
 30
0.0
 10
230.514215
 20
187.238869
 30
0.0
 10
227.234216
 20
186.565632
 30
0.0
 10
224.441963
 20
185.956122
 30
0.0
 10
222.412760
 20
185.513175
 30
0.0
 11
231.176511
 21
188.126544
 31
0.0
 11
230.899701
 21
187.783008
 31
0.0
 11
228.675391
 21
186.858723
 31
0.0
 11
222.412760
 21
185.513175
 31
0.0
  0
LWPOLYLINE
  5
119
100
AcDbEntity
  8
0
 62
7
100
AcDbPolyline
 90
2
 70
0
 10
233.727365
 20
177.071776
 30
0.0
 10
231.176511
 20
188.126544
 30
0.0
  0
LWPOLYLINE
  5
11a
100
AcDbEntity
  8
0
 62
7
100
AcDbPolyline
 90
7
 70
0
 10
213.150531
 20
190.364178
 30
0.0
 10
213.603241
 20
211.716979
 30
0.0
 10
230.127124
 20
212.169681
 30
0.0
 10
230.504383
 20
223.638310
 30
0.0
 10
213.075080
 20
223.713769
 30
0.0
 10
213.301436
 20
237.521394
 30
0.0
 10
199.423731
 20
234.600897
 30
0.0
  0
LWPOLYLINE
  5
11b
100
AcDbEntity
  8
0
 62
7
100
AcDbPolyline
 90
4
 70
1
 10
243.406606
 20
224.091012
 30
0.0
 10
242.953896
 20
175.500231
 30
0.0
 10
257.440587
 20
175.047528
 30
0.0
 10
257.742395
 20
223.638310
 30
0.0
  0
SPLINE
  5
11c
100
AcDbEntity
  8
0
 62
7
100
AcDbSpline
 70
0
 71
3
 72
10
 73
6
 74
4
 40
0.000000
 40
0.000000
 40
0.000000
 40
0.000000
 40
6.527699
 40
9.900042
 40
11.189764
 40
11.189764
 40
11.189764
 40
11.189764
 10
222.412760
 20
185.513175
 30
0.0
 10
220.207207
 20
185.661721
 30
0.0
 10
216.862220
 20
185.887010
 30
0.0
 10
213.665883
 20
188.427098
 30
0.0
 10
213.262205
 20
189.944423
 30
0.0
 10
213.150531
 20
190.364178
 30
0.0
 11
222.412760
 21
185.513175
 31
0.0
 11
216.020895
 21
186.837905
 31
0.0
 11
213.556576
 21
189.140042
 31
0.0
 11
213.150531
 21
190.364178
 31
0.0
  0
SPLINE
  5
11d
100
AcDbEntity
  8
0
 62
7
100
AcDbSpline
 70
0
 71
3
 72
10
 73
6
 74
4
 40
0.000000
 40
0.000000
 40
0.000000
 40
0.000000
 40
0.392426
 40
3.139406
 40
10.595497
 40
10.595497
 40
10.595497
 40
10.595497
 10
257.289685
 20
231.334351
 30
0.0
 10
257.265466
 20
231.462898
 30
0.0
 10
257.071714
 20
232.491274
 30
0.0
 10
256.417800
 20
235.962043
 30
0.0
 10
255.788106
 20
239.304265
 30
0.0
 10
255.327945
 20
241.746657
 30
0.0
 11
257.289685
 21
231.334351
 31
0.0
 11
257.217028
 21
231.719992
 31
0.0
 11
256.708429
 21
234.419479
 31
0.0
 11
255.327945
 21
241.746657
 31
0.0
  0
LWPOLYLINE
  5
11e
100
AcDbEntity
  8
0
 62
7
100
AcDbPolyline
 90
3
 70
0
 10
243.255701
 20
243.406627
 30
0.0
 10
243.255701
 20
231.183459
 30
0.0
 10
257.289685
 20
231.334351
 30
0.0
  0
LWPOLYLINE
  5
11f
100
AcDbEntity
  8
0
 62
7
100
AcDbPolyline
 90
1
 70
1
 10
243.255701
 20
243.406627
 30
0.0
  0
SPLINE
  5
120
100
AcDbEntity
  8
0
 62
7
100
AcDbSpline
 70
0
 71
3
 72
10
 73
6
 74
4
 40
0.000000
 40
0.000000
 40
0.000000
 40
0.000000
 40
7.310198
 40
11.119788
 40
12.242621
 40
12.242621
 40
12.242621
 40
12.242621
 10
255.327945
 20
241.746657
 30
0.0
 10
252.960295
 20
242.310905
 30
0.0
 10
249.358783
 20
243.169201
 30
0.0
 10
245.263756
 20
243.631982
 30
0.0
 10
243.628057
 20
243.448415
 30
0.0
 10
243.255701
 20
243.406627
 30
0.0
 11
255.327945
 21
241.746657
 31
0.0
 11
248.174024
 21
243.250123
 31
0.0
 11
244.373502
 21
243.512816
 31
0.0
 11
243.255701
 21
243.406627
 31
0.0
  0
LWPOLYLINE
  5
121
100
AcDbEntity
  8
0
 62
7
100
AcDbPolyline
 90
2
 70
0
 10
183.745259
 20
474.195079
 30
0.0
 10
181.184351
 20
445.598257
 30
0.0
  0
SPLINE
  5
122
100
AcDbEntity
  8
0
 62
7
100
AcDbSpline
 70
0
 71
3
 72
13
 73
9
 74
7
 40
0.000000
 40
0.000000
 40
0.000000
 40
0.000000
 40
2.717800
 40
9.429814
 40
18.040792
 40
26.632227
 40
33.642048
 40
36.541291
 40
36.541291
 40
36.541291
 40
36.541291
 10
181.184351
 20
445.598257
 30
0.0
 10
182.090255
 20
445.592008
 30
0.0
 10
185.233424
 20
445.570328
 30
0.0
 10
191.248828
 20
445.898272
 30
0.0
 10
199.124567
 20
447.215403
 30
0.0
 10
206.984426
 20
449.049157
 30
0.0
 10
213.048219
 20
450.179742
 30
0.0
 10
216.299281
 20
450.762870
 30
0.0
 10
217.250493
 20
450.933484
 30
0.0
 11
181.184351
 21
445.598257
 31
0.0
 11
183.902150
 21
445.595551
 31
0.0
 11
190.603585
 21
445.972239
 31
0.0
 11
199.110716
 21
447.305531
 31
0.0
 11
207.512712
 21
449.099747
 31
0.0
 11
214.397134
 21
450.419721
 31
0.0
 11
217.250493
 21
450.933484
 31
0.0
  0
LWPOLYLINE
  5
123
100
AcDbEntity
  8
0
 62
7
100
AcDbPolyline
 90
2
 70
0
 10
217.250493
 20
450.933484
 30
0.0
 10
221.091857
 20
481.450989
 30
0.0
  0
LWPOLYLINE
  5
124
100
AcDbEntity
  8
0
 62
7
100
AcDbPolyline
 90
1
 70
1
 10
183.745259
 20
474.195079
 30
0.0
  0
LWPOLYLINE
  5
125
100
AcDbEntity
  8
0
 62
7
100
AcDbPolyline
 90
2
 70
0
 10
50.165327
 20
147.925956
 30
0.0
 10
50.165327
 20
135.687729
 30
0.0
  0
LWPOLYLINE
  5
126
100
AcDbEntity
  8
0
 62
7
100
AcDbPolyline
 90
2
 70
0
 10
54.827510
 20
147.925956
 30
0.0
 10
54.827510
 20
135.687729
 30
0.0
  0
LWPOLYLINE
  5
127
100
AcDbEntity
  8
0
 62
7
100
AcDbPolyline
 90
2
 70
0
 10
54.827510
 20
147.925956
 30
0.0
 10
62.986325
 20
135.687729
 30
0.0
  0
LWPOLYLINE
  5
128
100
AcDbEntity
  8
0
 62
7
100
AcDbPolyline
 90
2
 70
0
 10
62.986325
 20
147.925956
 30
0.0
 10
62.986325
 20
135.687729
 30
0.0
  0
LWPOLYLINE
  5
129
100
AcDbEntity
  8
0
 62
7
100
AcDbPolyline
 90
20
 70
0
 10
75.224549
 20
146.177638
 30
0.0
 10
74.059004
 20
147.343183
 30
0.0
 10
72.310685
 20
147.925956
 30
0.0
 10
69.979594
 20
147.925956
 30
0.0
 10
68.231277
 20
147.343183
 30
0.0
 10
67.065732
 20
146.177638
 30
0.0
 10
67.065732
 20
145.012092
 30
0.0
 10
67.648504
 20
143.846547
 30
0.0
 10
68.231277
 20
143.263774
 30
0.0
 10
69.396822
 20
142.681001
 30
0.0
 10
72.893458
 20
141.515456
 30
0.0
 10
74.059004
 20
140.932683
 30
0.0
 10
74.641776
 20
140.349910
 30
0.0
 10
75.224549
 20
139.184365
 30
0.0
 10
75.224549
 20
137.436047
 30
0.0
 10
74.059004
 20
136.270501
 30
0.0
 10
72.310685
 20
135.687729
 30
0.0
 10
69.979594
 20
135.687729
 30
0.0
 10
68.231277
 20
136.270501
 30
0.0
 10
67.065732
 20
137.436047
 30
0.0
  0
LWPOLYLINE
  5
12a
100
AcDbEntity
  8
0
 62
7
100
AcDbPolyline
 90
2
 70
0
 10
81.635049
 20
147.925956
 30
0.0
 10
81.635049
 20
135.687729
 30
0.0
  0
LWPOLYLINE
  5
12b
100
AcDbEntity
  8
0
 62
7
100
AcDbPolyline
 90
2
 70
0
 10
77.555640
 20
147.925956
 30
0.0
 10
85.714458
 20
147.925956
 30
0.0
  0
LWPOLYLINE
  5
12c
100
AcDbEntity
  8
0
 62
7
100
AcDbPolyline
 90
2
 70
0
 10
88.628322
 20
147.925956
 30
0.0
 10
88.628322
 20
135.687729
 30
0.0
  0
LWPOLYLINE
  5
12d
100
AcDbEntity
  8
0
 62
7
100
AcDbPolyline
 90
2
 70
0
 10
95.621594
 20
147.925956
 30
0.0
 10
95.621594
 20
135.687729
 30
0.0
  0
LWPOLYLINE
  5
12e
100
AcDbEntity
  8
0
 62
7
100
AcDbPolyline
 90
2
 70
0
 10
91.542185
 20
147.925956
 30
0.0
 10
99.701003
 20
147.925956
 30
0.0
  0
LWPOLYLINE
  5
12f
100
AcDbEntity
  8
0
 62
7
100
AcDbPolyline
 90
10
 70
0
 10
102.614867
 20
147.925956
 30
0.0
 10
102.614867
 20
139.184365
 30
0.0
 10
103.197640
 20
137.436047
 30
0.0
 10
104.363185
 20
136.270501
 30
0.0
 10
106.111503
 20
135.687729
 30
0.0
 10
107.277044
 20
135.687729
 30
0.0
 10
109.025355
 20
136.270501
 30
0.0
 10
110.190896
 20
137.436047
 30
0.0
 10
110.773666
 20
139.184365
 30
0.0
 10
110.773666
 20
147.925956
 30
0.0
  0
LWPOLYLINE
  5
130
100
AcDbEntity
  8
0
 62
7
100
AcDbPolyline
 90
2
 70
0
 10
117.766906
 20
147.925956
 30
0.0
 10
117.766906
 20
135.687729
 30
0.0
  0
LWPOLYLINE
  5
131
100
AcDbEntity
  8
0
 62
7
100
AcDbPolyline
 90
2
 70
0
 10
113.687516
 20
147.925956
 30
0.0
 10
121.846299
 20
147.925956
 30
0.0
  0
LWPOLYLINE
  5
132
100
AcDbEntity
  8
0
 62
7
100
AcDbPolyline
 90
2
 70
0
 10
133.226871
 20
147.925956
 30
0.0
 10
133.226871
 20
135.687729
 30
0.0
  0
LWPOLYLINE
  5
133
100
AcDbEntity
  8
0
 62
7
100
AcDbPolyline
 90
12
 70
0
 10
133.226871
 20
147.925956
 30
0.0
 10
137.306280
 20
147.925956
 30
0.0
 10
139.054599
 20
147.343183
 30
0.0
 10
140.220144
 20
146.177638
 30
0.0
 10
140.802917
 20
145.012092
 30
0.0
 10
141.385690
 20
143.263774
 30
0.0
 10
141.385690
 20
140.349910
 30
0.0
 10
140.802917
 20
138.601592
 30
0.0
 10
140.220144
 20
137.436047
 30
0.0
 10
139.054599
 20
136.270501
 30
0.0
 10
137.306280
 20
135.687729
 30
0.0
 10
133.226871
 20
135.687729
 30
0.0
  0
LWPOLYLINE
  5
134
100
AcDbEntity
  8
0
 62
7
100
AcDbPolyline
 90
2
 70
0
 10
145.465099
 20
147.925956
 30
0.0
 10
145.465099
 20
135.687729
 30
0.0
  0
LWPOLYLINE
  5
135
100
AcDbEntity
  8
0
 62
7
100
AcDbPolyline
 90
2
 70
0
 10
145.465099
 20
147.925956
 30
0.0
 10
153.041144
 20
147.925956
 30
0.0
  0
LWPOLYLINE
  5
136
100
AcDbEntity
  8
0
 62
7
100
AcDbPolyline
 90
2
 70
0
 10
145.465099
 20
142.098229
 30
0.0
 10
150.127280
 20
142.098229
 30
0.0
  0
LWPOLYLINE
  5
137
100
AcDbEntity
  8
0
 62
7
100
AcDbPolyline
 90
2
 70
0
 10
145.465099
 20
135.687729
 30
0.0
 10
153.041144
 20
135.687729
 30
0.0
  0
LWPOLYLINE
  5
138
100
AcDbEntity
  8
0
 62
7
100
AcDbPolyline
 90
2
 70
0
 10
163.416981
 20
147.925956
 30
0.0
 10
163.416981
 20
135.687729
 30
0.0
  0
LWPOLYLINE
  5
139
100
AcDbEntity
  8
0
 62
7
100
AcDbPolyline
 90
2
 70
0
 10
163.416981
 20
147.925956
 30
0.0
 10
170.993026
 20
147.925956
 30
0.0
  0
LWPOLYLINE
  5
13a
100
AcDbEntity
  8
0
 62
7
100
AcDbPolyline
 90
2
 70
0
 10
163.416981
 20
142.098229
 30
0.0
 10
168.079163
 20
142.098229
 30
0.0
  0
LWPOLYLINE
  5
13b
100
AcDbEntity
  8
0
 62
7
100
AcDbPolyline
 90
20
 70
1
 10
176.820754
 20
147.925956
 30
0.0
 10
175.655208
 20
147.343183
 30
0.0
 10
174.489663
 20
146.177638
 30
0.0
 10
173.906890
 20
145.012092
 30
0.0
 10
173.324117
 20
143.263774
 30
0.0
 10
173.324117
 20
140.349910
 30
0.0
 10
173.906890
 20
138.601592
 30
0.0
 10
174.489663
 20
137.436047
 30
0.0
 10
175.655208
 20
136.270501
 30
0.0
 10
176.820754
 20
135.687729
 30
0.0
 10
179.151845
 20
135.687729
 30
0.0
 10
180.317390
 20
136.270501
 30
0.0
 10
181.482935
 20
137.436047
 30
0.0
 10
182.065708
 20
138.601592
 30
0.0
 10
182.648481
 20
140.349910
 30
0.0
 10
182.648481
 20
143.263774
 30
0.0
 10
182.065708
 20
145.012092
 30
0.0
 10
181.482935
 20
146.177638
 30
0.0
 10
180.317390
 20
147.343183
 30
0.0
 10
179.151845
 20
147.925956
 30
0.0
  0
LWPOLYLINE
  5
13c
100
AcDbEntity
  8
0
 62
7
100
AcDbPolyline
 90
2
 70
0
 10
186.727890
 20
147.925956
 30
0.0
 10
186.727890
 20
135.687729
 30
0.0
  0
LWPOLYLINE
  5
13d
100
AcDbEntity
  8
0
 62
7
100
AcDbPolyline
 90
10
 70
0
 10
186.727890
 20
147.925956
 30
0.0
 10
191.972844
 20
147.925956
 30
0.0
 10
193.721163
 20
147.343183
 30
0.0
 10
194.303935
 20
146.760410
 30
0.0
 10
194.886708
 20
145.594865
 30
0.0
 10
194.886708
 20
144.429320
 30
0.0
 10
194.303935
 20
143.263774
 30
0.0
 10
193.721163
 20
142.681001
 30
0.0
 10
191.972844
 20
142.098229
 30
0.0
 10
186.727890
 20
142.098229
 30
0.0
  0
LWPOLYLINE
  5
13e
100
AcDbEntity
  8
0
 62
7
100
AcDbPolyline
 90
2
 70
0
 10
190.807299
 20
142.098229
 30
0.0
 10
194.886708
 20
135.687729
 30
0.0
  0
LWPOLYLINE
  5
13f
100
AcDbEntity
  8
0
 62
7
100
AcDbPolyline
 90
2
 70
0
 10
198.966117
 20
147.925956
 30
0.0
 10
198.966117
 20
135.687729
 30
0.0
  0
LWPOLYLINE
  5
140
100
AcDbEntity
  8
0
 62
7
100
AcDbPolyline
 90
2
 70
0
 10
198.966117
 20
147.925956
 30
0.0
 10
203.628299
 20
135.687729
 30
0.0
  0
LWPOLYLINE
  5
141
100
AcDbEntity
  8
0
 62
7
100
AcDbPolyline
 90
2
 70
0
 10
208.290481
 20
147.925956
 30
0.0
 10
203.628299
 20
135.687729
 30
0.0
  0
LWPOLYLINE
  5
142
100
AcDbEntity
  8
0
 62
7
100
AcDbPolyline
 90
2
 70
0
 10
208.290481
 20
147.925956
 30
0.0
 10
208.290481
 20
135.687729
 30
0.0
  0
LWPOLYLINE
  5
143
100
AcDbEntity
  8
0
 62
7
100
AcDbPolyline
 90
2
 70
0
 10
215.866526
 20
147.925956
 30
0.0
 10
211.204344
 20
135.687729
 30
0.0
  0
LWPOLYLINE
  5
144
100
AcDbEntity
  8
0
 62
7
100
AcDbPolyline
 90
2
 70
0
 10
215.866526
 20
147.925956
 30
0.0
 10
220.528708
 20
135.687729
 30
0.0
  0
LWPOLYLINE
  5
145
100
AcDbEntity
  8
0
 62
7
100
AcDbPolyline
 90
2
 70
0
 10
212.952662
 20
139.767138
 30
0.0
 10
218.780390
 20
139.767138
 30
0.0
  0
LWPOLYLINE
  5
146
100
AcDbEntity
  8
0
 62
7
100
AcDbPolyline
 90
2
 70
0
 10
225.773662
 20
147.925956
 30
0.0
 10
225.773662
 20
135.687729
 30
0.0
  0
LWPOLYLINE
  5
147
100
AcDbEntity
  8
0
 62
7
100
AcDbPolyline
 90
2
 70
0
 10
221.694253
 20
147.925956
 30
0.0
 10
229.853071
 20
147.925956
 30
0.0
  0
LWPOLYLINE
  5
148
100
AcDbEntity
  8
0
 62
7
100
AcDbPolyline
 90
2
 70
0
 10
232.766935
 20
147.925956
 30
0.0
 10
232.766935
 20
135.687729
 30
0.0
  0
LWPOLYLINE
  5
149
100
AcDbEntity
  8
0
 62
7
100
AcDbPolyline
 90
20
 70
1
 10
240.342980
 20
147.925956
 30
0.0
 10
239.177435
 20
147.343183
 30
0.0
 10
238.011889
 20
146.177638
 30
0.0
 10
237.429117
 20
145.012092
 30
0.0
 10
236.846344
 20
143.263774
 30
0.0
 10
236.846344
 20
140.349910
 30
0.0
 10
237.429117
 20
138.601592
 30
0.0
 10
238.011889
 20
137.436047
 30
0.0
 10
239.177435
 20
136.270501
 30
0.0
 10
240.342980
 20
135.687729
 30
0.0
 10
242.674071
 20
135.687729
 30
0.0
 10
243.839617
 20
136.270501
 30
0.0
 10
245.005162
 20
137.436047
 30
0.0
 10
245.587935
 20
138.601592
 30
0.0
 10
246.170708
 20
140.349910
 30
0.0
 10
246.170708
 20
143.263774
 30
0.0
 10
245.587935
 20
145.012092
 30
0.0
 10
245.005162
 20
146.177638
 30
0.0
 10
243.839617
 20
147.343183
 30
0.0
 10
242.674071
 20
147.925956
 30
0.0
  0
LWPOLYLINE
  5
14a
100
AcDbEntity
  8
0
 62
7
100
AcDbPolyline
 90
2
 70
0
 10
250.250117
 20
147.925956
 30
0.0
 10
250.250117
 20
135.687729
 30
0.0
  0
LWPOLYLINE
  5
14b
100
AcDbEntity
  8
0
 62
7
100
AcDbPolyline
 90
2
 70
0
 10
250.250117
 20
147.925956
 30
0.0
 10
258.408935
 20
135.687729
 30
0.0
  0
LWPOLYLINE
  5
14c
100
AcDbEntity
  8
0
 62
7
100
AcDbPolyline
 90
2
 70
0
 10
258.408935
 20
147.925956
 30
0.0
 10
258.408935
 20
135.687729
 30
0.0
  0
LWPOLYLINE
  5
14d
100
AcDbEntity
  8
0
 62
7
100
AcDbPolyline
 90
2
 70
0
 10
274.980858
 20
147.925956
 30
0.0
 10
270.318676
 20
135.687729
 30
0.0
  0
LWPOLYLINE
  5
14e
100
AcDbEntity
  8
0
 62
7
100
AcDbPolyline
 90
2
 70
0
 10
274.980858
 20
147.925956
 30
0.0
 10
279.643040
 20
135.687729
 30
0.0
  0
LWPOLYLINE
  5
14f
100
AcDbEntity
  8
0
 62
7
100
AcDbPolyline
 90
2
 70
0
 10
272.066994
 20
139.767138
 30
0.0
 10
277.894722
 20
139.767138
 30
0.0
  0
LWPOLYLINE
  5
150
100
AcDbEntity
  8
0
 62
7
100
AcDbPolyline
 90
10
 70
0
 10
282.556903
 20
147.925956
 30
0.0
 10
282.556903
 20
139.184365
 30
0.0
 10
283.139676
 20
137.436047
 30
0.0
 10
284.305222
 20
136.270501
 30
0.0
 10
286.053540
 20
135.687729
 30
0.0
 10
287.219085
 20
135.687729
 30
0.0
 10
288.967403
 20
136.270501
 30
0.0
 10
290.132949
 20
137.436047
 30
0.0
 10
290.715722
 20
139.184365
 30
0.0
 10
290.715722
 20
147.925956
 30
0.0
  0
LWPOLYLINE
  5
151
100
AcDbEntity
  8
0
 62
7
100
AcDbPolyline
 90
2
 70
0
 10
294.795131
 20
147.925956
 30
0.0
 10
302.953949
 20
135.687729
 30
0.0
  0
SPLINE
  5
152
100
AcDbEntity
  8
0
 62
7
100
AcDbSpline
 70
0
 71
3
 72
13
 73
9
 74
7
 40
0.000000
 40
0.000000
 40
0.000000
 40
0.000000
 40
2.728474
 40
9.333341
 40
17.445892
 40
26.348710
 40
34.521540
 40
38.106535
 40
38.106535
 40
38.106535
 40
38.106535
 10
221.091857
 20
481.450989
 30
0.0
 10
220.188527
 20
481.345151
 30
0.0
 10
217.098490
 20
480.983112
 30
0.0
 10
211.333368
 20
480.224745
 30
0.0
 10
203.527145
 20
479.170489
 30
0.0
 10
195.316028
 20
477.380235
 30
0.0
 10
188.658324
 20
475.615761
 30
0.0
 10
184.893243
 20
474.527035
 30
0.0
 10
183.745259
 20
474.195079
 30
0.0
 11
221.091857
 21
481.450989
 31
0.0
 11
218.382360
 21
481.129744
 31
0.0
 11
211.831500
 21
480.286834
 31
0.0
 11
203.805718
 21
479.103489
 31
0.0
 11
195.095464
 21
477.261847
 31
0.0
 11
187.191421
 21
475.183084
 31
0.0
 11
183.745259
 21
474.195079
 31
0.0
  0
LWPOLYLINE
  5
153
100
AcDbEntity
  8
0
 62
7
100
AcDbPolyline
 90
2
 70
0
 10
302.953949
 20
147.925956
 30
0.0
 10
294.795131
 20
135.687729
 30
0.0
  0
ENDSEC
  0
SECTION
  2
OBJECTS
  0
DICTIONARY
  5
C
330
0
100
AcDbDictionary
  3
ACAD_GROUP
350
D
  3
ACAD_MLINESTYLE
350
17
  0
DICTIONARY
  5
D
330
C
100
AcDbDictionary
  0
DICTIONARY
  5
1A
330
C
100
AcDbDictionary
  0
DICTIONARY
  5
17
330
C
100
AcDbDictionary
  3
STANDARD
350
18
  0
DICTIONARY
  5
19
330
C
100
AcDbDictionary
  0
ENDSEC
  0
EOF
