  0
SECTION
  2
HEADER
  9
$ACADVER
  1
AC1014
  9
$HANDSEED
  5
FFFF
  9
$MEASUREMENT
 70
     1
  0
ENDSEC
  0
SECTION
  2
TABLES
  0
TABLE
  2
VPORT
  5
8
330
0
100
AcDbSymbolTable
 70
     4
  0
VPORT
  5
2E
330
8
100
AcDbSymbolTableRecord
100
AcDbViewportTableRecord
  2
*ACTIVE
 70
     0
 10
0.0
 20
0.0
 11
1.0
 21
1.0
 12
210.0
 22
148.5
 13
0.0
 23
0.0
 14
10.0
 24
10.0
 15
10.0
 25
10.0
 16
0.0
 26
0.0
 36
1.0
 17
0.0
 27
0.0
 37
0.0
 40
341.0
 41
1.24
 42
50.0
 43
0.0
 44
0.0
 50
0.0
 51
0.0
 71
     0
 72
   100
 73
     1
 74
     3
 75
     0
 76
     0
 77
     0
 78
     0
  0
ENDTAB
  0
TABLE
  2
LTYPE
  5
5
330
0
100
AcDbSymbolTable
 70
     1
  0
LTYPE
  5
14
330
5
100
AcDbSymbolTableRecord
100
AcDbLinetypeTableRecord
  2
BYBLOCK
 70
     0
  3

 72
    65
 73
     0
 40
0.0
  0
LTYPE
  5
15
330
5
100
AcDbSymbolTableRecord
100
AcDbLinetypeTableRecord
  2
BYLAYER
 70
     0
  3

 72
    65
 73
     0
 40
0.0
  0
LTYPE
  5
16
330
5
100
AcDbSymbolTableRecord
100
AcDbLinetypeTableRecord
  2
CONTINUOUS
 70
     0
  3
Solid line
 72
    65
 73
     0
 40
0.0
  0
ENDTAB
  0
TABLE
  2
LAYER
  5
2
100
AcDbSymbolTable
 70
1
  0
LAYER
  5
50
100
AcDbSymbolTableRecord
100
AcDbLayerTableRecord
  2
0
 70
0
  6
CONTINUOUS
  0
ENDTAB
  0
TABLE
  2
STYLE
  5
3
330
0
100
AcDbSymbolTable
 70
     1
  0
STYLE
  5
11
330
3
100
AcDbSymbolTableRecord
100
AcDbTextStyleTableRecord
  2
STANDARD
 70
     0
 40
0.0
 41
1.0
 50
0.0
 71
     0
 42
2.5
  3
txt
  4

  0
ENDTAB
  0
TABLE
  2
VIEW
  5
6
330
0
100
AcDbSymbolTable
 70
     0
  0
ENDTAB
  0
TABLE
  2
UCS
  5
7
330
0
100
AcDbSymbolTable
 70
     0
  0
ENDTAB
  0
TABLE
  2
APPID
  5
9
330
0
100
AcDbSymbolTable
 70
     2
  0
APPID
  5
12
330
9
100
AcDbSymbolTableRecord
100
AcDbRegAppTableRecord
  2
ACAD
 70
     0
  0
ENDTAB
  0
TABLE
  2
DIMSTYLE
  5
A
330
0
100
AcDbSymbolTable
 70
     1
  0
DIMSTYLE
105
27
330
A
100
AcDbSymbolTableRecord
100
AcDbDimStyleTableRecord
  2
ISO-25
 70
     0
  3

  4

  5

  6

  7

 40
1.0
 41
2.5
 42
0.625
 43
3.75
 44
1.25
 45
0.0
 46
0.0
 47
0.0
 48
0.0
140
2.5
141
2.5
142
0.0
143
0.03937007874016
144
1.0
145
0.0
146
1.0
147
0.625
 71
     0
 72
     0
 73
     0
 74
     0
 75
     0
 76
     0
 77
     1
 78
     8
170
     0
171
     3
172
     1
173
     0
174
     0
175
     0
176
     0
177
     0
178
     0
270
     2
271
     2
272
     2
273
     2
274
     3
340
11
275
     0
280
     0
281
     0
282
     0
283
     0
284
     8
285
     0
286
     0
287
     3
288
     0
  0
ENDTAB
  0
TABLE
  2
BLOCK_RECORD
  5
1
330
0
100
AcDbSymbolTable
 70
     1
  0
BLOCK_RECORD
  5
1F
330
1
100
AcDbSymbolTableRecord
100
AcDbBlockTableRecord
  2
*MODEL_SPACE
  0
BLOCK_RECORD
  5
1B
330
1
100
AcDbSymbolTableRecord
100
AcDbBlockTableRecord
  2
*PAPER_SPACE
  0
ENDTAB
  0
ENDSEC
  0
SECTION
  2
BLOCKS
  0
BLOCK
  5
20
330
1F
100
AcDbEntity
  8
0
100
AcDbBlockBegin
  2
*MODEL_SPACE
 70
     0
 10
0.0
 20
0.0
 30
0.0
  3
*MODEL_SPACE
  1

  0
ENDBLK
  5
21
330
1F
100
AcDbEntity
  8
0
100
AcDbBlockEnd
  0
BLOCK
  5
1C
330
1B
100
AcDbEntity
 67
     1
  8
0
100
AcDbBlockBegin
  2
*PAPER_SPACE
  1

  0
ENDBLK
  5
1D
330
1B
100
AcDbEntity
 67
     1
  8
0
100
AcDbBlockEnd
  0
ENDSEC
  0
SECTION
  2
ENTITIES
  0
SPLINE
  5
100
100
AcDbEntity
  8
0
 62
7
100
AcDbSpline
 70
8
 71
3
 72
8
 73
4
 74
0
 40
0
 40
0
 40
0
 40
0
 40
1
 40
1
 40
1
 40
1
 10
179.477077
 20
425.537797
 30
0.0
 10
163.471392
 20
425.324387
 30
0.0
 10
119.741617
 20
424.447981
 30
0.0
 10
90.698877
 20
425.110977
 30
0.0
  0
SPLINE
  5
101
100
AcDbEntity
  8
0
 62
7
100
AcDbSpline
 70
8
 71
3
 72
8
 73
4
 74
0
 40
0
 40
0
 40
0
 40
0
 40
1
 40
1
 40
1
 40
1
 10
90.698877
 20
425.110977
 30
0.0
 10
73.607214
 20
425.501150
 30
0.0
 10
53.378173
 20
410.340247
 30
0.0
 10
52.712053
 20
395.020291
 30
0.0
  0
SPLINE
  5
102
100
AcDbEntity
  8
0
 62
7
100
AcDbSpline
 70
8
 71
3
 72
8
 73
4
 74
0
 40
0
 40
0
 40
0
 40
0
 40
1
 40
1
 40
1
 40
1
 10
52.712053
 20
395.020291
 30
0.0
 10
51.849858
 20
375.190831
 30
0.0
 10
53.352281
 20
268.041861
 30
0.0
 10
53.138871
 20
247.127780
 30
0.0
  0
SPLINE
  5
103
100
AcDbEntity
  8
0
 62
7
100
AcDbSpline
 70
8
 71
3
 72
8
 73
4
 74
0
 40
0
 40
0
 40
0
 40
0
 40
1
 40
1
 40
1
 40
1
 10
53.138871
 20
247.127780
 30
0.0
 10
151.981911
 20
296.350055
 30
0.0
 10
167.561331
 20
396.549323
 30
0.0
 10
179.477077
 20
425.537797
 30
0.0
  0
SPLINE
  5
104
100
AcDbEntity
  8
0
 62
7
100
AcDbSpline
 70
8
 71
3
 72
8
 73
4
 74
0
 40
0
 40
0
 40
0
 40
0
 40
1
 40
1
 40
1
 40
1
 10
211.566063
 20
424.641154
 30
0.0
 10
211.566063
 20
424.641154
 30
0.0
 10
180.978053
 20
335.845285
 30
0.0
 10
173.085789
 20
310.709358
 30
0.0
  0
SPLINE
  5
105
100
AcDbEntity
  8
0
 62
7
100
AcDbSpline
 70
8
 71
3
 72
8
 73
4
 74
0
 40
0
 40
0
 40
0
 40
0
 40
1
 40
1
 40
1
 40
1
 10
173.085789
 20
310.709358
 30
0.0
 10
159.666019
 20
267.968979
 30
0.0
 10
178.868570
 20
265.758642
 30
0.0
 10
199.644724
 20
282.037780
 30
0.0
  0
SPLINE
  5
106
100
AcDbEntity
  8
0
 62
7
100
AcDbSpline
 70
8
 71
3
 72
8
 73
4
 74
0
 40
0
 40
0
 40
0
 40
0
 40
1
 40
1
 40
1
 40
1
 10
199.644724
 20
282.037780
 30
0.0
 10
242.818350
 20
315.866433
 30
0.0
 10
270.219563
 20
359.761914
 30
0.0
 10
284.904943
 20
375.144958
 30
0.0
  0
SPLINE
  5
107
100
AcDbEntity
  8
0
 62
7
100
AcDbSpline
 70
8
 71
3
 72
8
 73
4
 74
0
 40
0
 40
0
 40
0
 40
0
 40
1
 40
1
 40
1
 40
1
 10
284.904943
 20
375.144958
 30
0.0
 10
288.759975
 20
379.183137
 30
0.0
 10
291.247799
 20
382.198953
 30
0.0
 10
297.081544
 20
390.439618
 30
0.0
  0
SPLINE
  5
108
100
AcDbEntity
  8
0
 62
7
100
AcDbSpline
 70
8
 71
3
 72
8
 73
4
 74
0
 40
0
 40
0
 40
0
 40
0
 40
1
 40
1
 40
1
 40
1
 10
297.081544
 20
390.439618
 30
0.0
 10
297.081544
 20
390.439618
 30
0.0
 10
297.697758
 20
393.459373
 30
0.0
 10
297.686064
 20
395.102692
 30
0.0
  0
SPLINE
  5
109
100
AcDbEntity
  8
0
 62
7
100
AcDbSpline
 70
8
 71
3
 72
8
 73
4
 74
0
 40
0
 40
0
 40
0
 40
0
 40
1
 40
1
 40
1
 40
1
 10
297.686064
 20
395.102692
 30
0.0
 10
297.594994
 20
407.903274
 30
0.0
 10
297.938900
 20
425.272434
 30
0.0
 10
296.977192
 20
425.546574
 30
0.0
  0
SPLINE
  5
10a
100
AcDbEntity
  8
0
 62
7
100
AcDbSpline
 70
8
 71
3
 72
8
 73
4
 74
0
 40
0
 40
0
 40
0
 40
0
 40
1
 40
1
 40
1
 40
1
 10
296.977192
 20
425.546574
 30
0.0
 10
295.468141
 20
425.848379
 30
0.0
 10
248.157332
 20
425.272039
 30
0.0
 10
211.566063
 20
424.641154
 30
0.0
  0
LWPOLYLINE
  5
10b
100
AcDbEntity
  8
0
 62
7
100
AcDbPolyline
 90
1
 70
1
 10
179.477077
 20
425.537797
 30
0.0
  0
LWPOLYLINE
  5
10c
100
AcDbEntity
  8
0
 62
7
100
AcDbPolyline
 90
1
 70
1
 10
211.566063
 20
424.641154
 30
0.0
  0
SPLINE
  5
10d
100
AcDbEntity
  8
0
 62
7
100
AcDbSpline
 70
8
 71
3
 72
8
 73
4
 74
0
 40
0
 40
0
 40
0
 40
0
 40
1
 40
1
 40
1
 40
1
 10
297.705722
 20
370.264832
 30
0.0
 10
297.705722
 20
370.264832
 30
0.0
 10
270.921767
 20
336.215746
 30
0.0
 10
268.041857
 20
332.704829
 30
0.0
  0
SPLINE
  5
10e
100
AcDbEntity
  8
0
 62
7
100
AcDbSpline
 70
8
 71
3
 72
8
 73
4
 74
0
 40
0
 40
0
 40
0
 40
0
 40
1
 40
1
 40
1
 40
1
 10
268.041857
 20
332.704829
 30
0.0
 10
243.060729
 20
302.250147
 30
0.0
 10
244.356902
 20
304.336201
 30
0.0
 10
229.201402
 20
289.382774
 30
0.0
  0
SPLINE
  5
10f
100
AcDbEntity
  8
0
 62
7
100
AcDbSpline
 70
8
 71
3
 72
8
 73
4
 74
0
 40
0
 40
0
 40
0
 40
0
 40
1
 40
1
 40
1
 40
1
 10
229.201402
 20
289.382774
 30
0.0
 10
213.195719
 20
273.590499
 30
0.0
 10
184.512156
 20
250.504154
 30
0.0
 10
161.123889
 20
255.450698
 30
0.0
  0
SPLINE
  5
110
100
AcDbEntity
  8
0
 62
7
100
AcDbSpline
 70
8
 71
3
 72
8
 73
4
 74
0
 40
0
 40
0
 40
0
 40
0
 40
1
 40
1
 40
1
 40
1
 10
161.123889
 20
255.450698
 30
0.0
 10
130.899202
 20
261.843132
 30
0.0
 10
131.393531
 20
283.335299
 30
0.0
 10
134.020934
 20
290.236410
 30
0.0
  0
SPLINE
  5
111
100
AcDbEntity
  8
0
 62
7
100
AcDbSpline
 70
8
 71
3
 72
8
 73
4
 74
0
 40
0
 40
0
 40
0
 40
0
 40
1
 40
1
 40
1
 40
1
 10
134.020934
 20
290.236410
 30
0.0
 10
137.213192
 20
298.621178
 30
0.0
 10
132.175108
 20
290.271333
 30
0.0
 10
118.655476
 20
278.072091
 30
0.0
  0
SPLINE
  5
112
100
AcDbEntity
  8
0
 62
7
100
AcDbSpline
 70
8
 71
3
 72
8
 73
4
 74
0
 40
0
 40
0
 40
0
 40
0
 40
1
 40
1
 40
1
 40
1
 10
118.655476
 20
278.072091
 30
0.0
 10
108.106915
 20
268.553748
 30
0.0
 10
101.021786
 20
262.395672
 30
0.0
 10
87.070923
 20
252.676410
 30
0.0
  0
SPLINE
  5
113
100
AcDbEntity
  8
0
 62
7
100
AcDbSpline
 70
8
 71
3
 72
8
 73
4
 74
0
 40
0
 40
0
 40
0
 40
0
 40
1
 40
1
 40
1
 40
1
 10
87.070923
 20
252.676410
 30
0.0
 10
73.327783
 20
243.101853
 30
0.0
 10
53.050476
 20
235.963554
 30
0.0
 10
53.050476
 20
235.963554
 30
0.0
  0
LWPOLYLINE
  5
114
100
AcDbEntity
  8
0
 62
7
100
AcDbPolyline
 90
4
 70
0
 10
53.050476
 20
235.963554
 30
0.0
 10
52.498645
 20
157.495944
 30
0.0
 10
297.492309
 20
157.495944
 30
0.0
 10
297.705722
 20
370.264832
 30
0.0
  0
LWPOLYLINE
  5
115
100
AcDbEntity
  8
0
 62
7
100
AcDbPolyline
 90
1
 70
1
 10
53.050476
 20
235.963554
 30
0.0
  0
SPLINE
  5
116
100
AcDbEntity
  8
0
 62
7
100
AcDbSpline
 70
8
 71
3
 72
8
 73
4
 74
0
 40
0
 40
0
 40
0
 40
0
 40
1
 40
1
 40
1
 40
1
 10
115.591731
 20
223.336500
 30
0.0
 10
115.591731
 20
223.336500
 30
0.0
 10
113.649377
 20
232.676714
 30
0.0
 10
121.435893
 20
233.660409
 30
0.0
  0
SPLINE
  5
117
100
AcDbEntity
  8
0
 62
7
100
AcDbSpline
 70
8
 71
3
 72
8
 73
4
 74
0
 40
0
 40
0
 40
0
 40
0
 40
1
 40
1
 40
1
 40
1
 10
121.435893
 20
233.660409
 30
0.0
 10
131.811586
 20
234.971208
 30
0.0
 10
133.663479
 20
231.599543
 30
0.0
 10
133.663479
 20
231.599543
 30
0.0
  0
LWPOLYLINE
  5
118
100
AcDbEntity
  8
0
 62
7
100
AcDbPolyline
 90
6
 70
0
 10
101.255942
 20
175.198447
 30
0.0
 10
115.591731
 20
175.198420
 30
0.0
 10
115.591731
 20
211.566087
 30
0.0
 10
133.851000
 20
211.867871
 30
0.0
 10
134.001902
 20
223.638310
 30
0.0
 10
115.591731
 20
223.336500
 30
0.0
  0
SPLINE
  5
119
100
AcDbEntity
  8
0
 62
7
100
AcDbSpline
 70
8
 71
3
 72
8
 73
4
 74
0
 40
0
 40
0
 40
0
 40
0
 40
1
 40
1
 40
1
 40
1
 10
136.099376
 20
243.255682
 30
0.0
 10
136.099376
 20
243.255682
 30
0.0
 10
134.340365
 20
244.552881
 30
0.0
 10
129.022103
 20
245.368327
 30
0.0
  0
SPLINE
  5
11a
100
AcDbEntity
  8
0
 62
7
100
AcDbSpline
 70
8
 71
3
 72
8
 73
4
 74
0
 40
0
 40
0
 40
0
 40
0
 40
1
 40
1
 40
1
 40
1
 10
129.022103
 20
245.368327
 30
0.0
 10
114.025400
 20
247.667768
 30
0.0
 10
102.992135
 20
242.538926
 30
0.0
 10
101.859557
 20
231.787079
 30
0.0
  0
SPLINE
  5
11b
100
AcDbEntity
  8
0
 62
7
100
AcDbSpline
 70
8
 71
3
 72
8
 73
4
 74
0
 40
0
 40
0
 40
0
 40
0
 40
1
 40
1
 40
1
 40
1
 10
101.859557
 20
231.787079
 30
0.0
 10
101.176247
 20
225.300237
 30
0.0
 10
101.500409
 20
204.079014
 30
0.0
 10
101.536252
 20
193.003952
 30
0.0
  0
SPLINE
  5
11c
100
AcDbEntity
  8
0
 62
7
100
AcDbSpline
 70
8
 71
3
 72
8
 73
4
 74
0
 40
0
 40
0
 40
0
 40
0
 40
1
 40
1
 40
1
 40
1
 10
101.536252
 20
193.003952
 30
0.0
 10
101.568619
 20
183.003708
 30
0.0
 10
101.255942
 20
175.198447
 30
0.0
 10
101.255942
 20
175.198447
 30
0.0
  0
LWPOLYLINE
  5
11d
100
AcDbEntity
  8
0
 62
7
100
AcDbPolyline
 90
2
 70
0
 10
133.663479
 20
231.599543
 30
0.0
 10
136.099376
 20
243.255682
 30
0.0
  0
SPLINE
  5
11e
100
AcDbEntity
  8
0
 62
7
100
AcDbSpline
 70
8
 71
3
 72
8
 73
4
 74
0
 40
0
 40
0
 40
0
 40
0
 40
1
 40
1
 40
1
 40
1
 10
141.703661
 20
175.208898
 30
0.0
 10
157.495936
 20
174.995485
 30
0.0
 10
156.642298
 20
175.208898
 30
0.0
 10
156.642298
 20
175.208898
 30
0.0
  0
LWPOLYLINE
  5
11f
100
AcDbEntity
  8
0
 62
7
100
AcDbPolyline
 90
1
 70
1
 10
101.255942
 20
175.198447
 30
0.0
  0
SPLINE
  5
120
100
AcDbEntity
  8
0
 62
7
100
AcDbSpline
 70
8
 71
3
 72
8
 73
4
 74
0
 40
0
 40
0
 40
0
 40
0
 40
1
 40
1
 40
1
 40
1
 10
156.466617
 20
197.482951
 30
0.0
 10
156.466617
 20
197.482951
 30
0.0
 10
156.358958
 20
202.062174
 30
0.0
 10
156.500253
 20
206.120433
 30
0.0
  0
SPLINE
  5
121
100
AcDbEntity
  8
0
 62
7
100
AcDbSpline
 70
8
 71
3
 72
8
 73
4
 74
0
 40
0
 40
0
 40
0
 40
0
 40
1
 40
1
 40
1
 40
1
 10
156.500253
 20
206.120433
 30
0.0
 10
156.621687
 20
209.608223
 30
0.0
 10
159.840324
 20
211.721186
 30
0.0
 10
163.959606
 20
211.738463
 30
0.0
  0
SPLINE
  5
122
100
AcDbEntity
  8
0
 62
7
100
AcDbSpline
 70
8
 71
3
 72
8
 73
4
 74
0
 40
0
 40
0
 40
0
 40
0
 40
1
 40
1
 40
1
 40
1
 10
163.959606
 20
211.738463
 30
0.0
 10
167.683299
 20
211.665094
 30
0.0
 10
170.785650
 20
209.796606
 30
0.0
 10
170.935981
 20
206.371125
 30
0.0
  0
SPLINE
  5
123
100
AcDbEntity
  8
0
 62
7
100
AcDbSpline
 70
8
 71
3
 72
8
 73
4
 74
0
 40
0
 40
0
 40
0
 40
0
 40
1
 40
1
 40
1
 40
1
 10
170.935981
 20
206.371125
 30
0.0
 10
171.410508
 20
195.558399
 30
0.0
 10
171.580940
 20
175.422311
 30
0.0
 10
171.580940
 20
175.422311
 30
0.0
  0
LWPOLYLINE
  5
124
100
AcDbEntity
  8
0
 62
7
100
AcDbPolyline
 90
2
 70
0
 10
156.642298
 20
175.208898
 30
0.0
 10
156.466617
 20
197.482951
 30
0.0
  0
SPLINE
  5
125
100
AcDbEntity
  8
0
 62
7
100
AcDbSpline
 70
8
 71
3
 72
8
 73
4
 74
0
 40
0
 40
0
 40
0
 40
0
 40
1
 40
1
 40
1
 40
1
 10
185.665940
 20
208.820823
 30
0.0
 10
185.665940
 20
208.820823
 30
0.0
 10
185.652897
 20
215.139258
 30
0.0
 10
180.952000
 20
218.939971
 30
0.0
  0
SPLINE
  5
126
100
AcDbEntity
  8
0
 62
7
100
AcDbSpline
 70
8
 71
3
 72
8
 73
4
 74
0
 40
0
 40
0
 40
0
 40
0
 40
1
 40
1
 40
1
 40
1
 10
180.952000
 20
218.939971
 30
0.0
 10
177.524786
 20
221.710873
 30
0.0
 10
173.003252
 20
224.852297
 30
0.0
 10
164.965256
 20
224.719821
 30
0.0
  0
SPLINE
  5
127
100
AcDbEntity
  8
0
 62
7
100
AcDbSpline
 70
8
 71
3
 72
8
 73
4
 74
0
 40
0
 40
0
 40
0
 40
0
 40
1
 40
1
 40
1
 40
1
 10
164.965256
 20
224.719821
 30
0.0
 10
149.733193
 20
225.159188
 30
0.0
 10
147.064405
 20
218.420039
 30
0.0
 10
145.117093
 20
216.384255
 30
0.0
  0
SPLINE
  5
128
100
AcDbEntity
  8
0
 62
7
100
AcDbSpline
 70
8
 71
3
 72
8
 73
4
 74
0
 40
0
 40
0
 40
0
 40
0
 40
1
 40
1
 40
1
 40
1
 10
145.117093
 20
216.384255
 30
0.0
 10
142.204813
 20
213.339642
 30
0.0
 10
141.596957
 20
208.073904
 30
0.0
 10
141.596957
 20
208.073904
 30
0.0
  0
LWPOLYLINE
  5
129
100
AcDbEntity
  8
0
 62
7
100
AcDbPolyline
 90
3
 70
0
 10
171.580940
 20
175.422311
 30
0.0
 10
185.879351
 20
175.208898
 30
0.0
 10
185.665940
 20
208.820823
 30
0.0
  0
SPLINE
  5
12a
100
AcDbEntity
  8
0
 62
7
100
AcDbSpline
 70
8
 71
3
 72
8
 73
4
 74
0
 40
0
 40
0
 40
0
 40
0
 40
1
 40
1
 40
1
 40
1
 10
199.423731
 20
234.600897
 30
0.0
 10
199.423731
 20
234.600897
 30
0.0
 10
199.160942
 20
202.543504
 30
0.0
 10
199.175280
 20
188.037485
 30
0.0
  0
SPLINE
  5
12b
100
AcDbEntity
  8
0
 62
7
100
AcDbSpline
 70
8
 71
3
 72
8
 73
4
 74
0
 40
0
 40
0
 40
0
 40
0
 40
1
 40
1
 40
1
 40
1
 10
199.175280
 20
188.037485
 30
0.0
 10
199.177925
 20
185.409564
 30
0.0
 10
200.697806
 20
181.866873
 30
0.0
 10
201.713832
 20
180.612324
 30
0.0
  0
SPLINE
  5
12c
100
AcDbEntity
  8
0
 62
7
100
AcDbSpline
 70
8
 71
3
 72
8
 73
4
 74
0
 40
0
 40
0
 40
0
 40
0
 40
1
 40
1
 40
1
 40
1
 10
201.713832
 20
180.612324
 30
0.0
 10
203.458275
 20
178.458325
 30
0.0
 10
203.753262
 20
178.234435
 30
0.0
 10
205.371612
 20
177.192902
 30
0.0
  0
SPLINE
  5
12d
100
AcDbEntity
  8
0
 62
7
100
AcDbSpline
 70
8
 71
3
 72
8
 73
4
 74
0
 40
0
 40
0
 40
0
 40
0
 40
1
 40
1
 40
1
 40
1
 10
205.371612
 20
177.192902
 30
0.0
 10
207.819479
 20
175.617547
 30
0.0
 10
210.260943
 20
174.887535
 30
0.0
 10
211.971183
 20
174.633085
 30
0.0
  0
SPLINE
  5
12e
100
AcDbEntity
  8
0
 62
7
100
AcDbSpline
 70
8
 71
3
 72
8
 73
4
 74
0
 40
0
 40
0
 40
0
 40
0
 40
1
 40
1
 40
1
 40
1
 10
211.971183
 20
174.633085
 30
0.0
 10
214.211659
 20
174.299763
 30
0.0
 10
216.659515
 20
173.554247
 30
0.0
 10
221.516511
 20
173.889183
 30
0.0
  0
SPLINE
  5
12f
100
AcDbEntity
  8
0
 62
7
100
AcDbSpline
 70
8
 71
3
 72
8
 73
4
 74
0
 40
0
 40
0
 40
0
 40
0
 40
1
 40
1
 40
1
 40
1
 10
221.516511
 20
173.889183
 30
0.0
 10
230.970049
 20
174.899759
 30
0.0
 10
233.727365
 20
177.071776
 30
0.0
 10
233.727365
 20
177.071776
 30
0.0
  0
LWPOLYLINE
  5
130
100
AcDbEntity
  8
0
 62
7
100
AcDbPolyline
 90
2
 70
0
 10
141.596957
 20
208.073904
 30
0.0
 10
141.703661
 20
175.208898
 30
0.0
  0
SPLINE
  5
131
100
AcDbEntity
  8
0
 62
7
100
AcDbSpline
 70
8
 71
3
 72
8
 73
4
 74
0
 40
0
 40
0
 40
0
 40
0
 40
1
 40
1
 40
1
 40
1
 10
231.176511
 20
188.126544
 30
0.0
 10
231.176511
 20
188.126544
 30
0.0
 10
231.391491
 20
187.016194
 30
0.0
 10
222.412760
 20
185.513175
 30
0.0
  0
SPLINE
  5
132
100
AcDbEntity
  8
0
 62
7
100
AcDbSpline
 70
8
 71
3
 72
8
 73
4
 74
0
 40
0
 40
0
 40
0
 40
0
 40
1
 40
1
 40
1
 40
1
 10
222.412760
 20
185.513175
 30
0.0
 10
213.434030
 20
185.664067
 30
0.0
 10
213.150531
 20
190.364178
 30
0.0
 10
213.150531
 20
190.364178
 30
0.0
  0
LWPOLYLINE
  5
133
100
AcDbEntity
  8
0
 62
7
100
AcDbPolyline
 90
2
 70
0
 10
233.727365
 20
177.071776
 30
0.0
 10
231.176511
 20
188.126544
 30
0.0
  0
LWPOLYLINE
  5
134
100
AcDbEntity
  8
0
 62
7
100
AcDbPolyline
 90
7
 70
0
 10
213.150531
 20
190.364178
 30
0.0
 10
213.603241
 20
211.716979
 30
0.0
 10
230.127124
 20
212.169681
 30
0.0
 10
230.504383
 20
223.638310
 30
0.0
 10
213.075080
 20
223.713769
 30
0.0
 10
213.301436
 20
237.521394
 30
0.0
 10
199.423731
 20
234.600897
 30
0.0
  0
LWPOLYLINE
  5
135
100
AcDbEntity
  8
0
 62
7
100
AcDbPolyline
 90
4
 70
1
 10
243.406606
 20
224.091012
 30
0.0
 10
242.953896
 20
175.500231
 30
0.0
 10
257.440587
 20
175.047528
 30
0.0
 10
257.742395
 20
223.638310
 30
0.0
  0
SPLINE
  5
136
100
AcDbEntity
  8
0
 62
7
100
AcDbSpline
 70
8
 71
3
 72
8
 73
4
 74
0
 40
0
 40
0
 40
0
 40
0
 40
1
 40
1
 40
1
 40
1
 10
257.289685
 20
231.334351
 30
0.0
 10
257.289685
 20
231.334351
 30
0.0
 10
257.289685
 20
231.334351
 30
0.0
 10
255.327945
 20
241.746657
 30
0.0
  0
SPLINE
  5
137
100
AcDbEntity
  8
0
 62
7
100
AcDbSpline
 70
8
 71
3
 72
8
 73
4
 74
0
 40
0
 40
0
 40
0
 40
0
 40
1
 40
1
 40
1
 40
1
 10
255.327945
 20
241.746657
 30
0.0
 10
246.273766
 20
244.161139
 30
0.0
 10
243.255701
 20
243.406627
 30
0.0
 10
243.255701
 20
243.406627
 30
0.0
  0
LWPOLYLINE
  5
138
100
AcDbEntity
  8
0
 62
7
100
AcDbPolyline
 90
3
 70
0
 10
243.255701
 20
243.406627
 30
0.0
 10
243.255701
 20
231.183459
 30
0.0
 10
257.289685
 20
231.334351
 30
0.0
  0
LWPOLYLINE
  5
139
100
AcDbEntity
  8
0
 62
7
100
AcDbPolyline
 90
1
 70
1
 10
243.255701
 20
243.406627
 30
0.0
  0
SPLINE
  5
13a
100
AcDbEntity
  8
0
 62
7
100
AcDbSpline
 70
8
 71
3
 72
8
 73
4
 74
0
 40
0
 40
0
 40
0
 40
0
 40
1
 40
1
 40
1
 40
1
 10
181.184351
 20
445.598257
 30
0.0
 10
181.184351
 20
445.598257
 30
0.0
 10
190.426718
 20
445.301535
 30
0.0
 10
199.110716
 20
447.305531
 30
0.0
  0
SPLINE
  5
13b
100
AcDbEntity
  8
0
 62
7
100
AcDbSpline
 70
8
 71
3
 72
8
 73
4
 74
0
 40
0
 40
0
 40
0
 40
0
 40
1
 40
1
 40
1
 40
1
 10
199.110716
 20
447.305531
 30
0.0
 10
207.433671
 20
449.226210
 30
0.0
 10
217.250493
 20
450.933484
 30
0.0
 10
217.250493
 20
450.933484
 30
0.0
  0
LWPOLYLINE
  5
13c
100
AcDbEntity
  8
0
 62
7
100
AcDbPolyline
 90
2
 70
0
 10
183.745259
 20
474.195079
 30
0.0
 10
181.184351
 20
445.598257
 30
0.0
  0
SPLINE
  5
13d
100
AcDbEntity
  8
0
 62
7
100
AcDbSpline
 70
8
 71
3
 72
8
 73
4
 74
0
 40
0
 40
0
 40
0
 40
0
 40
1
 40
1
 40
1
 40
1
 10
221.091857
 20
481.450989
 30
0.0
 10
221.091857
 20
481.450989
 30
0.0
 10
211.780146
 20
480.396640
 30
0.0
 10
203.805718
 20
479.103489
 30
0.0
  0
SPLINE
  5
13e
100
AcDbEntity
  8
0
 62
7
100
AcDbSpline
 70
8
 71
3
 72
8
 73
4
 74
0
 40
0
 40
0
 40
0
 40
0
 40
1
 40
1
 40
1
 40
1
 10
203.805718
 20
479.103489
 30
0.0
 10
195.909580
 20
477.823033
 30
0.0
 10
183.745259
 20
474.195079
 30
0.0
 10
183.745259
 20
474.195079
 30
0.0
  0
LWPOLYLINE
  5
13f
100
AcDbEntity
  8
0
 62
7
100
AcDbPolyline
 90
2
 70
0
 10
217.250493
 20
450.933484
 30
0.0
 10
221.091857
 20
481.450989
 30
0.0
  0
LWPOLYLINE
  5
140
100
AcDbEntity
  8
0
 62
7
100
AcDbPolyline
 90
1
 70
1
 10
183.745259
 20
474.195079
 30
0.0
  0
LWPOLYLINE
  5
141
100
AcDbEntity
  8
0
 62
7
100
AcDbPolyline
 90
2
 70
0
 10
50.165327
 20
147.925956
 30
0.0
 10
50.165327
 20
135.687729
 30
0.0
  0
LWPOLYLINE
  5
142
100
AcDbEntity
  8
0
 62
7
100
AcDbPolyline
 90
2
 70
0
 10
54.827510
 20
147.925956
 30
0.0
 10
54.827510
 20
135.687729
 30
0.0
  0
LWPOLYLINE
  5
143
100
AcDbEntity
  8
0
 62
7
100
AcDbPolyline
 90
2
 70
0
 10
54.827510
 20
147.925956
 30
0.0
 10
62.986325
 20
135.687729
 30
0.0
  0
LWPOLYLINE
  5
144
100
AcDbEntity
  8
0
 62
7
100
AcDbPolyline
 90
2
 70
0
 10
62.986325
 20
147.925956
 30
0.0
 10
62.986325
 20
135.687729
 30
0.0
  0
LWPOLYLINE
  5
145
100
AcDbEntity
  8
0
 62
7
100
AcDbPolyline
 90
20
 70
0
 10
75.224549
 20
146.177638
 30
0.0
 10
74.059004
 20
147.343183
 30
0.0
 10
72.310685
 20
147.925956
 30
0.0
 10
69.979594
 20
147.925956
 30
0.0
 10
68.231277
 20
147.343183
 30
0.0
 10
67.065732
 20
146.177638
 30
0.0
 10
67.065732
 20
145.012092
 30
0.0
 10
67.648504
 20
143.846547
 30
0.0
 10
68.231277
 20
143.263774
 30
0.0
 10
69.396822
 20
142.681001
 30
0.0
 10
72.893458
 20
141.515456
 30
0.0
 10
74.059004
 20
140.932683
 30
0.0
 10
74.641776
 20
140.349910
 30
0.0
 10
75.224549
 20
139.184365
 30
0.0
 10
75.224549
 20
137.436047
 30
0.0
 10
74.059004
 20
136.270501
 30
0.0
 10
72.310685
 20
135.687729
 30
0.0
 10
69.979594
 20
135.687729
 30
0.0
 10
68.231277
 20
136.270501
 30
0.0
 10
67.065732
 20
137.436047
 30
0.0
  0
LWPOLYLINE
  5
146
100
AcDbEntity
  8
0
 62
7
100
AcDbPolyline
 90
2
 70
0
 10
81.635049
 20
147.925956
 30
0.0
 10
81.635049
 20
135.687729
 30
0.0
  0
LWPOLYLINE
  5
147
100
AcDbEntity
  8
0
 62
7
100
AcDbPolyline
 90
2
 70
0
 10
77.555640
 20
147.925956
 30
0.0
 10
85.714458
 20
147.925956
 30
0.0
  0
LWPOLYLINE
  5
148
100
AcDbEntity
  8
0
 62
7
100
AcDbPolyline
 90
2
 70
0
 10
88.628322
 20
147.925956
 30
0.0
 10
88.628322
 20
135.687729
 30
0.0
  0
LWPOLYLINE
  5
149
100
AcDbEntity
  8
0
 62
7
100
AcDbPolyline
 90
2
 70
0
 10
95.621594
 20
147.925956
 30
0.0
 10
95.621594
 20
135.687729
 30
0.0
  0
LWPOLYLINE
  5
14a
100
AcDbEntity
  8
0
 62
7
100
AcDbPolyline
 90
2
 70
0
 10
91.542185
 20
147.925956
 30
0.0
 10
99.701003
 20
147.925956
 30
0.0
  0
LWPOLYLINE
  5
14b
100
AcDbEntity
  8
0
 62
7
100
AcDbPolyline
 90
10
 70
0
 10
102.614867
 20
147.925956
 30
0.0
 10
102.614867
 20
139.184365
 30
0.0
 10
103.197640
 20
137.436047
 30
0.0
 10
104.363185
 20
136.270501
 30
0.0
 10
106.111503
 20
135.687729
 30
0.0
 10
107.277044
 20
135.687729
 30
0.0
 10
109.025355
 20
136.270501
 30
0.0
 10
110.190896
 20
137.436047
 30
0.0
 10
110.773666
 20
139.184365
 30
0.0
 10
110.773666
 20
147.925956
 30
0.0
  0
LWPOLYLINE
  5
14c
100
AcDbEntity
  8
0
 62
7
100
AcDbPolyline
 90
2
 70
0
 10
117.766906
 20
147.925956
 30
0.0
 10
117.766906
 20
135.687729
 30
0.0
  0
LWPOLYLINE
  5
14d
100
AcDbEntity
  8
0
 62
7
100
AcDbPolyline
 90
2
 70
0
 10
113.687516
 20
147.925956
 30
0.0
 10
121.846299
 20
147.925956
 30
0.0
  0
LWPOLYLINE
  5
14e
100
AcDbEntity
  8
0
 62
7
100
AcDbPolyline
 90
2
 70
0
 10
133.226871
 20
147.925956
 30
0.0
 10
133.226871
 20
135.687729
 30
0.0
  0
LWPOLYLINE
  5
14f
100
AcDbEntity
  8
0
 62
7
100
AcDbPolyline
 90
12
 70
0
 10
133.226871
 20
147.925956
 30
0.0
 10
137.306280
 20
147.925956
 30
0.0
 10
139.054599
 20
147.343183
 30
0.0
 10
140.220144
 20
146.177638
 30
0.0
 10
140.802917
 20
145.012092
 30
0.0
 10
141.385690
 20
143.263774
 30
0.0
 10
141.385690
 20
140.349910
 30
0.0
 10
140.802917
 20
138.601592
 30
0.0
 10
140.220144
 20
137.436047
 30
0.0
 10
139.054599
 20
136.270501
 30
0.0
 10
137.306280
 20
135.687729
 30
0.0
 10
133.226871
 20
135.687729
 30
0.0
  0
LWPOLYLINE
  5
150
100
AcDbEntity
  8
0
 62
7
100
AcDbPolyline
 90
2
 70
0
 10
145.465099
 20
147.925956
 30
0.0
 10
145.465099
 20
135.687729
 30
0.0
  0
LWPOLYLINE
  5
151
100
AcDbEntity
  8
0
 62
7
100
AcDbPolyline
 90
2
 70
0
 10
145.465099
 20
147.925956
 30
0.0
 10
153.041144
 20
147.925956
 30
0.0
  0
LWPOLYLINE
  5
152
100
AcDbEntity
  8
0
 62
7
100
AcDbPolyline
 90
2
 70
0
 10
145.465099
 20
142.098229
 30
0.0
 10
150.127280
 20
142.098229
 30
0.0
  0
LWPOLYLINE
  5
153
100
AcDbEntity
  8
0
 62
7
100
AcDbPolyline
 90
2
 70
0
 10
145.465099
 20
135.687729
 30
0.0
 10
153.041144
 20
135.687729
 30
0.0
  0
LWPOLYLINE
  5
154
100
AcDbEntity
  8
0
 62
7
100
AcDbPolyline
 90
2
 70
0
 10
163.416981
 20
147.925956
 30
0.0
 10
163.416981
 20
135.687729
 30
0.0
  0
LWPOLYLINE
  5
155
100
AcDbEntity
  8
0
 62
7
100
AcDbPolyline
 90
2
 70
0
 10
163.416981
 20
147.925956
 30
0.0
 10
170.993026
 20
147.925956
 30
0.0
  0
LWPOLYLINE
  5
156
100
AcDbEntity
  8
0
 62
7
100
AcDbPolyline
 90
2
 70
0
 10
163.416981
 20
142.098229
 30
0.0
 10
168.079163
 20
142.098229
 30
0.0
  0
LWPOLYLINE
  5
157
100
AcDbEntity
  8
0
 62
7
100
AcDbPolyline
 90
20
 70
1
 10
176.820754
 20
147.925956
 30
0.0
 10
175.655208
 20
147.343183
 30
0.0
 10
174.489663
 20
146.177638
 30
0.0
 10
173.906890
 20
145.012092
 30
0.0
 10
173.324117
 20
143.263774
 30
0.0
 10
173.324117
 20
140.349910
 30
0.0
 10
173.906890
 20
138.601592
 30
0.0
 10
174.489663
 20
137.436047
 30
0.0
 10
175.655208
 20
136.270501
 30
0.0
 10
176.820754
 20
135.687729
 30
0.0
 10
179.151845
 20
135.687729
 30
0.0
 10
180.317390
 20
136.270501
 30
0.0
 10
181.482935
 20
137.436047
 30
0.0
 10
182.065708
 20
138.601592
 30
0.0
 10
182.648481
 20
140.349910
 30
0.0
 10
182.648481
 20
143.263774
 30
0.0
 10
182.065708
 20
145.012092
 30
0.0
 10
181.482935
 20
146.177638
 30
0.0
 10
180.317390
 20
147.343183
 30
0.0
 10
179.151845
 20
147.925956
 30
0.0
  0
LWPOLYLINE
  5
158
100
AcDbEntity
  8
0
 62
7
100
AcDbPolyline
 90
2
 70
0
 10
186.727890
 20
147.925956
 30
0.0
 10
186.727890
 20
135.687729
 30
0.0
  0
LWPOLYLINE
  5
159
100
AcDbEntity
  8
0
 62
7
100
AcDbPolyline
 90
10
 70
0
 10
186.727890
 20
147.925956
 30
0.0
 10
191.972844
 20
147.925956
 30
0.0
 10
193.721163
 20
147.343183
 30
0.0
 10
194.303935
 20
146.760410
 30
0.0
 10
194.886708
 20
145.594865
 30
0.0
 10
194.886708
 20
144.429320
 30
0.0
 10
194.303935
 20
143.263774
 30
0.0
 10
193.721163
 20
142.681001
 30
0.0
 10
191.972844
 20
142.098229
 30
0.0
 10
186.727890
 20
142.098229
 30
0.0
  0
LWPOLYLINE
  5
15a
100
AcDbEntity
  8
0
 62
7
100
AcDbPolyline
 90
2
 70
0
 10
190.807299
 20
142.098229
 30
0.0
 10
194.886708
 20
135.687729
 30
0.0
  0
LWPOLYLINE
  5
15b
100
AcDbEntity
  8
0
 62
7
100
AcDbPolyline
 90
2
 70
0
 10
198.966117
 20
147.925956
 30
0.0
 10
198.966117
 20
135.687729
 30
0.0
  0
LWPOLYLINE
  5
15c
100
AcDbEntity
  8
0
 62
7
100
AcDbPolyline
 90
2
 70
0
 10
198.966117
 20
147.925956
 30
0.0
 10
203.628299
 20
135.687729
 30
0.0
  0
LWPOLYLINE
  5
15d
100
AcDbEntity
  8
0
 62
7
100
AcDbPolyline
 90
2
 70
0
 10
208.290481
 20
147.925956
 30
0.0
 10
203.628299
 20
135.687729
 30
0.0
  0
LWPOLYLINE
  5
15e
100
AcDbEntity
  8
0
 62
7
100
AcDbPolyline
 90
2
 70
0
 10
208.290481
 20
147.925956
 30
0.0
 10
208.290481
 20
135.687729
 30
0.0
  0
LWPOLYLINE
  5
15f
100
AcDbEntity
  8
0
 62
7
100
AcDbPolyline
 90
2
 70
0
 10
215.866526
 20
147.925956
 30
0.0
 10
211.204344
 20
135.687729
 30
0.0
  0
LWPOLYLINE
  5
160
100
AcDbEntity
  8
0
 62
7
100
AcDbPolyline
 90
2
 70
0
 10
215.866526
 20
147.925956
 30
0.0
 10
220.528708
 20
135.687729
 30
0.0
  0
LWPOLYLINE
  5
161
100
AcDbEntity
  8
0
 62
7
100
AcDbPolyline
 90
2
 70
0
 10
212.952662
 20
139.767138
 30
0.0
 10
218.780390
 20
139.767138
 30
0.0
  0
LWPOLYLINE
  5
162
100
AcDbEntity
  8
0
 62
7
100
AcDbPolyline
 90
2
 70
0
 10
225.773662
 20
147.925956
 30
0.0
 10
225.773662
 20
135.687729
 30
0.0
  0
LWPOLYLINE
  5
163
100
AcDbEntity
  8
0
 62
7
100
AcDbPolyline
 90
2
 70
0
 10
221.694253
 20
147.925956
 30
0.0
 10
229.853071
 20
147.925956
 30
0.0
  0
LWPOLYLINE
  5
164
100
AcDbEntity
  8
0
 62
7
100
AcDbPolyline
 90
2
 70
0
 10
232.766935
 20
147.925956
 30
0.0
 10
232.766935
 20
135.687729
 30
0.0
  0
LWPOLYLINE
  5
165
100
AcDbEntity
  8
0
 62
7
100
AcDbPolyline
 90
20
 70
1
 10
240.342980
 20
147.925956
 30
0.0
 10
239.177435
 20
147.343183
 30
0.0
 10
238.011889
 20
146.177638
 30
0.0
 10
237.429117
 20
145.012092
 30
0.0
 10
236.846344
 20
143.263774
 30
0.0
 10
236.846344
 20
140.349910
 30
0.0
 10
237.429117
 20
138.601592
 30
0.0
 10
238.011889
 20
137.436047
 30
0.0
 10
239.177435
 20
136.270501
 30
0.0
 10
240.342980
 20
135.687729
 30
0.0
 10
242.674071
 20
135.687729
 30
0.0
 10
243.839617
 20
136.270501
 30
0.0
 10
245.005162
 20
137.436047
 30
0.0
 10
245.587935
 20
138.601592
 30
0.0
 10
246.170708
 20
140.349910
 30
0.0
 10
246.170708
 20
143.263774
 30
0.0
 10
245.587935
 20
145.012092
 30
0.0
 10
245.005162
 20
146.177638
 30
0.0
 10
243.839617
 20
147.343183
 30
0.0
 10
242.674071
 20
147.925956
 30
0.0
  0
LWPOLYLINE
  5
166
100
AcDbEntity
  8
0
 62
7
100
AcDbPolyline
 90
2
 70
0
 10
250.250117
 20
147.925956
 30
0.0
 10
250.250117
 20
135.687729
 30
0.0
  0
LWPOLYLINE
  5
167
100
AcDbEntity
  8
0
 62
7
100
AcDbPolyline
 90
2
 70
0
 10
250.250117
 20
147.925956
 30
0.0
 10
258.408935
 20
135.687729
 30
0.0
  0
LWPOLYLINE
  5
168
100
AcDbEntity
  8
0
 62
7
100
AcDbPolyline
 90
2
 70
0
 10
258.408935
 20
147.925956
 30
0.0
 10
258.408935
 20
135.687729
 30
0.0
  0
LWPOLYLINE
  5
169
100
AcDbEntity
  8
0
 62
7
100
AcDbPolyline
 90
2
 70
0
 10
274.980858
 20
147.925956
 30
0.0
 10
270.318676
 20
135.687729
 30
0.0
  0
LWPOLYLINE
  5
16a
100
AcDbEntity
  8
0
 62
7
100
AcDbPolyline
 90
2
 70
0
 10
274.980858
 20
147.925956
 30
0.0
 10
279.643040
 20
135.687729
 30
0.0
  0
LWPOLYLINE
  5
16b
100
AcDbEntity
  8
0
 62
7
100
AcDbPolyline
 90
2
 70
0
 10
272.066994
 20
139.767138
 30
0.0
 10
277.894722
 20
139.767138
 30
0.0
  0
LWPOLYLINE
  5
16c
100
AcDbEntity
  8
0
 62
7
100
AcDbPolyline
 90
10
 70
0
 10
282.556903
 20
147.925956
 30
0.0
 10
282.556903
 20
139.184365
 30
0.0
 10
283.139676
 20
137.436047
 30
0.0
 10
284.305222
 20
136.270501
 30
0.0
 10
286.053540
 20
135.687729
 30
0.0
 10
287.219085
 20
135.687729
 30
0.0
 10
288.967403
 20
136.270501
 30
0.0
 10
290.132949
 20
137.436047
 30
0.0
 10
290.715722
 20
139.184365
 30
0.0
 10
290.715722
 20
147.925956
 30
0.0
  0
LWPOLYLINE
  5
16d
100
AcDbEntity
  8
0
 62
7
100
AcDbPolyline
 90
2
 70
0
 10
294.795131
 20
147.925956
 30
0.0
 10
302.953949
 20
135.687729
 30
0.0
  0
LWPOLYLINE
  5
16e
100
AcDbEntity
  8
0
 62
7
100
AcDbPolyline
 90
2
 70
0
 10
302.953949
 20
147.925956
 30
0.0
 10
294.795131
 20
135.687729
 30
0.0
  0
ENDSEC
  0
SECTION
  2
OBJECTS
  0
DICTIONARY
  5
C
330
0
100
AcDbDictionary
  3
ACAD_GROUP
350
D
  3
ACAD_MLINESTYLE
350
17
  0
DICTIONARY
  5
D
330
C
100
AcDbDictionary
  0
DICTIONARY
  5
1A
330
C
100
AcDbDictionary
  0
DICTIONARY
  5
17
330
C
100
AcDbDictionary
  3
STANDARD
350
18
  0
DICTIONARY
  5
19
330
C
100
AcDbDictionary
  0
ENDSEC
  0
EOF
