<?xml version="1.0" encoding="UTF-8"?> <svg xmlns="http://www.w3.org/2000/svg" width="212.17" height="151.2" viewBox="0 0 212.17 151.2"><title>arduino-uno-rev3</title><path d="M200.65,0,205,4.32v32.4l7.2,7.2V136.8L205,144v4.36a2.84,2.84,0,0,1-2.83,2.84H20.61a2.84,2.84,0,0,1-2.81-2.84h0V2.83A2.85,2.85,0,0,1,20.61,0h180m-.22,50.4a4.54,4.54,0,1,0,9.08,0h0a4.54,4.54,0,1,0-9.08,0Zm0,79.2a4.54,4.54,0,1,0,9.08,0h0a4.54,4.54,0,1,0-9.08,0ZM56.44,7.2a4.54,4.54,0,0,0,9.07,0h0a4.54,4.54,0,0,0-9.07,0ZM52.8,144a4.54,4.54,0,0,0,9.07.43,3.08,3.08,0,0,0,0-.43h0a4.54,4.54,0,0,0-9.07,0Zm107.73,0a1.21,1.21,0,1,0,2.41,0h0a1.21,1.21,0,0,0-2.41-.22A.81.81,0,0,0,160.53,144Zm7.2,0a1.21,1.21,0,0,0,1.19,1.21h0a1.21,1.21,0,0,0,1.21-1.21h0a1.21,1.21,0,0,0-2.41-.22A.81.81,0,0,0,167.73,144Zm7.2,0a1.21,1.21,0,0,0,2.41.22.81.81,0,0,0,0-.22h0a1.21,1.21,0,0,0-2.41-.22A.81.81,0,0,0,174.93,144Zm7.2,0a1.21,1.21,0,0,0,2.41.22.81.81,0,0,0,0-.22h0a1.21,1.21,0,0,0-1.31-1.1A1.23,1.23,0,0,0,182.13,144Zm7.2,0a1.24,1.24,0,0,0,2.47,0v0h0a1.21,1.21,0,0,0-2.41-.22.81.81,0,0,0,0,.22Zm7.2,0a1.21,1.21,0,1,0,2.41,0h0a1.21,1.21,0,0,0-1.31-1.1A1.23,1.23,0,0,0,196.53,144Zm.27-79.2a1.35,1.35,0,0,0,2.69,0h0a1.35,1.35,0,0,0-2.69-.23A.89.89,0,0,0,196.8,64.8Zm7.2,0a1.35,1.35,0,0,0,2.69,0h0a1.35,1.35,0,0,0-2.69-.23A.89.89,0,0,0,204,64.8ZM196.8,72a1.35,1.35,0,1,0,2.69.23.89.89,0,0,0,0-.23h0a1.35,1.35,0,0,0-2.69-.23A.89.89,0,0,0,196.8,72Zm7.2,0a1.35,1.35,0,1,0,2.69.23.89.89,0,0,0,0-.23h0a1.35,1.35,0,0,0-2.69-.23A.89.89,0,0,0,204,72Zm-7.2,7.2a1.35,1.35,0,1,0,2.69.23.89.89,0,0,0,0-.23h0A1.35,1.35,0,1,0,196.8,79,.89.89,0,0,0,196.8,79.2Zm7.2,0a1.35,1.35,0,1,0,2.69.23.89.89,0,0,0,0-.23h0A1.35,1.35,0,1,0,204,79,.89.89,0,0,0,204,79.2ZM75.47,16.56a1.35,1.35,0,1,0,2.69.23.89.89,0,0,0,0-.23h0a1.35,1.35,0,0,0-2.69-.23A.89.89,0,0,0,75.47,16.56Zm0,7.2a1.35,1.35,0,1,0,2.69.23.89.89,0,0,0,0-.23h0a1.35,1.35,0,1,0-2.69-.23A.89.89,0,0,0,75.47,23.76Zm-7.21-7.2a1.35,1.35,0,0,0,2.7,0h0a1.35,1.35,0,0,0-2.7,0Zm0,7.2a1.35,1.35,0,1,0,2.7,0h0a1.35,1.35,0,1,0-2.7,0Zm-7.2-7.2a1.35,1.35,0,1,0,1.35-1.35h0A1.37,1.37,0,0,0,61.06,16.56Zm0,7.2a1.35,1.35,0,1,0,1.35-1.35h0A1.37,1.37,0,0,0,61.06,23.76ZM134.65,7.2a1.21,1.21,0,0,0,1.19,1.21h0a1.23,1.23,0,0,0,1.21-1.2h0a1.21,1.21,0,0,0-1.31-1.1,1.23,1.23,0,0,0-1.1,1.1Zm-7.2,0a1.21,1.21,0,0,0,1.19,1.21h0a1.23,1.23,0,0,0,1.21-1.2h0a1.21,1.21,0,0,0-1.31-1.1,1.23,1.23,0,0,0-1.1,1.1Zm-7.2,0a1.19,1.19,0,0,0,1.17,1.21h0a1.23,1.23,0,0,0,1.21-1.2h0a1.21,1.21,0,0,0-1.31-1.1,1.23,1.23,0,0,0-1.1,1.1Zm-7.2,0a1.21,1.21,0,0,0,1.19,1.21h0a1.23,1.23,0,0,0,1.21-1.2h0a1.21,1.21,0,0,0-1.31-1.1,1.23,1.23,0,0,0-1.1,1.1Zm-7.2,0A1.19,1.19,0,0,0,107,8.41h0a1.23,1.23,0,0,0,1.21-1.2h0A1.21,1.21,0,0,0,107,6.11a1.23,1.23,0,0,0-1.1,1.1Zm-7.2,0a1.21,1.21,0,0,0,1.19,1.21h0a1.23,1.23,0,0,0,1.21-1.2h0a1.21,1.21,0,0,0-1.31-1.1,1.23,1.23,0,0,0-1.1,1.1Zm-7.2,0a1.19,1.19,0,0,0,1.17,1.21h0a1.23,1.23,0,0,0,1.21-1.2h0a1.21,1.21,0,0,0-1.31-1.1,1.23,1.23,0,0,0-1.1,1.1Zm-7.2,0a1.19,1.19,0,0,0,1.17,1.21h0a1.23,1.23,0,0,0,1.21-1.2h0A1.21,1.21,0,0,0,84.25,7a.81.81,0,0,0,0,.22Zm-7.2,0a1.21,1.21,0,0,0,1.19,1.21h0a1.23,1.23,0,0,0,1.21-1.2h0a1.21,1.21,0,0,0-1.31-1.1,1.23,1.23,0,0,0-1.1,1.1Zm-7.2,0A1.19,1.19,0,0,0,71,8.41h0a1.23,1.23,0,0,0,1.21-1.2h0A1.21,1.21,0,0,0,71,6.11a1.23,1.23,0,0,0-1.1,1.1Zm126.72,0a1.21,1.21,0,0,0,1.19,1.21h0A1.23,1.23,0,0,0,199,7.21h0a1.21,1.21,0,0,0-1.31-1.1,1.23,1.23,0,0,0-1.1,1.1Zm-7.2,0a1.21,1.21,0,0,0,1.19,1.21h0a1.22,1.22,0,0,0,1.23-1.2h0A1.21,1.21,0,0,0,189.39,7a.81.81,0,0,0,0,.22Zm-7.2,0a1.21,1.21,0,0,0,1.19,1.21h0a1.21,1.21,0,0,0,1.21-1.2h0a1.21,1.21,0,0,0-1.31-1.1,1.23,1.23,0,0,0-1.1,1.1Zm-7.2,0a1.21,1.21,0,0,0,2.41,0h0A1.21,1.21,0,0,0,175,7,.81.81,0,0,0,175,7.2Zm-7.2,0a1.19,1.19,0,0,0,1.17,1.21h0a1.21,1.21,0,0,0,1.21-1.2h0a1.21,1.21,0,0,0-1.31-1.1,1.23,1.23,0,0,0-1.1,1.1Zm-7.2,0a1.21,1.21,0,0,0,1.19,1.21h0A1.23,1.23,0,0,0,163,7.21h0a1.21,1.21,0,0,0-1.31-1.1,1.23,1.23,0,0,0-1.1,1.1Zm-7.2,0a1.21,1.21,0,0,0,1.19,1.21h0a1.22,1.22,0,0,0,1.23-1.2h0A1.21,1.21,0,0,0,153.39,7a.81.81,0,0,0,0,.22Zm-7.2,0a1.21,1.21,0,0,0,1.19,1.21h0a1.21,1.21,0,0,0,1.21-1.2h0a1.21,1.21,0,0,0-1.31-1.1,1.23,1.23,0,0,0-1.1,1.1ZM103,144a1.21,1.21,0,1,0,2.41,0h0a1.21,1.21,0,0,0-1.31-1.1A1.23,1.23,0,0,0,103,144Zm-7.17,0a1.21,1.21,0,0,0,2.41.22.81.81,0,0,0,0-.22h0a1.21,1.21,0,0,0-2.41-.22A.81.81,0,0,0,95.8,144Zm14.4,0a1.21,1.21,0,1,0,2.41,0h0a1.21,1.21,0,0,0-1.31-1.1,1.23,1.23,0,0,0-1.1,1.1Zm7.2,0a1.2,1.2,0,1,0,2.4,0h0a1.21,1.21,0,0,0-2.41-.22.81.81,0,0,0,0,.22Zm7.2,0a1.21,1.21,0,0,0,1.19,1.21h0A1.23,1.23,0,0,0,127,144h0a1.21,1.21,0,0,0-1.31-1.1,1.23,1.23,0,0,0-1.1,1.1Zm7.2,0a1.21,1.21,0,0,0,1.19,1.21h0a1.21,1.21,0,0,0,1.21-1.21h0a1.21,1.21,0,0,0-2.41-.22A.81.81,0,0,0,131.8,144Zm7.2,0a1.21,1.21,0,0,0,2.41.22.81.81,0,0,0,0-.22h0a1.21,1.21,0,0,0-2.41-.22A.81.81,0,0,0,139,144Zm7.2,0a1.21,1.21,0,0,0,2.41.22.81.81,0,0,0,0-.22h0a1.21,1.21,0,0,0-1.31-1.1A1.23,1.23,0,0,0,146.2,144Z" transform="translate(0)" fill="#0f7391"></path><rect x="67.21" y="45.83" width="14.17" height="14.17" fill="#333"></rect><rect x="96.62" y="96.84" width="105.12" height="15.84" fill="#333"></rect><circle cx="161.78" cy="144" r="1.61" fill="none" stroke="#9a916c" stroke-width="0.81"></circle><path d="M160.16,140.3h3.22v7.4h-3.22v-7.4m0,3.7a1.61,1.61,0,0,0,3.22,0h0a1.61,1.61,0,1,0-3.22,0Z" transform="translate(0)" fill="#9a916c"></path><circle cx="168.98" cy="144" r="1.61" fill="none" stroke="#9a916c" stroke-width="0.81"></circle><path d="M167.36,140.3h3.22v7.4h-3.22v-7.4m0,3.7a1.61,1.61,0,0,0,3.22,0h0a1.61,1.61,0,1,0-3.22,0Z" transform="translate(0)" fill="#9a916c"></path><circle cx="176.18" cy="144" r="1.61" fill="none" stroke="#9a916c" stroke-width="0.81"></circle><path d="M174.56,140.3h3.24v7.4h-3.22v-7.4m0,3.7a1.61,1.61,0,0,0,3.22,0h0a1.61,1.61,0,1,0-3.22,0Z" transform="translate(0)" fill="#9a916c"></path><circle cx="183.38" cy="144" r="1.61" fill="none" stroke="#9a916c" stroke-width="0.81"></circle><path d="M181.8,140.3H185v7.4H181.8v-7.4m0,3.7a1.61,1.61,0,0,0,3.22,0h0a1.61,1.61,0,0,0-3.22,0Z" transform="translate(0)" fill="#9a916c"></path><circle cx="190.58" cy="144" r="1.61" fill="none" stroke="#9a916c" stroke-width="0.81"></circle><path d="M189,140.3h3.22v7.4H189v-7.4m0,3.7a1.61,1.61,0,0,0,3.22,0h0a1.61,1.61,0,0,0-3.22,0Z" transform="translate(0)" fill="#9a916c"></path><circle cx="197.78" cy="144" r="1.61" fill="none" stroke="#9a916c" stroke-width="0.81"></circle><path d="M196.16,140.3h3.22v7.4h-3.22v-7.4m0,3.7a1.61,1.61,0,1,0,3.22,0h0a1.61,1.61,0,1,0-3.22,0Z" transform="translate(0)" fill="#9a916c"></path><circle cx="198.14" cy="64.8" r="1.77" fill="none" stroke="#9a916c" stroke-width="0.85"></circle><circle cx="205.34" cy="64.8" r="1.77" fill="none" stroke="#9a916c" stroke-width="0.85"></circle><circle cx="198.14" cy="72" r="1.77" fill="none" stroke="#9a916c" stroke-width="0.85"></circle><circle cx="205.34" cy="72" r="1.77" fill="none" stroke="#9a916c" stroke-width="0.85"></circle><circle cx="198.14" cy="79.2" r="1.77" fill="none" stroke="#9a916c" stroke-width="0.85"></circle><circle cx="205.34" cy="79.2" r="1.77" fill="none" stroke="#9a916c" stroke-width="0.85"></circle><circle cx="76.82" cy="16.56" r="1.77" fill="none" stroke="#9a916c" stroke-width="0.85"></circle><circle cx="76.82" cy="23.76" r="1.77" fill="none" stroke="#9a916c" stroke-width="0.85"></circle><circle cx="69.62" cy="16.56" r="1.77" fill="none" stroke="#9a916c" stroke-width="0.85"></circle><circle cx="69.62" cy="23.76" r="1.77" fill="none" stroke="#9a916c" stroke-width="0.85"></circle><circle cx="62.41" cy="16.56" r="1.77" fill="none" stroke="#9a916c" stroke-width="0.85"></circle><circle cx="62.41" cy="23.76" r="1.77" fill="none" stroke="#9a916c" stroke-width="0.85"></circle><circle cx="135.85" cy="7.2" r="1.61" fill="none" stroke="#9a916c" stroke-width="0.81"></circle><path d="M134.24,3.5h3.22v7.4h-3.22V3.5m0,3.7a1.61,1.61,0,1,0,1.61-1.61,1.61,1.61,0,0,0-1.61,1.61Z" transform="translate(0)" fill="#9a916c"></path><circle cx="128.66" cy="7.2" r="1.61" fill="none" stroke="#9a916c" stroke-width="0.81"></circle><path d="M127,3.5h3.22v7.4H127V3.5m0,3.7a1.61,1.61,0,1,0,1.61-1.61A1.61,1.61,0,0,0,127,7.2Z" transform="translate(0)" fill="#9a916c"></path><circle cx="121.46" cy="7.2" r="1.61" fill="none" stroke="#9a916c" stroke-width="0.81"></circle><path d="M119.8,3.5H123v7.4H119.8V3.5m0,3.7a1.61,1.61,0,1,0,1.61-1.61A1.61,1.61,0,0,0,119.8,7.2Z" transform="translate(0)" fill="#9a916c"></path><circle cx="114.26" cy="7.2" r="1.61" fill="none" stroke="#9a916c" stroke-width="0.81"></circle><path d="M112.64,3.5h3.22v7.4h-3.22V3.5m0,3.7a1.61,1.61,0,1,0,1.61-1.61,1.61,1.61,0,0,0-1.61,1.61Z" transform="translate(0)" fill="#9a916c"></path><circle cx="107.06" cy="7.2" r="1.61" fill="none" stroke="#9a916c" stroke-width="0.81"></circle><path d="M105.44,3.5h3.22v7.4h-3.22V3.5m0,3.7a1.61,1.61,0,1,0,1.61-1.61,1.61,1.61,0,0,0-1.61,1.61Z" transform="translate(0)" fill="#9a916c"></path><circle cx="99.86" cy="7.2" r="1.61" fill="none" stroke="#9a916c" stroke-width="0.81"></circle><path d="M98.24,3.5h3.22v7.4H98.24V3.5m0,3.7a1.61,1.61,0,1,0,1.61-1.61A1.61,1.61,0,0,0,98.24,7.2Z" transform="translate(0)" fill="#9a916c"></path><circle cx="92.66" cy="7.2" r="1.61" fill="none" stroke="#9a916c" stroke-width="0.81"></circle><path d="M91,3.5h3.22v7.4H91V3.5m0,3.7a1.61,1.61,0,1,0,1.61-1.61A1.61,1.61,0,0,0,91,7.2Z" transform="translate(0)" fill="#9a916c"></path><circle cx="85.46" cy="7.2" r="1.61" fill="none" stroke="#9a916c" stroke-width="0.81"></circle><path d="M83.8,3.5H87v7.4H83.8V3.5m0,3.7a1.61,1.61,0,1,0,1.61-1.61A1.61,1.61,0,0,0,83.8,7.2Z" transform="translate(0)" fill="#9a916c"></path><circle cx="78.26" cy="7.2" r="1.61" fill="none" stroke="#9a916c" stroke-width="0.81"></circle><path d="M76.64,3.5h3.22v7.4H76.64V3.5m0,3.7a1.61,1.61,0,1,0,1.61-1.61A1.61,1.61,0,0,0,76.64,7.2Z" transform="translate(0)" fill="#9a916c"></path><circle cx="71.05" cy="7.2" r="1.61" fill="none" stroke="#9a916c" stroke-width="0.81"></circle><path d="M69.44,3.5h3.22v7.4H69.44V3.5m0,3.7a1.61,1.61,0,1,0,1.61-1.61A1.61,1.61,0,0,0,69.44,7.2Z" transform="translate(0)" fill="#9a916c"></path><circle cx="197.78" cy="7.2" r="1.61" fill="none" stroke="#9a916c" stroke-width="0.81"></circle><path d="M196.16,3.5h3.22v7.4h-3.22V3.5m0,3.7a1.61,1.61,0,1,0,1.64-1.61,1.61,1.61,0,0,0-1.64,1.61Z" transform="translate(0)" fill="#9a916c"></path><circle cx="190.58" cy="7.2" r="1.61" fill="none" stroke="#9a916c" stroke-width="0.81"></circle><path d="M189,3.5h3.22v7.4H189V3.5m0,3.7a1.61,1.61,0,1,0,1.61-1.61A1.61,1.61,0,0,0,189,7.2Z" transform="translate(0)" fill="#9a916c"></path><circle cx="183.38" cy="7.2" r="1.61" fill="none" stroke="#9a916c" stroke-width="0.81"></circle><path d="M181.8,3.5H185v7.4H181.8V3.5m0,3.7a1.61,1.61,0,1,0,1.61-1.61A1.61,1.61,0,0,0,181.8,7.2Z" transform="translate(0)" fill="#9a916c"></path><circle cx="176.18" cy="7.2" r="1.61" fill="none" stroke="#9a916c" stroke-width="0.81"></circle><path d="M174.56,3.5h3.24v7.4h-3.22V3.5m0,3.7a1.61,1.61,0,1,0,1.61-1.61,1.61,1.61,0,0,0-1.61,1.61v0Z" transform="translate(0)" fill="#9a916c"></path><circle cx="168.98" cy="7.2" r="1.61" fill="none" stroke="#9a916c" stroke-width="0.81"></circle><path d="M167.36,3.5h3.22v7.4h-3.22V3.5m0,3.7A1.61,1.61,0,1,0,169,5.59a1.61,1.61,0,0,0-1.61,1.61Z" transform="translate(0)" fill="#9a916c"></path><circle cx="161.78" cy="7.2" r="1.61" fill="none" stroke="#9a916c" stroke-width="0.81"></circle><path d="M160.16,3.5h3.22v7.4h-3.22V3.5m0,3.7a1.61,1.61,0,1,0,1.64-1.61,1.61,1.61,0,0,0-1.64,1.61Z" transform="translate(0)" fill="#9a916c"></path><circle cx="154.58" cy="7.2" r="1.61" fill="none" stroke="#9a916c" stroke-width="0.81"></circle><path d="M153,3.5h3.22v7.4H153V3.5m0,3.7a1.61,1.61,0,1,0,1.61-1.61A1.61,1.61,0,0,0,153,7.2Z" transform="translate(0)" fill="#9a916c"></path><circle cx="147.38" cy="7.2" r="1.61" fill="none" stroke="#9a916c" stroke-width="0.81"></circle><path d="M145.8,3.5H149v7.4H145.8V3.5m0,3.7a1.61,1.61,0,1,0,1.61-1.61A1.61,1.61,0,0,0,145.8,7.2Z" transform="translate(0)" fill="#9a916c"></path><circle cx="104.18" cy="144" r="1.61" fill="none" stroke="#9a916c" stroke-width="0.81"></circle><circle cx="96.98" cy="144" r="1.61" fill="none" stroke="#9a916c" stroke-width="0.81"></circle><path d="M102.56,140.3h3.24v7.4h-3.22v-7.4m0,3.7a1.61,1.61,0,0,0,3.22,0h0a1.61,1.61,0,1,0-3.22,0Z" transform="translate(0)" fill="#9a916c"></path><path d="M95.36,140.3h3.22v7.4H95.36v-7.4m0,3.7a1.61,1.61,0,0,0,3.22,0h0a1.61,1.61,0,1,0-3.22,0Z" transform="translate(0)" fill="#9a916c"></path><circle cx="111.38" cy="144" r="1.61" fill="none" stroke="#9a916c" stroke-width="0.81"></circle><path d="M109.8,140.3H113v7.4H109.8v-7.4m0,3.7a1.61,1.61,0,0,0,3.22,0h0a1.61,1.61,0,1,0-3.22,0Z" transform="translate(0)" fill="#9a916c"></path><circle cx="118.58" cy="144" r="1.61" fill="none" stroke="#9a916c" stroke-width="0.81"></circle><path d="M117,140.3h3.22v7.4H117v-7.4m0,3.7a1.61,1.61,0,0,0,3.22,0h0a1.61,1.61,0,0,0-3.22,0Z" transform="translate(0)" fill="#9a916c"></path><circle cx="125.78" cy="144" r="1.61" fill="none" stroke="#9a916c" stroke-width="0.81"></circle><path d="M124.16,140.3h3.22v7.4h-3.22v-7.4m0,3.7a1.61,1.61,0,0,0,3.22,0h0a1.61,1.61,0,1,0-3.22,0Z" transform="translate(0)" fill="#9a916c"></path><circle cx="132.98" cy="144" r="1.61" fill="none" stroke="#9a916c" stroke-width="0.81"></circle><path d="M131.36,140.3h3.22v7.4h-3.22v-7.4m0,3.7a1.61,1.61,0,0,0,3.22,0h0a1.61,1.61,0,1,0-3.22,0Z" transform="translate(0)" fill="#9a916c"></path><circle cx="140.18" cy="144" r="1.61" fill="none" stroke="#9a916c" stroke-width="0.81"></circle><path d="M138.56,140.3h3.24v7.4h-3.22v-7.4m0,3.7a1.61,1.61,0,0,0,3.22,0h0a1.61,1.61,0,1,0-3.22,0Z" transform="translate(0)" fill="#9a916c"></path><circle cx="147.38" cy="144" r="1.61" fill="none" stroke="#9a916c" stroke-width="0.81"></circle><path d="M145.8,140.3H149v7.4H145.8v-7.4m0,3.7a1.61,1.61,0,0,0,3.22,0h0a1.61,1.61,0,1,0-3.22,0Z" transform="translate(0)" fill="#9a916c"></path><path d="M125.66,37.07c.85-.93,1.5-1.78,2.28-2.48,3-2.66,6.31-3.64,10.13-2a8.05,8.05,0,0,1,4.79,9.14A8.36,8.36,0,0,1,135,48.11c-3.46.12-6-1.43-8.21-3.93-.33-.39-.65-.79-1.07-1.3-.29.35-.53.62-.75.9-2.32,2.91-5.19,4.56-9,4.32a8.4,8.4,0,0,1-7.48-7.5,8.22,8.22,0,0,1,7.65-8.75,6.77,6.77,0,0,1,.78,0,9.89,9.89,0,0,1,8,4.32Z" transform="translate(0)" fill="#fff"></path><path d="M117.36,34.46c-3.5,0-6,2.23-6.33,5.13a5.68,5.68,0,0,0,4.59,5.75,6.51,6.51,0,0,0,6.65-2.56c2.56-3.07,2.46-2.54,0-5.59A6.9,6.9,0,0,0,117.36,34.46Z" transform="translate(0)" fill="#0f7391"></path><path d="M134.68,34.43c-.33,0-.67,0-1,.08-3,.6-4.82,2.57-6.22,5.09a.89.89,0,0,0,0,.75c1.26,2.19,2.84,4.06,5.34,4.84a5.63,5.63,0,0,0,6.25-1.73,4.9,4.9,0,0,0,.85-5.72A5.82,5.82,0,0,0,134.68,34.43Z" transform="translate(0)" fill="#0f7391"></path><path d="M119.86,40.58a.15.15,0,0,1-.14.15h-5.17a.15.15,0,0,1-.14-.15V39a.14.14,0,0,1,.14-.14h5.17a.14.14,0,0,1,.14.14Z" transform="translate(0)" fill="#fff"></path><path d="M136.93,39a.14.14,0,0,0-.14-.14h-1.53a.14.14,0,0,1-.14-.14v-1.5a.14.14,0,0,0-.14-.14h-1.56a.15.15,0,0,0-.15.14v1.52a.14.14,0,0,1-.14.14h-1.52a.15.15,0,0,0-.15.14v1.57a.15.15,0,0,0,.15.14h1.52a.14.14,0,0,1,.14.14v1.52a.15.15,0,0,0,.15.14H135a.14.14,0,0,0,.14-.14V40.87a.14.14,0,0,1,.14-.14h1.54a.14.14,0,0,0,.14-.14Z" transform="translate(0)" fill="#fff"></path><circle cx="172.19" cy="32.52" r="0.57" fill="#fff"></circle><circle cx="170.77" cy="32.52" r="0.57" fill="#fff"></circle><circle cx="169.36" cy="32.52" r="0.57" fill="#fff"></circle><circle cx="167.94" cy="32.52" r="0.57" fill="#fff"></circle><circle cx="166.52" cy="32.52" r="0.57" fill="#fff"></circle><circle cx="165.11" cy="32.52" r="0.57" fill="#fff"></circle><circle cx="163.69" cy="32.52" r="0.57" fill="#fff"></circle><circle cx="162.27" cy="32.52" r="0.57" fill="#fff"></circle><circle cx="160.85" cy="32.52" r="0.57" fill="#fff"></circle><circle cx="159.44" cy="32.52" r="0.57" fill="#fff"></circle><circle cx="158.02" cy="32.52" r="0.57" fill="#fff"></circle><circle cx="156.6" cy="32.52" r="0.57" fill="#fff"></circle><circle cx="155.19" cy="32.52" r="0.57" fill="#fff"></circle><circle cx="153.77" cy="32.52" r="0.57" fill="#fff"></circle><circle cx="172.25" cy="47.4" r="0.57" fill="#fff"></circle><circle cx="173.6" cy="47.14" r="0.57" fill="#fff"></circle><circle cx="174.87" cy="46.63" r="0.57" fill="#fff"></circle><circle cx="176.04" cy="45.89" r="0.57" fill="#fff"></circle><circle cx="177.04" cy="44.96" r="0.57" fill="#fff"></circle><circle cx="177.86" cy="43.85" r="0.57" fill="#fff"></circle><circle cx="178.47" cy="42.62" r="0.57" fill="#fff"></circle><circle cx="178.84" cy="41.29" r="0.57" fill="#fff"></circle><circle cx="178.95" cy="39.92" r="0.57" fill="#fff"></circle><circle cx="178.82" cy="38.56" r="0.57" fill="#fff"></circle><circle cx="178.44" cy="37.24" r="0.57" fill="#fff"></circle><circle cx="177.82" cy="36.01" r="0.57" fill="#fff"></circle><circle cx="176.99" cy="34.91" r="0.57" fill="#fff"></circle><circle cx="175.97" cy="33.99" r="0.57" fill="#fff"></circle><circle cx="174.8" cy="33.27" r="0.57" fill="#fff"></circle><circle cx="173.52" cy="32.77" r="0.57" fill="#fff"></circle><circle cx="172.16" cy="32.52" r="0.57" fill="#fff"></circle><circle cx="170.79" cy="32.52" r="0.57" fill="#fff"></circle><circle cx="152.22" cy="47.31" r="0.57" fill="#fff"></circle><circle cx="150.89" cy="47.03" r="0.57" fill="#fff"></circle><circle cx="149.63" cy="46.51" r="0.57" fill="#fff"></circle><circle cx="148.49" cy="45.76" r="0.57" fill="#fff"></circle><circle cx="147.5" cy="44.83" r="0.57" fill="#fff"></circle><circle cx="146.7" cy="43.73" r="0.57" fill="#fff"></circle><circle cx="146.12" cy="42.5" r="0.57" fill="#fff"></circle><circle cx="145.76" cy="41.19" r="0.57" fill="#fff"></circle><circle cx="145.66" cy="39.83" r="0.57" fill="#fff"></circle><path d="M145.85,37.91a.57.57,0,1,1-.11,1.13.57.57,0,1,1,.11-1.13Z" transform="translate(0)" fill="#fff"></path><path d="M146.34,36.63a.57.57,0,0,1-.31,1.1.57.57,0,0,1-.39-.71h0a.56.56,0,0,1,.7-.38Z" transform="translate(0)" fill="#fff"></path><circle cx="146.8" cy="35.96" r="0.57" fill="#fff"></circle><circle cx="147.63" cy="34.88" r="0.57" fill="#fff"></circle><circle cx="148.64" cy="33.97" r="0.57" fill="#fff"></circle><circle cx="149.8" cy="33.26" r="0.57" fill="#fff"></circle><circle cx="151.07" cy="32.77" r="0.57" fill="#fff"></circle><circle cx="152.41" cy="32.52" r="0.57" fill="#fff"></circle><circle cx="153.77" cy="32.52" r="0.57" fill="#fff"></circle><circle cx="172.19" cy="47.45" r="0.57" fill="#fff"></circle><circle cx="170.77" cy="47.45" r="0.57" fill="#fff"></circle><circle cx="169.36" cy="47.45" r="0.57" fill="#fff"></circle><circle cx="167.94" cy="47.45" r="0.57" fill="#fff"></circle><circle cx="166.52" cy="47.45" r="0.57" fill="#fff"></circle><circle cx="165.11" cy="47.45" r="0.57" fill="#fff"></circle><circle cx="163.69" cy="47.45" r="0.57" fill="#fff"></circle><circle cx="162.27" cy="47.45" r="0.57" fill="#fff"></circle><circle cx="160.85" cy="47.45" r="0.57" fill="#fff"></circle><circle cx="159.44" cy="47.45" r="0.57" fill="#fff"></circle><circle cx="158.02" cy="47.45" r="0.57" fill="#fff"></circle><circle cx="156.6" cy="47.45" r="0.57" fill="#fff"></circle><circle cx="155.19" cy="47.45" r="0.57" fill="#fff"></circle><circle cx="153.77" cy="47.45" r="0.57" fill="#fff"></circle><path d="M154,44.56a3.44,3.44,0,0,1-2.24-.62,2.68,2.68,0,0,1-.94-1.43,7,7,0,0,1-.15-.9V35.35h.94v5.22a4,4,0,0,0,.57,2.5,2.3,2.3,0,0,0,1.66.56,2.88,2.88,0,0,0,1.88-.56,3.87,3.87,0,0,0,.57-2.5V35.35h1v5.24A5.84,5.84,0,0,1,156.8,43,2.73,2.73,0,0,1,154,44.56Z" transform="translate(0)" fill="#fff"></path><path d="M166.05,44.39h-.94L160.37,37v7.4h-.8v-9h.88l4.66,7.45v-7.5h.94Z" transform="translate(0)" fill="#fff"></path><path d="M171.71,35.13a3.68,3.68,0,0,1,2.85,1.32,4.67,4.67,0,0,1,.82,1.52,7,7,0,0,1,0,4,4.49,4.49,0,0,1-.82,1.52,3.59,3.59,0,0,1-2.85,1.35,3.84,3.84,0,0,1-1.6-.35,3.5,3.5,0,0,1-1.26-1A4.49,4.49,0,0,1,168,42a6.82,6.82,0,0,1,0-4,4.49,4.49,0,0,1,.82-1.52,3.61,3.61,0,0,1,1.26-1A3.67,3.67,0,0,1,171.71,35.13Zm0,8.56a2.49,2.49,0,0,0,2-1,3.82,3.82,0,0,0,.58-1.18,5.28,5.28,0,0,0,.21-1.58,5.35,5.35,0,0,0-.21-1.59,3.47,3.47,0,0,0-.58-1.17,2.44,2.44,0,0,0-2-1,2.52,2.52,0,0,0-2.05,1,3.66,3.66,0,0,0-.6,1.18,6.09,6.09,0,0,0,0,3.17,4,4,0,0,0,.59,1.18,2.69,2.69,0,0,0,.9.74,2.56,2.56,0,0,0,1.15.27Z" transform="translate(0)" fill="#fff"></path><rect x="158.18" y="140.4" width="43.2" height="7.2" fill="#404040"></rect><rect x="160.39" y="142.61" width="2.78" height="2.78"></rect><polygon points="159.36 141.58 160.38 142.61 163.17 142.61 164.19 141.58 159.36 141.58" fill="#2a2a29"></polygon><polygon points="164.19 141.58 163.17 142.61 163.17 145.39 164.19 146.42 164.19 141.58" fill="#474747"></polygon><polygon points="164.19 146.42 163.17 145.39 160.38 145.39 159.36 146.42 164.19 146.42" fill="#595959"></polygon><polygon points="159.36 146.42 160.38 145.39 160.38 142.61 159.36 141.58 159.36 146.42" fill="#373737"></polygon><rect x="167.59" y="142.61" width="2.78" height="2.78"></rect><polygon points="166.56 141.58 167.59 142.61 170.37 142.61 171.39 141.58 166.56 141.58" fill="#2a2a29"></polygon><polygon points="171.39 141.58 170.37 142.61 170.37 145.39 171.39 146.42 171.39 141.58" fill="#474747"></polygon><polygon points="171.39 146.42 170.37 145.39 167.59 145.39 166.56 146.42 171.39 146.42" fill="#595959"></polygon><polygon points="166.56 146.42 167.59 145.39 167.59 142.61 166.56 141.58 166.56 146.42" fill="#373737"></polygon><rect x="174.79" y="142.61" width="2.78" height="2.78"></rect><polygon points="173.76 141.58 174.78 142.61 177.57 142.61 178.59 141.58 173.76 141.58" fill="#2a2a29"></polygon><polygon points="178.59 141.58 177.57 142.61 177.57 145.39 178.59 146.42 178.59 141.58" fill="#474747"></polygon><polygon points="178.59 146.42 177.57 145.39 174.78 145.39 173.76 146.42 178.59 146.42" fill="#595959"></polygon><polygon points="173.76 146.42 174.78 145.39 174.78 142.61 173.76 141.58 173.76 146.42" fill="#373737"></polygon><rect x="181.99" y="142.61" width="2.78" height="2.78"></rect><polygon points="180.96 141.58 181.99 142.61 184.77 142.61 185.79 141.58 180.96 141.58" fill="#2a2a29"></polygon><polygon points="185.79 141.58 184.77 142.61 184.77 145.39 185.79 146.42 185.79 141.58" fill="#474747"></polygon><polygon points="185.79 146.42 184.77 145.39 181.99 145.39 180.96 146.42 185.79 146.42" fill="#595959"></polygon><polygon points="180.96 146.42 181.99 145.39 181.99 142.61 180.96 141.58 180.96 146.42" fill="#373737"></polygon><rect x="189.19" y="142.61" width="2.78" height="2.78"></rect><polygon points="188.16 141.58 189.18 142.61 191.97 142.61 192.99 141.58 188.16 141.58" fill="#2a2a29"></polygon><polygon points="192.99 141.58 191.97 142.61 191.97 145.39 192.99 146.42 192.99 141.58" fill="#474747"></polygon><polygon points="192.99 146.42 191.97 145.39 189.18 145.39 188.16 146.42 192.99 146.42" fill="#595959"></polygon><polygon points="188.16 146.42 189.18 145.39 189.18 142.61 188.16 141.58 188.16 146.42" fill="#373737"></polygon><rect x="196.39" y="142.61" width="2.78" height="2.78"></rect><polygon points="195.36 141.58 196.38 142.61 199.17 142.61 200.19 141.58 195.36 141.58" fill="#2a2a29"></polygon><polygon points="200.19 141.58 199.17 142.61 199.17 145.39 200.19 146.42 200.19 141.58" fill="#474747"></polygon><polygon points="200.19 146.42 199.17 145.39 196.38 145.39 195.36 146.42 200.19 146.42" fill="#595959"></polygon><polygon points="195.36 146.42 196.38 145.39 196.38 142.61 195.36 141.58 195.36 146.42" fill="#373737"></polygon><polygon points="207.34 61.3 203.41 61.3 200.06 61.3 196.13 61.3 194.62 62.81 194.62 66.74 196.13 68.25 200.06 68.25 203.41 68.25 207.34 68.25 208.85 66.74 208.85 62.81 207.34 61.3" fill="#404040"></polygon><polygon points="207.34 68.48 203.41 68.48 200.06 68.48 196.13 68.48 194.62 69.99 194.62 73.92 196.13 75.43 200.06 75.43 203.41 75.43 207.34 75.43 208.85 73.92 208.85 69.99 207.34 68.48" fill="#404040"></polygon><polygon points="207.34 75.66 203.41 75.66 200.06 75.66 196.13 75.66 194.62 77.17 194.62 81.1 196.13 82.61 200.06 82.61 203.41 82.61 207.34 82.61 208.85 81.1 208.85 77.17 207.34 75.66" fill="#404040"></polygon><polygon points="207.34 61.3 203.41 61.3 200.06 61.3 196.13 61.3 194.62 62.81 194.62 66.74 196.13 68.25 200.06 68.25 203.41 68.25 207.34 68.25 208.85 66.74 208.85 62.81 207.34 61.3" fill="#404040"></polygon><polygon points="207.34 68.48 203.41 68.48 200.06 68.48 196.13 68.48 194.62 69.99 194.62 73.92 196.13 75.43 200.06 75.43 203.41 75.43 207.34 75.43 208.85 73.92 208.85 69.99 207.34 68.48" fill="#404040"></polygon><polygon points="207.34 75.66 203.41 75.66 200.06 75.66 196.13 75.66 194.62 77.17 194.62 81.1 196.13 82.61 200.06 82.61 203.41 82.61 207.34 82.61 208.85 81.1 208.85 77.17 207.34 75.66" fill="#404040"></polygon><rect x="197.03" y="77.85" width="2.3" height="2.3" fill="#8d8c8c"></rect><rect x="204.23" y="77.85" width="2.3" height="2.3" fill="#8d8c8c"></rect><rect x="197.03" y="70.65" width="2.3" height="2.3" fill="#8d8c8c"></rect><rect x="204.23" y="70.65" width="2.3" height="2.3" fill="#8d8c8c"></rect><rect x="197.03" y="63.45" width="2.3" height="2.3" fill="#8d8c8c"></rect><rect x="204.23" y="63.45" width="2.3" height="2.3" fill="#8d8455"></rect><rect x="204.78" y="64.01" width="1.18" height="1.18" fill="#8c8663"></rect><polygon points="204.23 63.45 204.78 64.01 205.96 64.01 206.52 63.45 204.23 63.45" fill="#b8af82"></polygon><polygon points="205.96 65.19 205.96 64.01 206.52 63.45 206.52 65.75 205.96 65.19" fill="#80795b"></polygon><polygon points="204.78 65.19 205.96 65.19 206.52 65.75 204.23 65.75 204.78 65.19" fill="#5e5b43"></polygon><polygon points="204.23 63.45 204.78 64.01 204.78 65.19 204.23 65.75 204.23 63.45" fill="#9a916c"></polygon><rect x="197.58" y="64.01" width="1.18" height="1.18" fill="#8c8663"></rect><polygon points="197.03 63.45 197.59 64.01 198.76 64.01 199.32 63.45 197.03 63.45" fill="#b8af82"></polygon><polygon points="198.76 65.19 198.76 64.01 199.32 63.45 199.32 65.75 198.76 65.19" fill="#80795b"></polygon><polygon points="197.59 65.19 198.76 65.19 199.32 65.75 197.03 65.75 197.59 65.19" fill="#5e5b43"></polygon><polygon points="197.03 63.45 197.59 64.01 197.59 65.19 197.03 65.75 197.03 63.45" fill="#9a916c"></polygon><rect x="204.78" y="71.2" width="1.18" height="1.18" fill="#8c8663"></rect><polygon points="204.23 70.65 204.78 71.21 205.96 71.21 206.52 70.65 204.23 70.65" fill="#b8af82"></polygon><polygon points="205.96 72.39 205.96 71.21 206.52 70.65 206.52 72.95 205.96 72.39" fill="#80795b"></polygon><polygon points="204.78 72.39 205.96 72.39 206.52 72.95 204.23 72.95 204.78 72.39" fill="#5e5b43"></polygon><polygon points="204.23 70.65 204.78 71.21 204.78 72.39 204.23 72.95 204.23 70.65" fill="#9a916c"></polygon><rect x="197.58" y="71.21" width="1.19" height="1.18" fill="#8c8663"></rect><polygon points="197.03 70.65 197.59 71.21 198.76 71.21 199.32 70.65 197.03 70.65" fill="#b8af82"></polygon><polygon points="198.76 72.39 198.76 71.21 199.32 70.65 199.32 72.95 198.76 72.39" fill="#80795b"></polygon><polygon points="197.59 72.39 198.76 72.39 199.32 72.95 197.03 72.95 197.59 72.39" fill="#5e5b43"></polygon><polygon points="197.03 70.65 197.59 71.21 197.59 72.39 197.03 72.95 197.03 70.65" fill="#9a916c"></polygon><rect x="204.78" y="78.41" width="1.18" height="1.18" fill="#8c8663"></rect><polygon points="204.23 77.85 204.78 78.41 205.96 78.41 206.52 77.85 204.23 77.85" fill="#b8af82"></polygon><polygon points="205.96 79.59 205.96 78.41 206.52 77.85 206.52 80.15 205.96 79.59" fill="#80795b"></polygon><polygon points="204.78 79.59 205.96 79.59 206.52 80.15 204.23 80.15 204.78 79.59" fill="#5e5b43"></polygon><polygon points="204.23 77.85 204.78 78.41 204.78 79.59 204.23 80.15 204.23 77.85" fill="#9a916c"></polygon><rect x="197.58" y="78.4" width="1.18" height="1.19" fill="#8c8663"></rect><polygon points="197.03 77.85 197.59 78.41 198.76 78.41 199.32 77.85 197.03 77.85" fill="#b8af82"></polygon><polygon points="198.76 79.59 198.76 78.41 199.32 77.85 199.32 80.15 198.76 79.59" fill="#80795b"></polygon><polygon points="197.59 79.59 198.76 79.59 199.32 80.15 197.03 80.15 197.59 79.59" fill="#5e5b43"></polygon><polygon points="197.03 77.85 197.59 78.41 197.59 79.59 197.03 80.15 197.03 77.85" fill="#9a916c"></polygon><polygon points="58.96 14.56 58.96 18.49 58.96 21.83 58.96 25.76 60.47 27.27 64.4 27.27 65.91 25.76 65.91 21.83 65.91 18.49 65.91 14.56 64.4 13.04 60.47 13.04 58.96 14.56" fill="#404040"></polygon><polygon points="66.14 14.56 66.14 18.49 66.14 21.83 66.14 25.76 67.65 27.27 71.58 27.27 73.09 25.76 73.09 21.83 73.09 18.49 73.09 14.56 71.58 13.04 67.65 13.04 66.14 14.56" fill="#404040"></polygon><polygon points="73.32 14.56 73.32 18.49 73.32 21.83 73.32 25.76 74.83 27.27 78.76 27.27 80.27 25.76 80.27 21.83 80.27 18.49 80.27 14.56 78.76 13.04 74.83 13.04 73.32 14.56" fill="#404040"></polygon><polygon points="58.96 14.56 58.96 18.49 58.96 21.83 58.96 25.76 60.47 27.27 64.4 27.27 65.91 25.76 65.91 21.83 65.91 18.49 65.91 14.56 64.4 13.04 60.47 13.04 58.96 14.56" fill="#404040"></polygon><polygon points="66.14 14.56 66.14 18.49 66.14 21.83 66.14 25.76 67.65 27.27 71.58 27.27 73.09 25.76 73.09 21.83 73.09 18.49 73.09 14.56 71.58 13.04 67.65 13.04 66.14 14.56" fill="#404040"></polygon><polygon points="73.32 14.56 73.32 18.49 73.32 21.83 73.32 25.76 74.83 27.27 78.76 27.27 80.27 25.76 80.27 21.83 80.27 18.49 80.27 14.56 78.76 13.04 74.83 13.04 73.32 14.56" fill="#404040"></polygon><rect x="75.51" y="22.57" width="2.3" height="2.3" fill="#8d8c8c"></rect><rect x="75.51" y="15.37" width="2.3" height="2.3" fill="#8d8c8c"></rect><rect x="68.31" y="22.57" width="2.3" height="2.3" fill="#8d8c8c"></rect><rect x="68.31" y="15.37" width="2.3" height="2.3" fill="#8d8c8c"></rect><rect x="61.12" y="22.57" width="2.3" height="2.3" fill="#8d8c8c"></rect><rect x="61.12" y="15.37" width="2.3" height="2.3" fill="#8d8455"></rect><rect x="61.67" y="15.92" width="1.18" height="1.18" fill="#8c8663"></rect><polygon points="61.11 17.67 61.67 17.11 61.67 15.93 61.11 15.37 61.11 17.67" fill="#b8af82"></polygon><polygon points="62.85 15.93 61.67 15.93 61.11 15.37 63.41 15.37 62.85 15.93" fill="#80795b"></polygon><polygon points="62.85 17.11 62.85 15.93 63.41 15.37 63.41 17.67 62.85 17.11" fill="#5e5b43"></polygon><polygon points="61.11 17.67 61.67 17.11 62.85 17.11 63.41 17.67 61.11 17.67" fill="#9a916c"></polygon><rect x="61.67" y="23.13" width="1.18" height="1.18" fill="#8c8663"></rect><polygon points="61.11 24.86 61.67 24.31 61.67 23.13 61.11 22.57 61.11 24.86" fill="#b8af82"></polygon><polygon points="62.85 23.13 61.67 23.13 61.11 22.57 63.41 22.57 62.85 23.13" fill="#80795b"></polygon><polygon points="62.85 24.31 62.85 23.13 63.41 22.57 63.41 24.86 62.85 24.31" fill="#5e5b43"></polygon><polygon points="61.11 24.86 61.67 24.31 62.85 24.31 63.41 24.86 61.11 24.86" fill="#9a916c"></polygon><rect x="68.87" y="15.92" width="1.18" height="1.18" fill="#8c8663"></rect><polygon points="68.31 17.67 68.87 17.11 68.87 15.93 68.31 15.37 68.31 17.67" fill="#b8af82"></polygon><polygon points="70.05 15.93 68.87 15.93 68.31 15.37 70.61 15.37 70.05 15.93" fill="#80795b"></polygon><polygon points="70.05 17.11 70.05 15.93 70.61 15.37 70.61 17.67 70.05 17.11" fill="#5e5b43"></polygon><polygon points="68.31 17.67 68.87 17.11 70.05 17.11 70.61 17.67 68.31 17.67" fill="#9a916c"></polygon><rect x="68.87" y="23.13" width="1.18" height="1.18" fill="#8c8663"></rect><polygon points="68.31 24.86 68.87 24.31 68.87 23.13 68.31 22.57 68.31 24.86" fill="#b8af82"></polygon><polygon points="70.05 23.13 68.87 23.13 68.31 22.57 70.61 22.57 70.05 23.13" fill="#80795b"></polygon><polygon points="70.05 24.31 70.05 23.13 70.61 22.57 70.61 24.86 70.05 24.31" fill="#5e5b43"></polygon><polygon points="68.31 24.86 68.87 24.31 70.05 24.31 70.61 24.86 68.31 24.86" fill="#9a916c"></polygon><rect x="76.07" y="15.92" width="1.18" height="1.18" fill="#8c8663"></rect><polygon points="75.51 17.67 76.07 17.11 76.07 15.93 75.51 15.37 75.51 17.67" fill="#b8af82"></polygon><polygon points="77.25 15.93 76.07 15.93 75.51 15.37 77.81 15.37 77.25 15.93" fill="#80795b"></polygon><polygon points="77.25 17.11 77.25 15.93 77.81 15.37 77.81 17.67 77.25 17.11" fill="#5e5b43"></polygon><polygon points="75.51 17.67 76.07 17.11 77.25 17.11 77.81 17.67 75.51 17.67" fill="#9a916c"></polygon><rect x="76.07" y="23.13" width="1.18" height="1.18" fill="#8c8663"></rect><polygon points="75.51 24.86 76.07 24.31 76.07 23.13 75.51 22.57 75.51 24.86" fill="#b8af82"></polygon><polygon points="77.25 23.13 76.07 23.13 75.51 22.57 77.81 22.57 77.25 23.13" fill="#80795b"></polygon><polygon points="77.25 24.31 77.25 23.13 77.81 22.57 77.81 24.86 77.25 24.31" fill="#5e5b43"></polygon><polygon points="75.51 24.86 76.07 24.31 77.25 24.31 77.81 24.86 75.51 24.86" fill="#9a916c"></polygon><rect x="143.78" y="3.6" width="57.6" height="7.2" fill="#404040"></rect><rect x="145.98" y="5.81" width="2.78" height="2.78"></rect><polygon points="144.96 4.79 145.98 5.81 148.76 5.81 149.79 4.79 144.96 4.79" fill="#2a2a29"></polygon><polygon points="149.79 4.79 148.76 5.81 148.76 8.59 149.79 9.62 149.79 4.79" fill="#474747"></polygon><polygon points="149.79 9.62 148.76 8.59 145.98 8.59 144.96 9.62 149.79 9.62" fill="#595959"></polygon><polygon points="144.96 9.62 145.98 8.59 145.98 5.81 144.96 4.79 144.96 9.62" fill="#373737"></polygon><rect x="153.19" y="5.81" width="2.78" height="2.78"></rect><polygon points="152.16 4.79 153.18 5.81 155.97 5.81 156.99 4.79 152.16 4.79" fill="#2a2a29"></polygon><polygon points="156.99 4.79 155.97 5.81 155.97 8.59 156.99 9.62 156.99 4.79" fill="#474747"></polygon><polygon points="156.99 9.62 155.97 8.59 153.18 8.59 152.16 9.62 156.99 9.62" fill="#595959"></polygon><polygon points="152.16 9.62 153.18 8.59 153.18 5.81 152.16 4.79 152.16 9.62" fill="#373737"></polygon><rect x="160.39" y="5.81" width="2.78" height="2.78"></rect><polygon points="159.36 4.79 160.38 5.81 163.17 5.81 164.19 4.79 159.36 4.79" fill="#2a2a29"></polygon><polygon points="164.19 4.79 163.17 5.81 163.17 8.59 164.19 9.62 164.19 4.79" fill="#474747"></polygon><polygon points="164.19 9.62 163.17 8.59 160.38 8.59 159.36 9.62 164.19 9.62" fill="#595959"></polygon><polygon points="159.36 9.62 160.38 8.59 160.38 5.81 159.36 4.79 159.36 9.62" fill="#373737"></polygon><rect x="167.59" y="5.81" width="2.78" height="2.78"></rect><polygon points="166.56 4.79 167.59 5.81 170.37 5.81 171.39 4.79 166.56 4.79" fill="#2a2a29"></polygon><polygon points="171.39 4.79 170.37 5.81 170.37 8.59 171.39 9.62 171.39 4.79" fill="#474747"></polygon><polygon points="171.39 9.62 170.37 8.59 167.59 8.59 166.56 9.62 171.39 9.62" fill="#595959"></polygon><polygon points="166.56 9.62 167.59 8.59 167.59 5.81 166.56 4.79 166.56 9.62" fill="#373737"></polygon><rect x="174.79" y="5.81" width="2.78" height="2.78"></rect><polygon points="173.76 4.79 174.78 5.81 177.57 5.81 178.59 4.79 173.76 4.79" fill="#2a2a29"></polygon><polygon points="178.59 4.79 177.57 5.81 177.57 8.59 178.59 9.62 178.59 4.79" fill="#474747"></polygon><polygon points="178.59 9.62 177.56 8.59 174.78 8.59 173.76 9.62 178.59 9.62" fill="#595959"></polygon><polygon points="173.76 9.62 174.78 8.59 174.78 5.81 173.76 4.79 173.76 9.62" fill="#373737"></polygon><rect x="181.98" y="5.81" width="2.78" height="2.78"></rect><polygon points="180.96 4.79 181.98 5.81 184.76 5.81 185.79 4.79 180.96 4.79" fill="#2a2a29"></polygon><polygon points="185.79 4.79 184.76 5.81 184.76 8.59 185.79 9.62 185.79 4.79" fill="#474747"></polygon><polygon points="185.79 9.62 184.76 8.59 181.98 8.59 180.96 9.62 185.79 9.62" fill="#595959"></polygon><polygon points="180.96 9.62 181.98 8.59 181.98 5.81 180.96 4.79 180.96 9.62" fill="#373737"></polygon><rect x="189.19" y="5.81" width="2.78" height="2.78"></rect><polygon points="188.16 4.79 189.18 5.81 191.97 5.81 192.99 4.79 188.16 4.79" fill="#2a2a29"></polygon><polygon points="192.99 4.79 191.97 5.81 191.97 8.59 192.99 9.62 192.99 4.79" fill="#474747"></polygon><polygon points="192.99 9.62 191.97 8.59 189.18 8.59 188.16 9.62 192.99 9.62" fill="#595959"></polygon><polygon points="188.16 9.62 189.18 8.59 189.18 5.81 188.16 4.79 188.16 9.62" fill="#373737"></polygon><rect x="196.39" y="5.81" width="2.78" height="2.78"></rect><polygon points="195.36 4.79 196.38 5.81 199.17 5.81 200.19 4.79 195.36 4.79" fill="#2a2a29"></polygon><polygon points="200.19 4.79 199.17 5.81 199.17 8.59 200.19 9.62 200.19 4.79" fill="#474747"></polygon><polygon points="200.19 9.62 199.17 8.59 196.38 8.59 195.36 9.62 200.19 9.62" fill="#595959"></polygon><polygon points="195.36 9.62 196.38 8.59 196.38 5.81 195.36 4.79 195.36 9.62" fill="#373737"></polygon><line x1="92.96" y1="36.07" x2="100.2" y2="36.07" fill="none"></line><rect x="92.96" y="32.24" width="7.35" height="3.83" fill="#f2f2f2"></rect><path d="M97.7,36.07s.65-.46.87-.42.54-.15.67,0v.42Z" transform="translate(0)" fill="#22b573" fill-opacity="0.7"></path><rect x="96.13" y="33.65" width="0.85" height="0.96" fill="#fff"></rect><rect x="96.13" y="34.58" width="0.85" height="0.05" fill="#b3b3b3"></rect><polygon points="98.28 35.65 99.25 35.75 99.25 35.02 98.28 35.13 98.28 35.65" fill="#d1c690"></polygon><path d="M98.34,35.45h0a2.07,2.07,0,0,1-.59-.16c-.21-.08-.56-.78-.83-.7a0,0,0,0,1-.07,0,.06.06,0,0,1,0-.08c.31-.09.67.62.89.7a2,2,0,0,0,.58.16,0,0,0,0,1,0,.07Z" transform="translate(0)" fill="#d1c690"></path><polygon points="94.86 32.76 93.9 32.66 93.9 33.39 94.86 33.28 94.86 32.76" fill="#d1c690"></polygon><path d="M96.51,34.28h0a2.61,2.61,0,0,0-1.89-1.16v-.06a.06.06,0,0,1,0-.06h0a2.59,2.59,0,0,1,2,1.24.06.06,0,0,1,0,.08Z" transform="translate(0)" fill="#d1c690"></path><path d="M97,34.3s-.35,0-.38.31H97Z" transform="translate(0)" fill="#d1c690"></path><path d="M96.55,34s.16.3,0,.35-.18,0-.24,0S96.55,34,96.55,34Z" transform="translate(0)" fill="#d1c690"></path><path d="M96.91,34.65c.27-.09.62.61.83.69a2.48,2.48,0,0,0,.59.17v-.06a2.48,2.48,0,0,1-.59-.17c-.21-.08-.56-.78-.83-.69Z" transform="translate(0)" fill="#9d956c"></path><polygon points="94.86 33.34 93.9 33.44 93.9 33.39 94.86 33.28 94.86 33.34" fill="#9d956c"></polygon><path d="M96.46,34.29a2.45,2.45,0,0,0-1.89-1.15v-.06a2.3,2.3,0,0,1,1.89,1.15Z" transform="translate(0)" fill="#9d956c"></path><path d="M96.6,34.66h0Z" transform="translate(0)" fill="#9d956c"></path><path d="M96.36,34.35c.06.08.13.08.24,0v-.06c-.11,0-.18.06-.24,0v.05Z" transform="translate(0)" fill="#9d956c"></path><rect x="94.43" y="32.24" width="4.22" height="0.05" fill="#fff" opacity="0.5" style="isolation:isolate"></rect><path d="M93.91,32.24v3.83h5.32V32.24Z" transform="translate(0)" fill="#f2f2f2" opacity="0.5" style="isolation:isolate"></path><path d="M94,32.89v-.27c0-.15,0-.27.1-.27h4.86c.16,0,.17.06,0,.06H94.56c-.46,0-.52.11-.52.2v.27C94,33.06,94,33.06,94,32.89Z" transform="translate(0)" fill="#fff" opacity="0.55" style="isolation:isolate"></path><path d="M99.09,35.85c0,.07,0,.14-.1.14H94.17c-.16,0-.17-.07,0-.07H97.8C98.37,35.92,99.09,35.85,99.09,35.85Z" transform="translate(0)" opacity="0.03" style="isolation:isolate"></path><path d="M93,36.07h.77v-.52a.33.33,0,0,1,.18-.27v-3h-1v3.83" transform="translate(0)" fill="#d1c690"></path><rect x="92.91" y="32.24" width="1.01" height="0.05" fill="#fff" opacity="0.5" style="isolation:isolate"></rect><path d="M100.3,36.07V32.24H99.23V35.7a.34.34,0,0,1,.19.28v.1h.83" transform="translate(0)" fill="#d1c690"></path><rect x="99.23" y="32.24" width="1.07" height="0.05" fill="#fff" opacity="0.5" style="isolation:isolate"></rect><line x1="182.27" y1="49.55" x2="189.51" y2="49.55" fill="none"></line><rect x="182.27" y="45.71" width="7.35" height="3.83" fill="#f2f2f2"></rect><path d="M187,49.54s.65-.46.87-.42.54-.15.67,0v.42Z" transform="translate(0)" fill="#22b573" fill-opacity="0.7"></path><rect x="185.44" y="47.12" width="0.85" height="0.96" fill="#fff"></rect><rect x="185.44" y="48.06" width="0.85" height="0.05" fill="#b3b3b3"></rect><polygon points="187.59 49.12 188.56 49.22 188.56 48.49 187.59 48.6 187.59 49.12" fill="#d1c690"></polygon><path d="M187.65,48.92h0a2.61,2.61,0,0,1-.61-.16c-.2-.08-.56-.78-.82-.7h-.07s0-.07,0-.08c.31-.09.68.62.9.7a1.86,1.86,0,0,0,.57.16v.07Z" transform="translate(0)" fill="#d1c690"></path><polygon points="184.18 46.23 183.21 46.13 183.21 46.86 184.18 46.76 184.18 46.23" fill="#d1c690"></polygon><path d="M185.8,47.75h-.05a2.61,2.61,0,0,0-1.89-1.16.06.06,0,0,1,0-.12h0a2.59,2.59,0,0,1,2,1.24.06.06,0,0,1,0,.08Z" transform="translate(0)" fill="#d1c690"></path><path d="M186.29,47.77s-.35,0-.38.31h.38Z" transform="translate(0)" fill="#d1c690"></path><path d="M185.86,47.45s.16.31,0,.35-.17.05-.24,0S185.86,47.45,185.86,47.45Z" transform="translate(0)" fill="#d1c690"></path><path d="M186.22,48.12c.27-.09.62.62.82.7a2.61,2.61,0,0,0,.61.16v-.06a2.61,2.61,0,0,1-.61-.16c-.2-.08-.56-.78-.82-.7Z" transform="translate(0)" fill="#9d956c"></path><polygon points="184.18 46.81 183.21 46.91 183.21 46.86 184.18 46.76 184.18 46.81" fill="#9d956c"></polygon><path d="M185.8,47.76a2.45,2.45,0,0,0-1.89-1.15v-.06a2.31,2.31,0,0,1,1.89,1.16Z" transform="translate(0)" fill="#9d956c"></path><path d="M185.91,48.14h.38v-.06h-.38Z" transform="translate(0)" fill="#9d956c"></path><path d="M185.67,47.83c.06.08.13.07.24,0v0c-.11.05-.18.05-.24,0Z" transform="translate(0)" fill="#9d956c"></path><rect x="183.74" y="45.71" width="4.23" height="0.05" fill="#fff" opacity="0.5" style="isolation:isolate"></rect><path d="M183.22,45.71v3.83h5.32V45.71Z" transform="translate(0)" fill="#f2f2f2" opacity="0.5" style="isolation:isolate"></path><path d="M183.27,46.36v-.27c0-.15,0-.27.1-.27h4.86c.17,0,.17.07,0,.07h-4.34c-.46,0-.52.1-.52.19v.28C183.35,46.54,183.27,46.54,183.27,46.36Z" transform="translate(0)" fill="#fff" opacity="0.55" style="isolation:isolate"></path><path d="M188.4,49.32c0,.07,0,.14-.1.14h-4.81c-.17,0-.18-.06,0-.06h3.59C187.68,49.39,188.4,49.32,188.4,49.32Z" transform="translate(0)" opacity="0.03" style="isolation:isolate"></path><path d="M182.26,49.54H183V49a.29.29,0,0,1,.19-.26v-3h-1v3.83" transform="translate(0)" fill="#d1c690"></path><rect x="182.22" y="45.71" width="1.01" height="0.05" fill="#fff" opacity="0.5" style="isolation:isolate"></rect><path d="M189.61,49.54V45.71h-1.07v3.47a.29.29,0,0,1,.19.27v.1h.83" transform="translate(0)" fill="#d1c690"></path><rect x="188.54" y="45.71" width="1.07" height="0.05" fill="#fff" opacity="0.5" style="isolation:isolate"></rect><rect x="89.52" y="134.45" width="1.27" height="1.04" fill="#ccc"></rect><rect x="89.52" y="115.06" width="1.27" height="1.04" fill="#ccc"></rect><rect x="90.6" y="134.45" width="0.2" height="1.04" opacity="0.1" style="isolation:isolate"></rect><rect x="90.6" y="115.06" width="0.2" height="1.04" opacity="0.1" style="isolation:isolate"></rect><rect x="89.52" y="134.45" width="0.2" height="1.04" fill="#fff" opacity="0.2" style="isolation:isolate"></rect><rect x="89.53" y="115.06" width="0.2" height="1.04" fill="#fff" opacity="0.2" style="isolation:isolate"></rect><path d="M81,119.91v13.16a1.4,1.4,0,0,0,1.39,1.38H97.92a1.38,1.38,0,0,0,1.38-1.38h0V119.91l-3.81-3.81H84.8Z" transform="translate(0)" fill="#1a1a1a"></path><circle cx="90.13" cy="125.28" r="8.7" fill="#e6e6e6"></circle><path d="M81,119.91v13.16a1.4,1.4,0,0,0,1.39,1.38H97.92a1.38,1.38,0,0,0,1.38-1.38h0V119.91l-3.81-3.81H84.8Z" transform="translate(0)" fill="#333"></path><path d="M95.31,116.1l3.81,3.81v13.16a1.38,1.38,0,0,1-1.38,1.38h.18a1.38,1.38,0,0,0,1.39-1.38V119.91l-3.82-3.81Z" transform="translate(0)"></path><path d="M82.52,134.45a1.38,1.38,0,0,1-1.38-1.38h0V119.91L85,116.1H84.8L81,119.91v13.16a1.4,1.4,0,0,0,1.39,1.38Z" transform="translate(0)" fill="#fff" opacity="0.1" style="isolation:isolate"></path><path d="M99,125.28a8.7,8.7,0,1,1-8.7-8.71,8.69,8.69,0,0,1,8.7,8.71Z" transform="translate(0)" fill="#e6e6e6"></path><path d="M90.13,134a8.68,8.68,0,0,0,7.09-3.66H83A8.69,8.69,0,0,0,90.13,134Z" transform="translate(0)"></path><path d="M90.37,116.57a8.71,8.71,0,0,0,0,17.41h-.24a8.71,8.71,0,0,1,0-17.41Z" transform="translate(0)" fill="#fff" opacity="0.3" style="isolation:isolate"></path><path d="M89.9,134A8.68,8.68,0,0,0,97,130.34h.23A8.68,8.68,0,0,1,90.13,134Z" transform="translate(0)" fill="#fff" opacity="0.5" style="isolation:isolate"></path><path d="M97,130.32a8.71,8.71,0,0,0-7.09-13.75h.23a8.71,8.71,0,0,1,7.09,13.75Z" transform="translate(0)" opacity="0.2" style="isolation:isolate"></path><rect x="69.36" y="134.45" width="1.27" height="1.04" fill="#ccc"></rect><rect x="69.37" y="115.06" width="1.27" height="1.04" fill="#ccc"></rect><rect x="70.44" y="134.45" width="0.2" height="1.04" opacity="0.1" style="isolation:isolate"></rect><rect x="70.44" y="115.06" width="0.2" height="1.04" opacity="0.1" style="isolation:isolate"></rect><rect x="69.36" y="134.45" width="0.2" height="1.04" fill="#fff" opacity="0.2" style="isolation:isolate"></rect><rect x="69.37" y="115.06" width="0.2" height="1.04" fill="#fff" opacity="0.2" style="isolation:isolate"></rect><path d="M60.8,119.91v13.16a1.4,1.4,0,0,0,1.39,1.38H77.8a1.38,1.38,0,0,0,1.38-1.38h0V119.91l-3.81-3.81H64.6Z" transform="translate(0)" fill="#1a1a1a"></path><circle cx="69.97" cy="125.28" r="8.7" fill="#e6e6e6"></circle><path d="M60.8,119.91v13.16a1.4,1.4,0,0,0,1.39,1.38H77.8a1.38,1.38,0,0,0,1.38-1.38h0V119.91l-3.81-3.81H64.6Z" transform="translate(0)" fill="#333"></path><path d="M75.15,116.1,79,119.91v13.16a1.38,1.38,0,0,1-1.38,1.38h.22a1.38,1.38,0,0,0,1.39-1.38V119.91l-3.82-3.81Z" transform="translate(0)"></path><path d="M62.36,134.45A1.38,1.38,0,0,1,61,133.07h0V119.91l3.82-3.81h-.2l-3.8,3.81v13.16a1.4,1.4,0,0,0,1.39,1.38Z" transform="translate(0)" fill="#fff" opacity="0.1" style="isolation:isolate"></path><path d="M78.8,125.28a8.7,8.7,0,1,1-8.7-8.7h0a8.68,8.68,0,0,1,8.7,8.68Z" transform="translate(0)" fill="#e6e6e6"></path><path d="M70,134a8.68,8.68,0,0,0,7.09-3.66H62.88A8.69,8.69,0,0,0,70,134Z" transform="translate(0)"></path><path d="M70.21,116.58a8.7,8.7,0,0,0,0,17.4H70a8.7,8.7,0,0,1,0-17.4Z" transform="translate(0)" fill="#fff" opacity="0.3" style="isolation:isolate"></path><path d="M69.74,134a8.7,8.7,0,0,0,7.06-3.68H77A8.7,8.7,0,0,1,70,134Z" transform="translate(0)" fill="#fff" opacity="0.5" style="isolation:isolate"></path><path d="M76.8,130.32a8.7,8.7,0,0,0-7.09-13.74h.23A8.7,8.7,0,0,1,77,130.32Z" transform="translate(0)" opacity="0.2" style="isolation:isolate"></path><rect x="93.38" y="140.4" width="57.6" height="7.2" fill="#404040"></rect><rect x="95.59" y="142.61" width="2.78" height="2.78"></rect><polygon points="94.56 141.58 95.58 142.61 98.37 142.61 99.39 141.58 94.56 141.58" fill="#2a2a29"></polygon><polygon points="99.39 141.58 98.37 142.61 98.37 145.39 99.39 146.42 99.39 141.58" fill="#474747"></polygon><polygon points="99.39 146.42 98.36 145.39 95.58 145.39 94.56 146.42 99.39 146.42" fill="#595959"></polygon><polygon points="94.56 146.42 95.58 145.39 95.58 142.61 94.56 141.58 94.56 146.42" fill="#373737"></polygon><rect x="102.79" y="142.61" width="2.78" height="2.78"></rect><polygon points="101.76 141.58 102.78 142.61 105.57 142.61 106.59 141.58 101.76 141.58" fill="#2a2a29"></polygon><polygon points="106.59 141.58 105.57 142.61 105.57 145.39 106.59 146.42 106.59 141.58" fill="#474747"></polygon><polygon points="106.59 146.42 105.57 145.39 102.78 145.39 101.76 146.42 106.59 146.42" fill="#595959"></polygon><polygon points="101.76 146.42 102.78 145.39 102.78 142.61 101.76 141.58 101.76 146.42" fill="#373737"></polygon><rect x="109.99" y="142.61" width="2.78" height="2.78"></rect><polygon points="108.96 141.58 109.98 142.61 112.77 142.61 113.79 141.58 108.96 141.58" fill="#2a2a29"></polygon><polygon points="113.79 141.58 112.77 142.61 112.77 145.39 113.79 146.42 113.79 141.58" fill="#474747"></polygon><polygon points="113.79 146.42 112.77 145.39 109.98 145.39 108.96 146.42 113.79 146.42" fill="#595959"></polygon><polygon points="108.96 146.42 109.98 145.39 109.98 142.61 108.96 141.58 108.96 146.42" fill="#373737"></polygon><rect x="117.19" y="142.61" width="2.78" height="2.78"></rect><polygon points="116.16 141.58 117.18 142.61 119.97 142.61 120.99 141.58 116.16 141.58" fill="#2a2a29"></polygon><polygon points="120.99 141.58 119.97 142.61 119.97 145.39 120.99 146.42 120.99 141.58" fill="#474747"></polygon><polygon points="120.99 146.42 119.97 145.39 117.18 145.39 116.16 146.42 120.99 146.42" fill="#595959"></polygon><polygon points="116.16 146.42 117.18 145.39 117.18 142.61 116.16 141.58 116.16 146.42" fill="#373737"></polygon><rect x="124.39" y="142.61" width="2.78" height="2.78"></rect><polygon points="123.36 141.58 124.38 142.61 127.17 142.61 128.19 141.58 123.36 141.58" fill="#2a2a29"></polygon><polygon points="128.19 141.58 127.17 142.61 127.17 145.39 128.19 146.42 128.19 141.58" fill="#474747"></polygon><polygon points="128.19 146.42 127.17 145.39 124.38 145.39 123.36 146.42 128.19 146.42" fill="#595959"></polygon><polygon points="123.36 146.42 124.38 145.39 124.38 142.61 123.36 141.58 123.36 146.42" fill="#373737"></polygon><rect x="131.59" y="142.61" width="2.78" height="2.78"></rect><polygon points="130.56 141.58 131.58 142.61 134.37 142.61 135.39 141.58 130.56 141.58" fill="#2a2a29"></polygon><polygon points="135.39 141.58 134.37 142.61 134.37 145.39 135.39 146.42 135.39 141.58" fill="#474747"></polygon><polygon points="135.39 146.42 134.37 145.39 131.58 145.39 130.56 146.42 135.39 146.42" fill="#595959"></polygon><polygon points="130.56 146.42 131.58 145.39 131.58 142.61 130.56 141.58 130.56 146.42" fill="#373737"></polygon><rect x="138.79" y="142.61" width="2.78" height="2.78"></rect><polygon points="137.76 141.58 138.78 142.61 141.56 142.61 142.59 141.58 137.76 141.58" fill="#2a2a29"></polygon><polygon points="142.59 141.58 141.56 142.61 141.56 145.39 142.59 146.42 142.59 141.58" fill="#474747"></polygon><polygon points="142.59 146.42 141.56 145.39 138.78 145.39 137.76 146.42 142.59 146.42" fill="#595959"></polygon><polygon points="137.76 146.42 138.78 145.39 138.78 142.61 137.76 141.58 137.76 146.42" fill="#373737"></polygon><rect x="145.99" y="142.61" width="2.78" height="2.78"></rect><polygon points="144.96 141.58 145.98 142.61 148.77 142.61 149.79 141.58 144.96 141.58" fill="#2a2a29"></polygon><polygon points="149.79 141.58 148.77 142.61 148.77 145.39 149.79 146.42 149.79 141.58" fill="#474747"></polygon><polygon points="149.79 146.42 148.76 145.39 145.98 145.39 144.96 146.42 149.79 146.42" fill="#595959"></polygon><polygon points="144.96 146.42 145.98 145.39 145.98 142.61 144.96 141.58 144.96 146.42" fill="#373737"></polygon><line x1="100.2" y1="51.97" x2="92.96" y2="51.97" fill="none"></line><rect x="92.85" y="51.97" width="7.35" height="3.83" fill="#f2f2f2"></rect><path d="M95.45,52s-.65.46-.87.42-.54.15-.68,0V52Z" transform="translate(0)" fill="#22b573" fill-opacity="0.7"></path><rect x="96.17" y="53.44" width="0.85" height="0.96" fill="#fff"></rect><rect x="96.17" y="53.41" width="0.85" height="0.05" fill="#b3b3b3"></rect><polygon points="94.87 52.39 93.91 52.29 93.91 53.02 94.87 52.92 94.87 52.39" fill="#d1c690"></polygon><path d="M94.8,52.59h0a2.41,2.41,0,0,1,.6.16c.21.08.56.78.83.7a0,0,0,0,1,.07,0v.08c-.31.09-.68-.62-.9-.7a2.19,2.19,0,0,0-.57-.16.06.06,0,0,1,0-.06Z" transform="translate(0)" fill="#d1c690"></path><polygon points="98.29 55.28 99.25 55.38 99.25 54.65 98.29 54.76 98.29 55.28" fill="#d1c690"></polygon><path d="M96.63,53.76a.06.06,0,0,1,.06.05A2.62,2.62,0,0,0,98.57,55a0,0,0,0,1,.06,0v0a.06.06,0,0,1-.06.06h0a2.59,2.59,0,0,1-2-1.24.06.06,0,0,1,0-.08Z" transform="translate(0)" fill="#d1c690"></path><path d="M96.16,53.74s.36,0,.39-.31h-.39Z" transform="translate(0)" fill="#d1c690"></path><path d="M96.6,54.06s-.16-.3,0-.35.17-.05.24,0S96.6,54.06,96.6,54.06Z" transform="translate(0)" fill="#d1c690"></path><path d="M96.24,53.4c-.27.08-.62-.62-.83-.7a2,2,0,0,0-.6-.16v.05a2.43,2.43,0,0,1,.6.17c.21.08.56.78.83.69Z" transform="translate(0)" fill="#9d956c"></path><polygon points="98.29 54.7 99.25 54.6 99.25 54.65 98.29 54.76 98.29 54.7" fill="#9d956c"></polygon><path d="M96.69,53.75a2.45,2.45,0,0,0,1.89,1.15V55a2.33,2.33,0,0,1-1.89-1.15Z" transform="translate(0)" fill="#9d956c"></path><path d="M96.55,53.38h0Z" transform="translate(0)" fill="#9d956c"></path><path d="M96.8,53.69c-.07-.08-.13-.08-.24,0v.06c.1,0,.18-.06.24,0Z" transform="translate(0)" fill="#9d956c"></path><rect x="94.5" y="55.75" width="4.22" height="0.05" fill="#fff" opacity="0.5" style="isolation:isolate"></rect><path d="M99.24,55.8V52H93.92v3.8Z" transform="translate(0)" fill="#f2f2f2" opacity="0.5" style="isolation:isolate"></path><path d="M99.18,55.15v.27c0,.15,0,.27-.09.27H94.23c-.17,0-.17-.06,0-.06h4.35c.46,0,.52-.11.52-.2v-.27C99.11,55,99.18,55,99.18,55.15Z" transform="translate(0)" fill="#fff" opacity="0.55" style="isolation:isolate"></path><path d="M94.06,52.19c0-.07,0-.14.1-.14H99c.17,0,.18.07,0,.07H95.38C94.8,52.12,94.06,52.19,94.06,52.19Z" transform="translate(0)" opacity="0.03" style="isolation:isolate"></path><path d="M100.19,52h-.77v.52a.3.3,0,0,1-.19.27v3h1V52" transform="translate(0)" fill="#d1c690"></path><rect x="99.24" y="55.75" width="1.01" height="0.05" fill="#fff" opacity="0.5" style="isolation:isolate"></rect><path d="M92.85,52v3.8h1.07V52.34a.32.32,0,0,1-.19-.27V52H92.9" transform="translate(0)" fill="#d1c690"></path><rect x="92.85" y="55.75" width="1.07" height="0.05" fill="#fff" opacity="0.5" style="isolation:isolate"></rect><line x1="100.2" y1="45.49" x2="92.96" y2="45.49" fill="none"></line><rect x="92.85" y="45.49" width="7.35" height="3.83" fill="#f2f2f2"></rect><path d="M95.45,45.49s-.65.46-.87.42-.54.15-.68,0v-.42Z" transform="translate(0)" fill="#22b573" fill-opacity="0.7"></path><rect x="96.17" y="46.96" width="0.85" height="0.96" fill="#fff"></rect><rect x="96.17" y="46.93" width="0.85" height="0.05" fill="#b3b3b3"></rect><polygon points="94.87 45.91 93.91 45.81 93.91 46.54 94.87 46.44 94.87 45.91" fill="#d1c690"></polygon><path d="M94.8,46.11h0a2.41,2.41,0,0,1,.6.16c.21.08.56.78.83.7a0,0,0,0,1,.07,0v.08c-.31.09-.68-.62-.9-.7a2.19,2.19,0,0,0-.57-.16.06.06,0,0,1,0-.06Z" transform="translate(0)" fill="#d1c690"></path><polygon points="98.29 48.8 99.25 48.9 99.25 48.17 98.29 48.28 98.29 48.8" fill="#d1c690"></polygon><path d="M96.63,47.28h.06a2.64,2.64,0,0,0,1.88,1.15,0,0,0,0,1,.06,0v0a.06.06,0,0,1-.06.06h0a2.59,2.59,0,0,1-2-1.24.06.06,0,0,1,0-.08Z" transform="translate(0)" fill="#d1c690"></path><path d="M96.16,47.26s.36,0,.39-.31h-.39Z" transform="translate(0)" fill="#d1c690"></path><path d="M96.6,47.58s-.16-.3,0-.35.17,0,.24,0S96.6,47.58,96.6,47.58Z" transform="translate(0)" fill="#d1c690"></path><path d="M96.24,46.92c-.27.08-.62-.62-.83-.7a2,2,0,0,0-.6-.16h0a2.43,2.43,0,0,1,.6.17C95.62,46.31,96,47,96.24,46.92Z" transform="translate(0)" fill="#9d956c"></path><polygon points="98.29 48.22 99.25 48.12 99.25 48.17 98.29 48.28 98.29 48.22" fill="#9d956c"></polygon><path d="M96.69,47.27a2.45,2.45,0,0,0,1.89,1.15v.06a2.33,2.33,0,0,1-1.89-1.15Z" transform="translate(0)" fill="#9d956c"></path><path d="M96.55,46.9h-.38V47h.38Z" transform="translate(0)" fill="#9d956c"></path><path d="M96.8,47.21c-.07-.08-.13-.08-.24,0v.06a.21.21,0,0,1,.24,0Z" transform="translate(0)" fill="#9d956c"></path><rect x="94.49" y="49.27" width="4.22" height="0.05" fill="#fff" opacity="0.5" style="isolation:isolate"></rect><path d="M99.24,49.32V45.49H93.92v3.83Z" transform="translate(0)" fill="#f2f2f2" opacity="0.5" style="isolation:isolate"></path><path d="M99.18,48.67v.27c0,.15,0,.27-.09.27H94.23c-.17,0-.17-.06,0-.06h4.35c.46,0,.52-.11.52-.2v-.27C99.11,48.5,99.18,48.5,99.18,48.67Z" transform="translate(0)" fill="#fff" opacity="0.55" style="isolation:isolate"></path><path d="M94.06,45.71c0-.07,0-.14.1-.14H99c.17,0,.18.07,0,.07H95.38C94.8,45.64,94.06,45.71,94.06,45.71Z" transform="translate(0)" opacity="0.03" style="isolation:isolate"></path><path d="M100.19,45.49h-.77V46a.3.3,0,0,1-.19.27v3h1V45.49" transform="translate(0)" fill="#d1c690"></path><rect x="99.24" y="49.27" width="1.01" height="0.05" fill="#fff" opacity="0.5" style="isolation:isolate"></rect><path d="M92.85,45.49v3.83h1.07V45.86a.32.32,0,0,1-.19-.27v-.1H92.9" transform="translate(0)" fill="#d1c690"></path><rect x="92.85" y="49.27" width="1.07" height="0.05" fill="#fff" opacity="0.5" style="isolation:isolate"></rect><rect x="44.54" y="106.7" width="4.9" height="3.46" fill="#999"></rect><rect x="44.54" y="100.15" width="4.9" height="3.46" fill="#999"></rect><rect x="44.54" y="93.59" width="4.9" height="3.45" fill="#999"></rect><rect x="49.29" y="106.7" width="0.15" height="3.46" fill="#fff" opacity="0.2" style="isolation:isolate"></rect><rect x="49.29" y="100.15" width="0.15" height="3.46" fill="#fff" opacity="0.2" style="isolation:isolate"></rect><rect x="49.29" y="93.59" width="0.15" height="3.45" fill="#fff" opacity="0.2" style="isolation:isolate"></rect><rect x="29.31" y="96.77" width="5.28" height="10.21" fill="#999"></rect><rect x="29.31" y="96.77" width="0.16" height="10.21" fill="#fff" opacity="0.2" style="isolation:isolate"></rect><rect x="34.6" y="92.3" width="9.94" height="19.16" fill="#303030"></rect><polygon points="34.6 111.46 34.6 92.3 35.32 93.02 35.32 110.73 34.6 111.46" fill="#1f1f1f"></polygon><polygon points="44.54 111.46 44.54 92.3 43.82 93.02 43.82 110.73 44.54 111.46" fill="#1f1f1f"></polygon><polygon points="34.6 111.46 44.54 111.46 43.82 110.73 35.32 110.73 34.6 111.46"></polygon><polygon points="34.6 92.3 44.54 92.3 43.82 93.02 35.32 93.02 34.6 92.3" fill="#3d3d3d"></polygon><circle cx="42.38" cy="109.3" r="0.72" fill="#1f1f1f"></circle><rect x="17.43" y="117.2" width="32.97" height="23.73" fill="#232323"></rect><rect x="18.04" y="117.77" width="31.94" height="1.65" fill="#494949"></rect><rect x="18.03" y="119.42" width="31.94" height="5.37" fill="#3d3d3d" fill-opacity="0.3"></rect><rect x="17" y="138.79" width="32.97" height="1.62"></rect><rect x="17" y="133.01" width="32.97" height="5.83" fill="#0f0f0f" fill-opacity="0.4"></rect><rect x="49.81" y="117.2" width="0.59" height="23.73" opacity="0.2" style="isolation:isolate"></rect><line x1="47.59" y1="140.93" x2="47.59" y2="117.2" fill="none" stroke="#000" stroke-miterlimit="10" stroke-width="0.25" opacity="0.5" style="isolation:isolate"></line><rect x="19.64" y="117.22" width="1.29" height="23.73" opacity="0.25" style="isolation:isolate"></rect><path d="M19.92,121.52V136.6h13.3a7.54,7.54,0,0,0,0-15.08Z" transform="translate(0)" stroke="#565656" stroke-miterlimit="10" stroke-width="0.25" opacity="0.25" style="isolation:isolate"></path><path d="M19.92,121.52V136.6h13.3a7.54,7.54,0,0,0,0-15.08Z" transform="translate(0)" fill="#232323"></path><rect x="12.96" y="116.3" width="7.69" height="25.51" fill="#232323"></rect><rect x="50.4" y="126.2" width="1.7" height="5.71" fill="#6d6d6d"></rect><rect x="50.4" y="123.45" width="0.98" height="11.23" fill="#494949"></rect><rect x="13.66" y="116.72" width="6.27" height="1.05" fill="#494949"></rect><rect x="13.66" y="140.4" width="6.27" height="1.05"></rect><path d="M19.4,22.89h3V27H17.47V23.79a.91.91,0,0,1,.91-.91Z" transform="translate(0)" fill="#999"></path><path d="M18.28,22.89V27h-.81V23.64C17.47,23.24,18,22.89,18.28,22.89Z" transform="translate(0)" fill="gray"></path><rect x="7.56" y="26.96" width="36.68" height="32.48" fill="#b3b3b3"></rect><rect y="26.96" width="7.57" height="32.48" fill="#999"></rect><rect y="57.39" width="44.25" height="2.05" fill="#ccc" opacity="0.5" style="isolation:isolate"></rect><rect y="26.96" width="44.25" height="2.05" opacity="0.2" style="isolation:isolate"></rect><path d="M19.4,63.51h3V59.44H17.47v3.17a.9.9,0,0,0,.9.9h1Z" transform="translate(0)" fill="#b3b3b3"></path><path d="M18.28,63.51V59.44h-.81v3.32C17.47,63.16,18,63.51,18.28,63.51Z" transform="translate(0)" fill="#e6e6e6"></path><polygon points="30.63 19.55 30.63 19.18 38.89 19.18 38.89 19.55 45.13 19.55 45.13 3.57 24.38 3.57 24.38 19.55 30.63 19.55" fill="#ccc"></polygon><polygon points="38.89 1.01 38.89 1.38 30.63 1.38 30.63 1.01 24.38 1.01 24.38 16.87 45.13 16.87 45.13 1.01 38.89 1.01" fill="#ccc"></polygon><circle cx="34.76" cy="10.28" r="5.12" fill="#641d1c"></circle><path d="M39.87,10a5.12,5.12,0,0,0-10.23-.45,3.38,3.38,0,0,0,0,.45v.25A5.12,5.12,0,0,1,39.87,9.8a3.38,3.38,0,0,1,0,.45Z" transform="translate(0)" opacity="0.2" style="isolation:isolate"></path><circle cx="34.76" cy="10.28" r="4.93" fill="#852725"></circle><circle cx="34.76" cy="10.4" r="4.93" fill="#852725"></circle><path d="M34.87,15.21a4.93,4.93,0,0,0,0-9.86h-.23a4.93,4.93,0,0,1,0,9.86Z" transform="translate(0)" opacity="0.1" style="isolation:isolate"></path><path d="M34.87,5.35a4.93,4.93,0,1,0,0,9.86h-.23a4.93,4.93,0,1,1,0-9.86Z" transform="translate(0)" fill="#fff" opacity="0.2" style="isolation:isolate"></path><rect x="24.37" y="19.18" width="6.25" height="0.37" fill="#fff" opacity="0.2" style="isolation:isolate"></rect><rect x="38.89" y="19.18" width="6.24" height="0.37" fill="#fff" opacity="0.2" style="isolation:isolate"></rect><rect x="30.62" y="18.81" width="8.27" height="0.37" fill="#fff" opacity="0.2" style="isolation:isolate"></rect><rect x="24.37" y="1.02" width="6.25" height="0.37" opacity="0.2" style="isolation:isolate"></rect><rect x="38.89" y="1.02" width="6.24" height="0.37" opacity="0.2" style="isolation:isolate"></rect><rect x="30.62" y="1.39" width="8.27" height="0.37" opacity="0.2" style="isolation:isolate"></rect><rect x="45.16" y="15.28" width="2.75" height="2.25" fill="#e6e6e6"></rect><rect x="45.16" y="3.03" width="2.75" height="2.25" fill="#e6e6e6"></rect><rect x="21.78" y="8.49" width="2.75" height="3.42" fill="#e6e6e6"></rect><rect x="21.78" y="15.28" width="2.75" height="2.25" fill="#e6e6e6"></rect><rect x="21.78" y="3.03" width="2.75" height="2.25" fill="#e6e6e6"></rect><rect x="21.78" y="8.49" width="0.33" height="3.42" fill="#fff" opacity="0.2" style="isolation:isolate"></rect><rect x="21.78" y="15.28" width="0.33" height="2.25" fill="#fff" opacity="0.2" style="isolation:isolate"></rect><rect x="21.78" y="3.03" width="0.33" height="2.25" fill="#fff" opacity="0.2" style="isolation:isolate"></rect><rect x="47.85" y="15.26" width="0.1" height="2.25" opacity="0.2" style="isolation:isolate"></rect><rect x="47.85" y="3.01" width="0.1" height="2.25" opacity="0.2" style="isolation:isolate"></rect><rect x="45.17" y="15.29" width="0.33" height="2.25" opacity="0.1" style="isolation:isolate"></rect><rect x="45.17" y="3.04" width="0.33" height="2.25" opacity="0.1" style="isolation:isolate"></rect><rect x="67.39" y="3.6" width="72" height="7.2" fill="#404040"></rect><rect x="69.61" y="5.81" width="2.78" height="2.78"></rect><polygon points="68.58 4.78 69.6 5.81 72.39 5.81 73.41 4.78 68.58 4.78" fill="#2a2a29"></polygon><polygon points="73.41 4.78 72.39 5.81 72.39 8.59 73.41 9.62 73.41 4.78" fill="#474747"></polygon><polygon points="73.41 9.62 72.39 8.59 69.6 8.59 68.58 9.62 73.41 9.62" fill="#595959"></polygon><polygon points="68.58 9.62 69.6 8.59 69.6 5.81 68.58 4.78 68.58 9.62" fill="#373737"></polygon><rect x="76.81" y="5.81" width="2.78" height="2.78"></rect><polygon points="75.78 4.78 76.8 5.81 79.58 5.81 80.61 4.78 75.78 4.78" fill="#2a2a29"></polygon><polygon points="80.61 4.78 79.58 5.81 79.58 8.59 80.61 9.62 80.61 4.78" fill="#474747"></polygon><polygon points="80.61 9.62 79.58 8.59 76.8 8.59 75.78 9.62 80.61 9.62" fill="#595959"></polygon><polygon points="75.78 9.62 76.8 8.59 76.8 5.81 75.78 4.78 75.78 9.62" fill="#373737"></polygon><rect x="84.01" y="5.81" width="2.78" height="2.78"></rect><polygon points="82.98 4.78 84 5.81 86.79 5.81 87.81 4.78 82.98 4.78" fill="#2a2a29"></polygon><polygon points="87.81 4.78 86.79 5.81 86.79 8.59 87.81 9.62 87.81 4.78" fill="#474747"></polygon><polygon points="87.81 9.62 86.79 8.59 84 8.59 82.98 9.62 87.81 9.62" fill="#595959"></polygon><polygon points="82.98 9.62 84 8.59 84 5.81 82.98 4.78 82.98 9.62" fill="#373737"></polygon><rect x="91.21" y="5.81" width="2.78" height="2.78"></rect><polygon points="90.18 4.78 91.2 5.81 93.99 5.81 95.01 4.78 90.18 4.78" fill="#2a2a29"></polygon><polygon points="95.01 4.78 93.99 5.81 93.99 8.59 95.01 9.62 95.01 4.78" fill="#474747"></polygon><polygon points="95.01 9.62 93.99 8.59 91.2 8.59 90.18 9.62 95.01 9.62" fill="#595959"></polygon><polygon points="90.18 9.62 91.2 8.59 91.2 5.81 90.18 4.78 90.18 9.62" fill="#373737"></polygon><rect x="98.41" y="5.81" width="2.78" height="2.78"></rect><polygon points="97.38 4.78 98.4 5.81 101.19 5.81 102.21 4.78 97.38 4.78" fill="#2a2a29"></polygon><polygon points="102.21 4.78 101.19 5.81 101.19 8.59 102.21 9.62 102.21 4.78" fill="#474747"></polygon><polygon points="102.21 9.62 101.19 8.59 98.4 8.59 97.38 9.62 102.21 9.62" fill="#595959"></polygon><polygon points="97.38 9.62 98.4 8.59 98.4 5.81 97.38 4.78 97.38 9.62" fill="#373737"></polygon><rect x="105.61" y="5.81" width="2.78" height="2.78"></rect><polygon points="104.58 4.78 105.6 5.81 108.39 5.81 109.41 4.78 104.58 4.78" fill="#2a2a29"></polygon><polygon points="109.41 4.78 108.39 5.81 108.39 8.59 109.41 9.62 109.41 4.78" fill="#474747"></polygon><polygon points="109.41 9.62 108.38 8.59 105.6 8.59 104.58 9.62 109.41 9.62" fill="#595959"></polygon><polygon points="104.58 9.62 105.6 8.59 105.6 5.81 104.58 4.78 104.58 9.62" fill="#373737"></polygon><rect x="112.8" y="5.81" width="2.78" height="2.78"></rect><polygon points="111.78 4.78 112.8 5.81 115.58 5.81 116.61 4.78 111.78 4.78" fill="#2a2a29"></polygon><polygon points="116.61 4.78 115.58 5.81 115.58 8.59 116.61 9.62 116.61 4.78" fill="#474747"></polygon><polygon points="116.61 9.62 115.58 8.59 112.8 8.59 111.78 9.62 116.61 9.62" fill="#595959"></polygon><polygon points="111.78 9.62 112.8 8.59 112.8 5.81 111.78 4.78 111.78 9.62" fill="#373737"></polygon><rect x="120" y="5.81" width="2.78" height="2.78"></rect><polygon points="118.98 4.78 120 5.81 122.79 5.81 123.81 4.78 118.98 4.78" fill="#2a2a29"></polygon><polygon points="123.81 4.78 122.79 5.81 122.79 8.59 123.81 9.62 123.81 4.78" fill="#474747"></polygon><polygon points="123.81 9.62 122.79 8.59 120 8.59 118.98 9.62 123.81 9.62" fill="#595959"></polygon><polygon points="118.98 9.62 120 8.59 120 5.81 118.98 4.78 118.98 9.62" fill="#373737"></polygon><rect x="127.21" y="5.81" width="2.78" height="2.78"></rect><polygon points="126.18 4.78 127.2 5.81 129.99 5.81 131.01 4.78 126.18 4.78" fill="#2a2a29"></polygon><polygon points="131.01 4.78 129.99 5.81 129.99 8.59 131.01 9.62 131.01 4.78" fill="#474747"></polygon><polygon points="131.01 9.62 129.99 8.59 127.2 8.59 126.18 9.62 131.01 9.62" fill="#595959"></polygon><polygon points="126.18 9.62 127.2 8.59 127.2 5.81 126.18 4.78 126.18 9.62" fill="#373737"></polygon><rect x="134.41" y="5.81" width="2.78" height="2.78"></rect><polygon points="133.38 4.78 134.4 5.81 137.19 5.81 138.21 4.78 133.38 4.78" fill="#2a2a29"></polygon><polygon points="138.21 4.78 137.19 5.81 137.19 8.59 138.21 9.62 138.21 4.78" fill="#474747"></polygon><polygon points="138.21 9.62 137.19 8.59 134.4 8.59 133.38 9.62 138.21 9.62" fill="#595959"></polygon><polygon points="133.38 9.62 134.4 8.59 134.4 5.81 133.38 4.78 133.38 9.62" fill="#373737"></polygon></svg> 