<?xml version="1.0" encoding="UTF-8"?> <svg xmlns="http://www.w3.org/2000/svg" xmlns:xlink="http://www.w3.org/1999/xlink" width="53.97mm" height="85.09mm" viewBox="0 0 153 241.19"><defs><linearGradient id="a" x1="37.05" y1="295.76" x2="91.05" y2="214.76" gradientTransform="matrix(1, 0, 0, -0.5, 51.06, 191.19)" gradientUnits="userSpaceOnUse"><stop offset="0" stop-color="#b3b3b3"></stop><stop offset="1" stop-color="#b3b3b3" stop-opacity="0.35"></stop></linearGradient><linearGradient id="b" x1="18" y1="304.06" x2="18" y2="295.06" gradientTransform="matrix(1, 0, 0, -0.5, 51.06, 191.19)" gradientUnits="userSpaceOnUse"><stop offset="0"></stop><stop offset="1" stop-color="#cfcfcf"></stop></linearGradient><linearGradient id="c" y1="304.06" y2="295.06" gradientTransform="matrix(1, 0, 0, -0.5, 168.06, 191.19)" xlink:href="#b"></linearGradient><linearGradient id="d" y1="304.06" y2="295.06" gradientTransform="matrix(1, 0, 0, -0.5, 168.06, 249.69)" xlink:href="#b"></linearGradient><linearGradient id="e" y1="304.06" y2="295.06" gradientTransform="matrix(1, 0, 0, -0.5, 51.06, 249.69)" xlink:href="#b"></linearGradient><linearGradient id="f" x1="72" y1="169.43" x2="81" y2="169.43" gradientTransform="matrix(1, 0, 0, -1, 51.06, 212.22)" gradientUnits="userSpaceOnUse"><stop offset="0" stop-color="#e6e6e6"></stop><stop offset="0.5" stop-color="#656565"></stop><stop offset="1" stop-color="#9f9f9f"></stop></linearGradient></defs><title>Stepper_Motor_-_Bipolar__icon</title><path d="M52.84,112.94V236.06l16.63,8.31H185.72l16.56-8.31V112.94Z" transform="translate(-51.06 -6.96)" fill="#4d4d4d" fill-rule="evenodd"></path><path d="M52.84,144v54l16.22,8.13v-54Zm149.44-1-16.22,8.13v54L202.28,197Z" transform="translate(-51.06 -6.96)" fill="#333" fill-rule="evenodd"></path><path d="M51.06,43.66l18-9h117l18,9v58.5l-18,9H68.83l-17.77-9Z" transform="translate(-51.06 -6.96)" fill="#e6e6e6" fill-rule="evenodd"></path><path d="M69.84,35.61,53,44.05v57.7l16.68,8.45H185.28l16.87-8.44V44.05l-16.87-8.44Z" transform="translate(-51.06 -6.96)" fill-rule="evenodd" fill="url(#a)"></path><path d="M169.82,74.91c0,11.66-18.94,21.12-42.26,21.12S85.3,86.57,85.3,74.91s18.93-21.13,42.26-21.13S169.82,63.24,169.82,74.91Z" transform="translate(-51.06 -6.96)" fill="none" stroke="#b3b3b3"></path><path d="M75.81,43.66c0,1.86-3,3.37-6.75,3.37s-6.75-1.51-6.75-3.37,3-3.38,6.75-3.38S75.81,41.79,75.81,43.66Z" transform="translate(-51.06 -6.96)" fill-rule="evenodd" fill="url(#b)"></path><path d="M73.56,44.54c0,1.24-2,2.25-4.5,2.25s-4.5-1-4.5-2.25,2-2.25,4.5-2.25S73.56,43.3,73.56,44.54Z" transform="translate(-51.06 -6.96)" fill-rule="evenodd" opacity="0.96" style="isolation:isolate"></path><path d="M192.81,43.66c0,1.86-3,3.37-6.75,3.37s-6.75-1.51-6.75-3.37,3-3.38,6.75-3.38S192.81,41.79,192.81,43.66Z" transform="translate(-51.06 -6.96)" fill-rule="evenodd" fill="url(#c)"></path><path d="M190.56,44.54c0,1.24-2,2.25-4.5,2.25s-4.5-1-4.5-2.25,2-2.25,4.5-2.25S190.56,43.3,190.56,44.54Z" transform="translate(-51.06 -6.96)" fill-rule="evenodd" opacity="0.96" style="isolation:isolate"></path><path d="M192.81,102.16c0,1.86-3,3.37-6.75,3.37s-6.75-1.51-6.75-3.37,3-3.38,6.75-3.38S192.81,100.29,192.81,102.16Z" transform="translate(-51.06 -6.96)" fill-rule="evenodd" fill="url(#d)"></path><path d="M190.56,103c0,1.24-2,2.25-4.5,2.25s-4.5-1-4.5-2.25,2-2.25,4.5-2.25S190.56,101.8,190.56,103Z" transform="translate(-51.06 -6.96)" fill-rule="evenodd" opacity="0.96" style="isolation:isolate"></path><path d="M75.81,102.16c0,1.86-3,3.37-6.75,3.37s-6.75-1.51-6.75-3.37,3-3.38,6.75-3.38S75.81,100.29,75.81,102.16Z" transform="translate(-51.06 -6.96)" fill-rule="evenodd" fill="url(#e)"></path><path d="M73.56,103c0,1.24-2,2.25-4.5,2.25s-4.5-1-4.5-2.25,2-2.25,4.5-2.25S73.56,101.8,73.56,103Z" transform="translate(-51.06 -6.96)" fill-rule="evenodd" opacity="0.96" style="isolation:isolate"></path><path d="M166.54,74.91c0,10.75-17.47,19.48-39,19.48s-39-8.73-39-19.48,17.46-19.49,39-19.49S166.54,64.15,166.54,74.91Z" transform="translate(-51.06 -6.96)" fill="#f9f9f9" fill-rule="evenodd"></path><path d="M166.54,72.91c0,10.75-17.47,19.48-39,19.48s-39-8.73-39-19.48,17.46-19.49,39-19.49S166.54,62.15,166.54,72.91Z" transform="translate(-51.06 -6.96)" fill="#999" fill-rule="evenodd"></path><path d="M140,72.91c0,3.42-5.56,6.2-12.4,6.2s-12.4-2.78-12.4-6.2,5.55-6.21,12.4-6.21S140,69.48,140,72.91Z" transform="translate(-51.06 -6.96)" fill="#333" fill-rule="evenodd"></path><path d="M51.06,102.16v54l18,9,4-1v-17h109v17l4,1,18-9v-54l-18,9h-117Zm0,81v54l18,9h117l18-9v-54l-18,9-4,3v11l4,4h-117l4-4v-11l-4-3Z" transform="translate(-51.06 -6.96)" fill="#b3b3b3" fill-rule="evenodd"></path><path d="M69.06,165.16l-18-9v-54l18,9Zm117,0,18-9v-54l-18,9Zm0,81,18-9v-54l-18,9Zm-117,0-18-9v-54l18,9Z" transform="translate(-51.06 -6.96)" fill="#999" fill-rule="evenodd"></path><path d="M136.42,12.67V72.91c0,2.44-4,4.42-8.86,4.42s-8.86-2-8.86-4.42V12.67c0-2.45,4-4.43,8.86-4.43S136.42,10.22,136.42,12.67Z" transform="translate(-51.06 -6.96)" fill-rule="evenodd" fill="url(#f)"></path><path d="M136.42,12.67c0,2.44-4,4.43-8.86,4.43s-8.86-2-8.86-4.43,4-4.43,8.86-4.43S136.42,10.22,136.42,12.67Z" transform="translate(-51.06 -6.96)" fill="#e6e6e6" fill-rule="evenodd"></path><path d="M135,10.67c0,2.05-3.32,3.71-7.41,3.71s-7.41-1.66-7.41-3.71S123.47,7,127.56,7,135,8.62,135,10.67Z" transform="translate(-51.06 -6.96)" fill="#ccc" fill-rule="evenodd"></path><path d="M131,10.67c0,.95-1.54,1.72-3.44,1.72s-3.44-.77-3.44-1.72S125.66,9,127.56,9,131,9.72,131,10.67Z" transform="translate(-51.06 -6.96)" fill="#666" fill-rule="evenodd"></path><path d="M51.06,102.16v4l18,9h117l18-9v-4l-18,9h-117Zm0,81v4l18,9v-4Zm153,0-18,9v4l18-9Zm-131,23-4,4h117l-4-4Z" transform="translate(-51.06 -6.96)" fill="#f2f2f2" fill-rule="evenodd"></path><path d="M73.06,147.16v4h109v-4ZM52.84,157v4l16.22,8.13,4-1v-4l-4,1Zm149.44,0-16.22,8.13-4-1v4l4,1L202.28,161Z" transform="translate(-51.06 -6.96)" fill="#1a1a1a" fill-rule="evenodd"></path><path d="M94.06,219.16h67v9h-67Z" transform="translate(-51.06 -6.96)" fill="#e6e6e6" fill-rule="evenodd"></path><path d="M94.06,228.16h67v20h-67Z" transform="translate(-51.06 -6.96)" fill="#999" fill-rule="evenodd"></path><path d="M98.06,221.16h59v7h-59Z" transform="translate(-51.06 -6.96)" fill="#4d4d4d" fill-rule="evenodd"></path><path d="M98.06,228.16h59v16h-59Z" transform="translate(-51.06 -6.96)" fill="#333" fill-rule="evenodd"></path><path d="M100.06,228.16h55v12h-55Z" transform="translate(-51.06 -6.96)" fill="#4d4d4d" fill-rule="evenodd"></path><path d="M100.06,223.16h55v11h-55Z" transform="translate(-51.06 -6.96)" fill="#1a1a1a" fill-rule="evenodd"></path><path d="M105.06,228.16v9" transform="translate(-51.06 -6.96)" fill="none" stroke="olive" stroke-linecap="round" stroke-width="3.54"></path><path d="M105.06,228.16v9" transform="translate(-51.06 -6.96)" fill="none" stroke="#ff0" stroke-linecap="round" stroke-width="0.71"></path><path d="M114.06,228.16v9" transform="translate(-51.06 -6.96)" fill="none" stroke="olive" stroke-linecap="round" stroke-width="3.54"></path><path d="M114.06,228.16v9" transform="translate(-51.06 -6.96)" fill="none" stroke="#ff0" stroke-linecap="round" stroke-width="0.71"></path><path d="M123.06,228.16v9" transform="translate(-51.06 -6.96)" fill="none" stroke="olive" stroke-linecap="round" stroke-width="3.54"></path><path d="M123.06,228.16v9" transform="translate(-51.06 -6.96)" fill="none" stroke="#ff0" stroke-linecap="round" stroke-width="0.71"></path><path d="M132.06,228.16v9" transform="translate(-51.06 -6.96)" fill="none" stroke="olive" stroke-linecap="round" stroke-width="3.54"></path><path d="M132.06,228.16v9" transform="translate(-51.06 -6.96)" fill="none" stroke="#ff0" stroke-linecap="round" stroke-width="0.71"></path><path d="M141.06,228.16v9" transform="translate(-51.06 -6.96)" fill="none" stroke="olive" stroke-linecap="round" stroke-width="3.54"></path><path d="M141.06,228.16v9" transform="translate(-51.06 -6.96)" fill="none" stroke="#ff0" stroke-linecap="round" stroke-width="0.71"></path><path d="M150.06,228.16v9" transform="translate(-51.06 -6.96)" fill="none" stroke="olive" stroke-linecap="round" stroke-width="3.54"></path><path d="M150.06,228.16v9" transform="translate(-51.06 -6.96)" fill="none" stroke="#ff0" stroke-linecap="round" stroke-width="0.71"></path></svg> 