<?xml version="1.0" encoding="UTF-8" standalone="no"?>
<!-- Created with Inkscape (http://www.inkscape.org/) -->

<svg
   xmlns:dc="http://purl.org/dc/elements/1.1/"
   xmlns:cc="http://creativecommons.org/ns#"
   xmlns:rdf="http://www.w3.org/1999/02/22-rdf-syntax-ns#"
   xmlns:svg="http://www.w3.org/2000/svg"
   xmlns="http://www.w3.org/2000/svg"
   xmlns:sodipodi="http://sodipodi.sourceforge.net/DTD/sodipodi-0.dtd"
   xmlns:inkscape="http://www.inkscape.org/namespaces/inkscape"
   width="400mm"
   height="100mm"
   viewBox="0 0 400 100"
   version="1.1"
   id="svg8"
   sodipodi:docname="logo_ifniti.svg"
   inkscape:version="0.92.3 (2405546, 2018-03-11)">
  <sodipodi:namedview
     id="base"
     pagecolor="#ffffff"
     bordercolor="#666666"
     borderopacity="1.0"
     inkscape:pageopacity="0.0"
     inkscape:pageshadow="2"
     inkscape:zoom="0.9899495"
     inkscape:cx="94.949921"
     inkscape:cy="146.65082"
     inkscape:document-units="mm"
     inkscape:current-layer="layer1"
     showgrid="false"
     inkscape:measure-start="0,0"
     inkscape:measure-end="0,0"
     inkscape:snap-object-midpoints="false"
     inkscape:window-width="1299"
     inkscape:window-height="713"
     inkscape:window-x="67"
     inkscape:window-y="27"
     inkscape:window-maximized="1" />
  <defs
     id="defs2">
    <inkscape:path-effect
       effect="bspline"
       id="path-effect1783"
       is_visible="true"
       weight="33.333333"
       steps="2"
       helper_size="0"
       apply_no_weight="true"
       apply_with_weight="true"
       only_selected="false" />
    <inkscape:path-effect
       effect="bspline"
       id="path-effect963"
       is_visible="true"
       weight="33.333333"
       steps="2"
       helper_size="0"
       apply_no_weight="true"
       apply_with_weight="true"
       only_selected="false" />
    <inkscape:path-effect
       effect="bspline"
       id="path-effect951"
       is_visible="true"
       weight="33.333333"
       steps="2"
       helper_size="0"
       apply_no_weight="true"
       apply_with_weight="true"
       only_selected="false" />
    <inkscape:path-effect
       effect="bspline"
       id="path-effect935"
       is_visible="true"
       weight="33.333333"
       steps="2"
       helper_size="0"
       apply_no_weight="true"
       apply_with_weight="true"
       only_selected="false" />
    <inkscape:path-effect
       effect="bspline"
       id="path-effect903"
       is_visible="true"
       weight="33.333333"
       steps="2"
       helper_size="0"
       apply_no_weight="true"
       apply_with_weight="true"
       only_selected="false" />
    <inkscape:path-effect
       effect="bspline"
       id="path-effect875"
       is_visible="true"
       weight="33.333333"
       steps="2"
       helper_size="0"
       apply_no_weight="true"
       apply_with_weight="true"
       only_selected="false" />
    <inkscape:path-effect
       effect="bspline"
       id="path-effect871"
       is_visible="true"
       weight="33.333333"
       steps="2"
       helper_size="0"
       apply_no_weight="true"
       apply_with_weight="true"
       only_selected="false" />
  </defs>
  <metadata
     id="metadata5">
    <rdf:RDF>
      <cc:Work
         rdf:about="">
        <dc:format>image/svg+xml</dc:format>
        <dc:type
           rdf:resource="http://purl.org/dc/dcmitype/StillImage" />
        <dc:title />
      </cc:Work>
    </rdf:RDF>
  </metadata>
  <g
     inkscape:label="Calque 1"
     inkscape:groupmode="layer"
     id="layer1"
     transform="translate(0,-197)">
    <path
       style="fill:none;stroke:#000000;stroke-width:0.19056088px;stroke-linecap:butt;stroke-linejoin:miter;stroke-opacity:1"
       d="m 14.472678,284.18294 v -6.61421"
       id="path839"
       inkscape:connector-curvature="0" />
    <path
       style="fill:none;stroke:#000000;stroke-width:0.18521924px;stroke-linecap:butt;stroke-linejoin:miter;stroke-opacity:1"
       d="m 14.472678,276.92375 v -13.3392"
       id="path841"
       inkscape:connector-curvature="0" />
    <path
       style="fill:none;stroke:#000000;stroke-width:0.18521924px;stroke-linecap:butt;stroke-linejoin:miter;stroke-opacity:1"
       d="M 14.472678,284.18294 H 30.929333 V 267.43138"
       id="path845"
       inkscape:connector-curvature="0" />
    <path
       style="fill:none;stroke:#000000;stroke-width:0.18521924px;stroke-linecap:butt;stroke-linejoin:miter;stroke-opacity:1"
       d="m 14.472678,263.58455 c -0.005,-0.88586 -0.01003,-1.77154 0.433494,-2.22727 0.443529,-0.45572 1.317059,-0.48116 2.199574,-0.50685"
       id="path873"
       inkscape:connector-curvature="0"
       inkscape:path-effect="#path-effect875"
       inkscape:original-d="m 14.472678,263.58455 c -0.0048,-0.88586 -0.0099,-1.77154 -0.01505,-2.65702 0.892139,-0.0237 1.765597,-0.0516 2.648118,-0.0771" />
    <path
       style="fill:none;stroke:#000000;stroke-width:0.18551093;stroke-linecap:butt;stroke-linejoin:miter;stroke-miterlimit:4;stroke-dasharray:none;stroke-opacity:1"
       d="m 21.99337,260.78392 c -0.859475,4.17624 -1.718944,8.35245 -2.982069,11.04455 -1.263124,2.69209 -2.929822,3.89946 -4.596806,5.10703"
       id="path901"
       inkscape:connector-curvature="0"
       inkscape:path-effect="#path-effect903"
       inkscape:original-d="m 21.99337,260.78392 c -0.859332,4.17627 -1.718802,8.35248 -2.578547,12.52931 -1.666675,1.20729 -3.33337,2.41466 -5.000328,3.62227"
       sodipodi:nodetypes="ccc" />
    <path
       style="fill:none;stroke:#000000;stroke-width:0.18521924px;stroke-linecap:butt;stroke-linejoin:miter;stroke-opacity:1"
       d="m 19.414823,273.31323 c -0.326678,0.66989 -0.653459,1.33999 -1.456224,2.03197 -0.802766,0.69197 -2.081281,1.4055 -2.741759,1.77977 -0.660478,0.37426 -0.702236,0.40894 -0.744162,0.44376"
       id="path933"
       inkscape:connector-curvature="0"
       inkscape:path-effect="#path-effect935"
       inkscape:original-d="m 19.414823,273.31323 c -0.326602,0.66993 -0.653385,1.34003 -0.980358,2.01034 -1.278669,0.71353 -2.557185,1.42706 -3.836544,2.14115 -0.04157,0.0345 -0.08331,0.0692 -0.125243,0.10401"
       sodipodi:nodetypes="cccc" />
    <path
       style="fill:none;stroke:#000000;stroke-width:0.18521924px;stroke-linecap:butt;stroke-linejoin:miter;stroke-opacity:1"
       d="m 23.883282,260.81003 c -1.179131,5.67258 -2.358298,11.34533 -1.769419,12.97212 0.588879,1.62679 2.945615,-0.79243 4.714857,-2.75397 1.769243,-1.96153 2.950711,-3.465 4.132445,-4.9688"
       id="path949"
       inkscape:connector-curvature="0"
       inkscape:path-effect="#path-effect951"
       inkscape:original-d="m 23.883282,260.81003 c -1.178991,5.67261 -2.358158,11.34536 -3.537529,17.01839 2.356991,-2.41948 4.713729,-4.8387 7.070358,-7.25782 1.18188,-1.50393 2.363342,-3.0074 3.545054,-4.51122"
       sodipodi:nodetypes="cccc" />
    <path
       style="fill:none;stroke:#000000;stroke-width:0.18521924px;stroke-linecap:butt;stroke-linejoin:miter;stroke-opacity:1"
       d="m 19.414823,273.31323 c 0.85399,1.73971 1.708023,3.47951 3.627274,2.49906 1.919251,-0.98046 4.903257,-4.6807 7.887236,-8.38091"
       id="path961"
       inkscape:connector-curvature="0"
       inkscape:path-effect="#path-effect963"
       inkscape:original-d="m 19.414823,273.31323 c 0.854215,1.7396 1.708245,3.4794 2.562091,5.21938 2.984453,-3.70076 5.968464,-7.401 8.952419,-11.10123" />
    <path
       style="fill:none;stroke:#000000;stroke-width:0.18521924px;stroke-linecap:butt;stroke-linejoin:miter;stroke-opacity:1"
       d="m 17.105742,260.85041 4.887628,-0.0665"
       id="path975"
       inkscape:connector-curvature="0"
       sodipodi:nodetypes="cc" />
    <path
       style="fill:none;stroke:#000000;stroke-width:0.18521924px;stroke-linecap:butt;stroke-linejoin:miter;stroke-opacity:1"
       d="m 23.883282,260.81003 h 6.981967 l 0.09592,5.24935"
       id="path977"
       inkscape:connector-curvature="0"
       sodipodi:nodetypes="ccc" />
    <path
       style="fill:#0054ff;fill-opacity:1;stroke:#000000;stroke-width:0;stroke-linecap:butt;stroke-linejoin:miter;stroke-miterlimit:4;stroke-dasharray:none;stroke-opacity:1"
       d="m 24.179531,259.66769 c 0,-0.74037 0,-1.29207 0,-1.86128"
       id="path981"
       inkscape:connector-curvature="0"
       sodipodi:nodetypes="cc" />
    <text
       xml:space="preserve"
       style="font-style:normal;font-weight:normal;font-size:2.65373397px;line-height:2.07322955px;font-family:sans-serif;letter-spacing:0px;word-spacing:0px;fill:#000000;fill-opacity:1;stroke:none;stroke-width:0.12439377"
       x="41.461567"
       y="272.93167"
       id="text985"><tspan
         sodipodi:role="line"
         id="tspan983"
         x="41.461567"
         y="274.65762"
         style="font-size:2.65373397px;line-height:2.07322955px;stroke-width:0.12439377" /></text>
    <text
       xml:space="preserve"
       style="font-style:normal;font-weight:normal;font-size:2.15615869px;line-height:2;font-family:sans-serif;letter-spacing:0px;word-spacing:0px;fill:#000000;fill-opacity:1;stroke:none;stroke-width:0.12439377"
       x="41.816978"
       y="271.68774"
       id="text989"><tspan
         sodipodi:role="line"
         id="tspan987"
         x="41.816978"
         y="274.40399"
         style="font-size:2.15615869px;line-height:2;stroke-width:0.12439377" /></text>
    <text
       xml:space="preserve"
       style="font-style:normal;font-weight:normal;font-size:4.31970596px;line-height:0.25;font-family:sans-serif;letter-spacing:0px;word-spacing:0px;fill:#000000;fill-opacity:1;stroke:none;stroke-width:0.2492138"
       x="20.931278"
       y="279.95227"
       id="text993"
       transform="scale(1.0000044,0.99999562)"><tspan
         sodipodi:role="line"
         id="tspan991"
         x="20.931278"
         y="281.61435"
         style="font-style:normal;font-variant:normal;font-weight:normal;font-stretch:normal;line-height:0.25;font-family:Courier;-inkscape-font-specification:Courier;stroke-width:0.2492138" /></text>
    <text
       xml:space="preserve"
       style="font-style:normal;font-weight:normal;font-size:2.15615869px;line-height:1.25;font-family:sans-serif;letter-spacing:0px;word-spacing:0px;fill:#000000;fill-opacity:1;stroke:none;stroke-width:0.12439377"
       x="42.21682"
       y="272.75397"
       id="text997"><tspan
         sodipodi:role="line"
         id="tspan995"
         x="42.21682"
         y="274.66165"
         style="stroke-width:0.12439377" /></text>
    <g
       inkscape:label="Hershey Text"
       transform="matrix(0.22275692,0,0,0.20956444,17.104882,279.93604)"
       id="g1350">
      <path
         inkscape:connector-curvature="0"
         d="M 5,-12 H 3 l -2,1 -1,3 V 9 M -3,-5 h 7"
         style="fill:none;stroke:#000000"
         transform="translate(5)"
         id="path1342" />
      <path
         inkscape:connector-curvature="0"
         d="M -5,-5 V 9 m 0,-10 3,-3 2,-1 h 3 l 2,1 1,3 V 9"
         style="fill:none;stroke:#000000"
         transform="translate(21)"
         id="path1344" />
      <path
         inkscape:connector-curvature="0"
         d="M 0,-12 V 5 L 1,8 3,9 H 5 M -3,-5 h 7"
         style="fill:none;stroke:#000000"
         transform="translate(36)"
         id="path1346" />
      <path
         inkscape:connector-curvature="0"
         d="m -1,-12 1,1 1,-1 -1,-1 -1,1 m 1,7 V 9"
         style="fill:none;stroke:#000000"
         transform="translate(47)"
         id="path1348" />
    </g>
    <g
       id="g1642"
       transform="matrix(0.12439377,0,0,0.12496698,-93.721087,298.67692)"
       inkscape:label="Hershey Text">
      <path
         id="path1422"
         style="fill:none;stroke:#000000"
         d="m 1032.6472,-300.52111 v 21"
         inkscape:connector-curvature="0" />
      <path
         id="path1424"
         style="fill:none;stroke:#000000"
         d="m 1040.6472,-300.52111 v 21 m 0,-21 14,21 m 0,-21 v 21"
         inkscape:connector-curvature="0" />
      <path
         id="path1426"
         style="fill:none;stroke:#000000"
         d="m 1075.6472,-297.52111 -2,-2 -3,-1 h -4 l -3,1 -2,2 v 2 l 1,2 1,1 2,1 6,2 2,1 1,1 1,2 v 3 l -2,2 -3,1 h -4 l -3,-1 -2,-2"
         inkscape:connector-curvature="0" />
      <path
         id="path1428"
         style="fill:none;stroke:#000000"
         d="m 1086.6472,-300.52111 v 21 m -7,-21 h 14"
         inkscape:connector-curvature="0" />
      <path
         id="path1430"
         style="fill:none;stroke:#000000"
         d="m 1098.6472,-300.52111 v 21"
         inkscape:connector-curvature="0" />
      <path
         id="path1432"
         style="fill:none;stroke:#000000"
         d="m 1110.6472,-300.52111 v 21 m -7,-21 h 14"
         inkscape:connector-curvature="0" />
      <path
         id="path1434"
         style="fill:none;stroke:#000000"
         d="m 1122.6472,-300.52111 v 15 l 1,3 2,2 3,1 h 2 l 3,-1 2,-2 1,-3 v -15"
         inkscape:connector-curvature="0" />
      <path
         id="path1436"
         style="fill:none;stroke:#000000"
         d="m 1148.6472,-300.52111 v 21 m -7,-21 h 14"
         inkscape:connector-curvature="0" />
      <path
         id="path1438"
         style="fill:none;stroke:#000000"
         d="m 1168.6472,-300.52111 v 21 m 0,-21 h 7 l 3,1 2,2 1,2 1,3 v 5 l -1,3 -1,2 -2,2 -3,1 h -7"
         inkscape:connector-curvature="0" />
      <path
         id="path1440"
         style="fill:none;stroke:#000000"
         d="m 1189.6472,-300.52111 v 21 m 0,-21 h 13 m -13,10 h 8 m -8,11 h 13"
         inkscape:connector-curvature="0" />
      <path
         id="path1442"
         style="fill:none;stroke:#000000"
         d="m 1220.6472,-300.52111 v 21 m 0,-21 h 13 m -13,10 h 8"
         inkscape:connector-curvature="0" />
      <path
         id="path1444"
         style="fill:none;stroke:#000000"
         d="m 1243.6472,-300.52111 -2,1 -2,2 -1,2 -1,3 v 5 l 1,3 1,2 2,2 2,1 h 4 l 2,-1 2,-2 1,-2 1,-3 v -5 l -1,-3 -1,-2 -2,-2 -2,-1 h -4"
         inkscape:connector-curvature="0" />
      <path
         id="path1446"
         style="fill:none;stroke:#000000"
         d="m 1260.6472,-300.52111 v 21 m 0,-21 h 9 l 3,1 1,1 1,2 v 2 l -1,2 -1,1 -3,1 h -9 m 7,0 7,11"
         inkscape:connector-curvature="0" />
      <path
         id="path1448"
         style="fill:none;stroke:#000000"
         d="m 1281.6472,-300.52111 v 21 m 0,-21 8,21 m 8,-21 -8,21 m 8,-21 v 21"
         inkscape:connector-curvature="0" />
      <path
         id="path1450"
         style="fill:none;stroke:#000000"
         d="m 1310.6472,-300.52111 -8,21 m 8,-21 8,21 m -13,-7 h 10"
         inkscape:connector-curvature="0" />
      <path
         id="path1452"
         style="fill:none;stroke:#000000"
         d="m 1327.6472,-300.52111 v 21 m -7,-21 h 14"
         inkscape:connector-curvature="0" />
      <path
         id="path1454"
         style="fill:none;stroke:#000000"
         d="m 1339.6472,-300.52111 v 21"
         inkscape:connector-curvature="0" />
      <path
         id="path1456"
         style="fill:none;stroke:#000000"
         d="m 1352.6472,-300.52111 -2,1 -2,2 -1,2 -1,3 v 5 l 1,3 1,2 2,2 2,1 h 4 l 2,-1 2,-2 1,-2 1,-3 v -5 l -1,-3 -1,-2 -2,-2 -2,-1 h -4"
         inkscape:connector-curvature="0" />
      <path
         id="path1458"
         style="fill:none;stroke:#000000"
         d="m 1369.6472,-300.52111 v 21 m 0,-21 14,21 m 0,-21 v 21"
         inkscape:connector-curvature="0" />
      <path
         id="path1460"
         style="fill:none;stroke:#000000"
         d="m 1412.6472,-300.52111 -8,21 m 8,-21 8,21 m -13,-7 h 10"
         inkscape:connector-curvature="0" />
      <path
         id="path1462"
         style="fill:none;stroke:#000000"
         d="m 1425.6472,-300.52111 v 15 l 1,3 2,2 3,1 h 2 l 3,-1 2,-2 1,-3 v -15"
         inkscape:connector-curvature="0" />
      <path
         id="path1464"
         style="fill:none;stroke:#000000"
         d="m 1446.6472,-300.52111 14,21 m 0,-21 -14,21"
         inkscape:connector-curvature="0" />
      <path
         id="path1476"
         style="fill:none;stroke:#000000"
         d="m 1179.786,-267.53381 v 21 m 0,-21 h 13 m -13,10 h 8 m -8,11 h 13"
         inkscape:connector-curvature="0" />
      <path
         id="path1478"
         style="fill:none;stroke:#000000"
         d="m 1202.786,-267.53381 v 21 m -7,-21 h 14"
         inkscape:connector-curvature="0" />
      <path
         id="path1480"
         style="fill:none;stroke:#000000"
         d="m 1228.786,-267.53381 v 21 m -7,-21 h 14"
         inkscape:connector-curvature="0" />
      <path
         id="path1482"
         style="fill:none;stroke:#000000"
         d="m 1240.786,-267.53381 v 21 m 0,-21 h 13 m -13,10 h 8 m -8,11 h 13"
         inkscape:connector-curvature="0" />
      <path
         id="path1484"
         style="fill:none;stroke:#000000"
         d="m 1273.786,-262.53381 -1,-2 -2,-2 -2,-1 h -4 l -2,1 -2,2 -1,2 -1,3 v 5 l 1,3 1,2 2,2 2,1 h 4 l 2,-1 2,-2 1,-2"
         inkscape:connector-curvature="0" />
      <path
         id="path1486"
         style="fill:none;stroke:#000000"
         d="m 1280.786,-267.53381 v 21 m 14,-21 v 21 m -14,-11 h 14"
         inkscape:connector-curvature="0" />
      <path
         id="path1488"
         style="fill:none;stroke:#000000"
         d="m 1302.786,-267.53381 v 21 m 0,-21 14,21 m 0,-21 v 21"
         inkscape:connector-curvature="0" />
      <path
         id="path1490"
         style="fill:none;stroke:#000000"
         d="m 1329.786,-267.53381 -2,1 -2,2 -1,2 -1,3 v 5 l 1,3 1,2 2,2 2,1 h 4 l 2,-1 2,-2 1,-2 1,-3 v -5 l -1,-3 -1,-2 -2,-2 -2,-1 h -4"
         inkscape:connector-curvature="0" />
      <path
         id="path1492"
         style="fill:none;stroke:#000000"
         d="m 1346.786,-267.53381 v 21 m 0,0 h 12"
         inkscape:connector-curvature="0" />
      <path
         id="path1494"
         style="fill:none;stroke:#000000"
         d="m 1368.786,-267.53381 -2,1 -2,2 -1,2 -1,3 v 5 l 1,3 1,2 2,2 2,1 h 4 l 2,-1 2,-2 1,-2 1,-3 v -5 l -1,-3 -1,-2 -2,-2 -2,-1 h -4"
         inkscape:connector-curvature="0" />
      <path
         id="path1496"
         style="fill:none;stroke:#000000"
         d="m 1399.786,-262.53381 -1,-2 -2,-2 -2,-1 h -4 l -2,1 -2,2 -1,2 -1,3 v 5 l 1,3 1,2 2,2 2,1 h 4 l 2,-1 2,-2 1,-2 v -3 m -5,0 h 5"
         inkscape:connector-curvature="0" />
      <path
         id="path1498"
         style="fill:none;stroke:#000000"
         d="m 1406.786,-267.53381 v 21"
         inkscape:connector-curvature="0" />
      <path
         id="path1500"
         style="fill:none;stroke:#000000"
         d="m 1414.786,-267.53381 v 21 m 0,-21 h 13 m -13,10 h 8 m -8,11 h 13"
         inkscape:connector-curvature="0" />
      <path
         id="path1502"
         style="fill:none;stroke:#000000"
         d="m 1446.786,-264.53381 -2,-2 -3,-1 h -4 l -3,1 -2,2 v 2 l 1,2 1,1 2,1 6,2 2,1 1,1 1,2 v 3 l -2,2 -3,1 h -4 l -3,-1 -2,-2"
         inkscape:connector-curvature="0" />
      <path
         id="path1504"
         style="fill:none;stroke:#000000"
         d="m 1108.0102,-236.45215 v 21 m 0,-21 h 7 l 3,1 2,2 1,2 1,3 v 5 l -1,3 -1,2 -2,2 -3,1 h -7"
         inkscape:connector-curvature="0" />
      <path
         id="path1506"
         style="fill:none;stroke:#000000"
         d="m 1129.0102,-236.45215 v 21 m 0,-21 h 13 m -13,10 h 8 m -8,11 h 13"
         inkscape:connector-curvature="0" />
      <path
         id="path1508"
         style="fill:none;stroke:#000000"
         d="m 1154.0102,-236.45215 v 21 m 0,0 h 12"
         inkscape:connector-curvature="0" />
      <path
         id="path1510"
         style="fill:none;stroke:#000000"
         d="m 1183.0102,-236.45215 v 21"
         inkscape:connector-curvature="0" />
      <path
         id="path1512"
         style="fill:none;stroke:#000000"
         d="m 1191.0102,-236.45215 v 21 m 0,-21 14,21 m 0,-21 v 21"
         inkscape:connector-curvature="0" />
      <path
         id="path1514"
         style="fill:none;stroke:#000000"
         d="m 1213.0102,-236.45215 v 21 m 0,-21 h 13 m -13,10 h 8"
         inkscape:connector-curvature="0" />
      <path
         id="path1516"
         style="fill:none;stroke:#000000"
         d="m 1231.0102,-236.45215 v 21 m 0,-21 h 9 l 3,1 1,1 1,2 v 2 l -1,2 -1,1 -3,1 h -9 m 7,0 7,11"
         inkscape:connector-curvature="0" />
      <path
         id="path1518"
         style="fill:none;stroke:#000000"
         d="m 1257.0102,-236.45215 -2,1 -2,2 -1,2 -1,3 v 5 l 1,3 1,2 2,2 2,1 h 4 l 2,-1 2,-2 1,-2 1,-3 v -5 l -1,-3 -1,-2 -2,-2 -2,-1 h -4"
         inkscape:connector-curvature="0" />
      <path
         id="path1520"
         style="fill:none;stroke:#000000"
         d="m 1274.0102,-236.45215 v 21 m 0,-21 8,21 m 8,-21 -8,21 m 8,-21 v 21"
         inkscape:connector-curvature="0" />
      <path
         id="path1522"
         style="fill:none;stroke:#000000"
         d="m 1303.0102,-236.45215 -8,21 m 8,-21 8,21 m -13,-7 h 10"
         inkscape:connector-curvature="0" />
      <path
         id="path1524"
         style="fill:none;stroke:#000000"
         d="m 1320.0102,-236.45215 v 21 m -7,-21 h 14"
         inkscape:connector-curvature="0" />
      <path
         id="path1526"
         style="fill:none;stroke:#000000"
         d="m 1332.0102,-236.45215 v 21"
         inkscape:connector-curvature="0" />
      <path
         id="path1528"
         style="fill:none;stroke:#000000"
         d="m 1345.0102,-236.45215 -2,1 -2,2 -1,2 -1,3 v 5 l 1,3 1,2 2,2 2,1 h 4 l 2,-1 2,-2 1,-2 1,-3 v -5 l -1,-3 -1,-2 -2,-2 -2,-1 h -4 m 3,17 6,6"
         inkscape:connector-curvature="0" />
      <path
         id="path1530"
         style="fill:none;stroke:#000000"
         d="m 1360.0102,-236.45215 v 15 l 1,3 2,2 3,1 h 2 l 3,-1 2,-2 1,-3 v -15"
         inkscape:connector-curvature="0" />
      <path
         id="path1532"
         style="fill:none;stroke:#000000"
         d="m 1382.0102,-236.45215 v 21 m 0,-21 h 13 m -13,10 h 8 m -8,11 h 13"
         inkscape:connector-curvature="0" />
      <path
         id="path1534"
         style="fill:none;stroke:#000000"
         d="m 1017.1965,-189.0416 v 18 m -9,-9 h 18"
         inkscape:connector-curvature="0" />
      <path
         id="path1536"
         style="fill:none;stroke:#000000"
         d="m 1029.1965,-187.0416 v -1 l 1,-2 1,-1 2,-1 h 4 l 2,1 1,1 1,2 v 2 l -1,2 -2,3 -10,10 h 14"
         inkscape:connector-curvature="0" />
      <path
         id="path1538"
         style="fill:none;stroke:#000000"
         d="m 1049.1965,-187.0416 v -1 l 1,-2 1,-1 2,-1 h 4 l 2,1 1,1 1,2 v 2 l -1,2 -2,3 -10,10 h 14"
         inkscape:connector-curvature="0" />
      <path
         id="path1540"
         style="fill:none;stroke:#000000"
         d="m 1073.1965,-192.0416 -3,1 -1,2 v 2 l 1,2 2,1 4,1 3,1 2,2 1,2 v 3 l -1,2 -1,1 -3,1 h -4 l -3,-1 -1,-1 -1,-2 v -3 l 1,-2 2,-2 3,-1 4,-1 2,-1 1,-2 v -2 l -1,-2 -3,-1 h -4"
         inkscape:connector-curvature="0" />
      <path
         id="path1542"
         style="fill:none;stroke:#000000"
         d="m 1101.1965,-185.0416 -1,3 -2,2 -3,1 h -1 l -3,-1 -2,-2 -1,-3 v -1 l 1,-3 2,-2 3,-1 h 1 l 3,1 2,2 1,4 v 5 l -1,5 -2,3 -3,1 h -2 l -3,-1 -1,-2"
         inkscape:connector-curvature="0" />
      <path
         id="path1544"
         style="fill:none;stroke:#000000"
         d="m 1114.1965,-192.0416 -3,1 -2,3 -1,5 v 3 l 1,5 2,3 3,1 h 2 l 3,-1 2,-3 1,-5 v -3 l -1,-5 -2,-3 -3,-1 h -2"
         inkscape:connector-curvature="0" />
      <path
         id="path1546"
         style="fill:none;stroke:#000000"
         d="m 1141.1965,-185.0416 -1,3 -2,2 -3,1 h -1 l -3,-1 -2,-2 -1,-3 v -1 l 1,-3 2,-2 3,-1 h 1 l 3,1 2,2 1,4 v 5 l -1,5 -2,3 -3,1 h -2 l -3,-1 -1,-2"
         inkscape:connector-curvature="0" />
      <path
         id="path1548"
         style="fill:none;stroke:#000000"
         d="m 1149.1965,-188.0416 2,-1 3,-3 v 21"
         inkscape:connector-curvature="0" />
      <path
         id="path1550"
         style="fill:none;stroke:#000000"
         d="m 1169.1965,-192.0416 -3,1 -1,2 v 2 l 1,2 2,1 4,1 3,1 2,2 1,2 v 3 l -1,2 -1,1 -3,1 h -4 l -3,-1 -1,-1 -1,-2 v -3 l 1,-2 2,-2 3,-1 4,-1 2,-1 1,-2 v -2 l -1,-2 -3,-1 h -4"
         inkscape:connector-curvature="0" />
      <path
         id="path1552"
         style="fill:none;stroke:#000000"
         d="m 1187.1965,-188.0416 2,-1 3,-3 v 21"
         inkscape:connector-curvature="0" />
      <path
         id="path1554"
         style="fill:none;stroke:#000000"
         d="m 1212.1965,-192.0416 -10,14 h 15 m -5,-14 v 21"
         inkscape:connector-curvature="0" />
      <path
         id="path1556"
         style="fill:none;stroke:#000000"
         d="m 1225.1965,-188.0416 2,-1 3,-3 v 21"
         inkscape:connector-curvature="0" />
      <path
         id="path1558"
         style="fill:none;stroke:#000000"
         d="m 1260.1965,-182.0416 -2,-2 -2,-1 h -3 l -2,1 -2,2 -1,3 v 2 l 1,3 2,2 2,1 h 3 l 2,-1 2,-2"
         inkscape:connector-curvature="0" />
      <path
         id="path1560"
         style="fill:none;stroke:#000000"
         d="m 1271.1965,-185.0416 -2,1 -2,2 -1,3 v 2 l 1,3 2,2 2,1 h 3 l 2,-1 2,-2 1,-3 v -2 l -1,-3 -2,-2 -2,-1 h -3"
         inkscape:connector-curvature="0" />
      <path
         id="path1562"
         style="fill:none;stroke:#000000"
         d="m 1286.1965,-185.0416 v 14 m 0,-10 3,-3 2,-1 h 3 l 2,1 1,3 v 10"
         inkscape:connector-curvature="0" />
      <path
         id="path1564"
         style="fill:none;stroke:#000000"
         d="m 1306.1965,-192.0416 v 17 l 1,3 2,1 h 2 m -8,-14 h 7"
         inkscape:connector-curvature="0" />
      <path
         id="path1566"
         style="fill:none;stroke:#000000"
         d="m 1328.1965,-185.0416 v 14 m 0,-11 -2,-2 -2,-1 h -3 l -2,1 -2,2 -1,3 v 2 l 1,3 2,2 2,1 h 3 l 2,-1 2,-2"
         inkscape:connector-curvature="0" />
      <path
         id="path1568"
         style="fill:none;stroke:#000000"
         d="m 1347.1965,-182.0416 -2,-2 -2,-1 h -3 l -2,1 -2,2 -1,3 v 2 l 1,3 2,2 2,1 h 3 l 2,-1 2,-2"
         inkscape:connector-curvature="0" />
      <path
         id="path1570"
         style="fill:none;stroke:#000000"
         d="m 1355.1965,-192.0416 v 17 l 1,3 2,1 h 2 m -8,-14 h 7"
         inkscape:connector-curvature="0" />
      <path
         id="path1572"
         style="fill:none;stroke:#000000"
         d="m 1380.1965,-184.0416 -1,-2 -2,-1 h -3 l -2,1 -1,1 -1,3 v 3 l 1,2 2,1 h 3 l 2,-1 1,-2 m -5,-8 -2,2 -1,3 v 3 l 1,2 1,1 m 7,-11 -1,8 v 2 l 2,1 h 2 l 2,-2 1,-3 v -2 l -1,-3 -1,-2 -2,-2 -2,-1 -3,-1 h -3 l -3,1 -2,1 -2,2 -1,2 -1,3 v 3 l 1,3 1,2 2,2 2,1 3,1 h 3 l 3,-1 2,-1 1,-1 m -2,-13 -1,8 v 2 l 1,1"
         inkscape:connector-curvature="0" />
      <path
         id="path1574"
         style="fill:none;stroke:#000000"
         d="m 1392.1965,-192.0416 1,1 1,-1 -1,-1 -1,1 m 1,7 v 14"
         inkscape:connector-curvature="0" />
      <path
         id="path1576"
         style="fill:none;stroke:#000000"
         d="m 1407.1965,-192.0416 h -2 l -2,1 -1,3 v 17 m -3,-14 h 7"
         inkscape:connector-curvature="0" />
      <path
         id="path1578"
         style="fill:none;stroke:#000000"
         d="m 1413.1965,-185.0416 v 14 m 0,-10 3,-3 2,-1 h 3 l 2,1 1,3 v 10"
         inkscape:connector-curvature="0" />
      <path
         id="path1580"
         style="fill:none;stroke:#000000"
         d="m 1431.1965,-192.0416 1,1 1,-1 -1,-1 -1,1 m 1,7 v 14"
         inkscape:connector-curvature="0" />
      <path
         id="path1582"
         style="fill:none;stroke:#000000"
         d="m 1441.1965,-192.0416 v 17 l 1,3 2,1 h 2 m -8,-14 h 7"
         inkscape:connector-curvature="0" />
      <path
         id="path1584"
         style="fill:none;stroke:#000000"
         d="m 1451.1965,-192.0416 1,1 1,-1 -1,-1 -1,1 m 1,7 v 14"
         inkscape:connector-curvature="0" />
      <path
         id="path1586"
         style="fill:none;stroke:#000000"
         d="m 1460.1965,-176.0416 -1,1 1,1 1,-1 -1,-1"
         inkscape:connector-curvature="0" />
      <path
         id="path1588"
         style="fill:none;stroke:#000000"
         d="m 1472.1965,-185.0416 -2,1 -2,2 -1,3 v 2 l 1,3 2,2 2,1 h 3 l 2,-1 2,-2 1,-3 v -2 l -1,-3 -2,-2 -2,-1 h -3"
         inkscape:connector-curvature="0" />
      <path
         id="path1590"
         style="fill:none;stroke:#000000"
         d="m 1487.1965,-185.0416 v 14 m 0,-8 1,-3 2,-2 2,-1 h 3"
         inkscape:connector-curvature="0" />
      <path
         id="path1592"
         style="fill:none;stroke:#000000"
         d="m 1511.4822,-186.46819 v 16 l -1,3 -1,1 -2,1 h -3 l -2,-1 m 9,-17 -2,-2 -2,-1 h -3 l -2,1 -2,2 -1,3 v 2 l 1,3 2,2 2,1 h 3 l 2,-1 2,-2"
         inkscape:connector-curvature="0" />
      <path
         id="path1594"
         style="fill:none;stroke:#000000"
         d="m 1119.1965,-154.08754 4,14 m 4,-14 -4,14 m 4,-14 4,14 m 4,-14 -4,14"
         inkscape:connector-curvature="0" />
      <path
         id="path1596"
         style="fill:none;stroke:#000000"
         d="m 1141.1965,-154.08754 4,14 m 4,-14 -4,14 m 4,-14 4,14 m 4,-14 -4,14"
         inkscape:connector-curvature="0" />
      <path
         id="path1598"
         style="fill:none;stroke:#000000"
         d="m 1163.1965,-154.08754 4,14 m 4,-14 -4,14 m 4,-14 4,14 m 4,-14 -4,14"
         inkscape:connector-curvature="0" />
      <path
         id="path1600"
         style="fill:none;stroke:#000000"
         d="m 1186.1965,-145.08754 -1,1 1,1 1,-1 -1,-1"
         inkscape:connector-curvature="0" />
      <path
         id="path1602"
         style="fill:none;stroke:#000000"
         d="m 1193.1965,-161.08754 1,1 1,-1 -1,-1 -1,1 m 1,7 v 14"
         inkscape:connector-curvature="0" />
      <path
         id="path1604"
         style="fill:none;stroke:#000000"
         d="m 1208.1965,-161.08754 h -2 l -2,1 -1,3 v 17 m -3,-14 h 7"
         inkscape:connector-curvature="0" />
      <path
         id="path1606"
         style="fill:none;stroke:#000000"
         d="m 1214.1965,-154.08754 v 14 m 0,-10 3,-3 2,-1 h 3 l 2,1 1,3 v 10"
         inkscape:connector-curvature="0" />
      <path
         id="path1608"
         style="fill:none;stroke:#000000"
         d="m 1234.1965,-161.08754 v 17 l 1,3 2,1 h 2 m -8,-14 h 7"
         inkscape:connector-curvature="0" />
      <path
         id="path1610"
         style="fill:none;stroke:#000000"
         d="m 1244.1965,-161.08754 1,1 1,-1 -1,-1 -1,1 m 1,7 v 14"
         inkscape:connector-curvature="0" />
      <path
         id="path1612"
         style="fill:none;stroke:#000000"
         d="m 1253.1965,-145.08754 -1,1 1,1 1,-1 -1,-1"
         inkscape:connector-curvature="0" />
      <path
         id="path1614"
         style="fill:none;stroke:#000000"
         d="m 1272.1965,-151.08754 -2,-2 -2,-1 h -3 l -2,1 -2,2 -1,3 v 2 l 1,3 2,2 2,1 h 3 l 2,-1 2,-2"
         inkscape:connector-curvature="0" />
      <path
         id="path1616"
         style="fill:none;stroke:#000000"
         d="m 1283.1965,-154.08754 -2,1 -2,2 -1,3 v 2 l 1,3 2,2 2,1 h 3 l 2,-1 2,-2 1,-3 v -2 l -1,-3 -2,-2 -2,-1 h -3"
         inkscape:connector-curvature="0" />
      <path
         id="path1618"
         style="fill:none;stroke:#000000"
         d="m 1295.1965,-154.07837 v 14 m 0,-10 3,-3 2,-1 h 3 l 2,1 1,3 v 10 m 0,-10 3,-3 2,-1 h 3 l 2,1 1,3 v 10"
         inkscape:connector-curvature="0" />
      <path
         id="path1620"
         style="fill:none;stroke:#000000;stroke-width:0.64606845"
         d="m 1157.1169,-132.11956 -1.2931,-1.29209 -1.938,-0.64613 h -2.5837 l -1.938,0.64613 -1.2927,1.29209 v 1.29218 l 0.6465,1.29213 0.6462,0.64605 1.2926,0.64611 3.8762,1.29205 1.2909,0.64614 0.647,0.64601 0.6461,1.2922 v 1.93816 l -1.2931,1.2922 -1.938,0.64604 h -2.5837 l -1.938,-0.64604 -1.2927,-1.2922"
         inkscape:connector-curvature="0" />
      <path
         id="path1622"
         style="fill:none;stroke:#000000;stroke-width:0.64606845"
         d="m 1164.2236,-129.53525 -1.2916,0.64605 -1.293,1.29209 -0.6452,1.93822 v 1.2922 l 0.6452,1.93816 1.293,1.2922 1.2916,0.64604 h 1.9384 l 1.2913,-0.64604 1.2924,-1.2922 0.6456,-1.93816 v -1.2922 l -0.6456,-1.93822 -1.2924,-1.29209 -1.2913,-0.64605 h -1.9384"
         inkscape:connector-curvature="0" />
      <path
         id="path1624"
         style="fill:none;stroke:#000000;stroke-width:0.64606845"
         d="m 1173.9144,-134.05778 v 13.56749 m 6.4606,-9.04496 -6.4606,6.46071 m 2.5841,-2.58435 4.5221,5.1686"
         inkscape:connector-curvature="0" />
      <path
         id="path1626"
         style="fill:none;stroke:#000000;stroke-width:0.64606845"
         d="m 1187.482,-129.53525 -1.2927,0.64605 -1.2927,1.29209 -0.6452,1.93822 v 1.2922 l 0.6452,1.93816 1.2927,1.2922 1.2927,0.64604 h 1.9383 l 1.2926,-0.64604 1.2908,-1.2922 0.6475,-1.93816 v -1.2922 l -0.6475,-1.93822 -1.2908,-1.29209 -1.2926,-0.64605 h -1.9383"
         inkscape:connector-curvature="0" />
      <path
         id="path1628"
         style="fill:none;stroke:#000000;stroke-width:0.64606845"
         d="m 1204.2799,-134.05778 v 13.56749 m 0,-7.10682 -1.2917,-1.29209 -1.2928,-0.64605 h -1.938 l -1.292,0.64605 -1.2924,1.29209 -0.6459,1.93822 v 1.2922 l 0.6459,1.93816 1.2924,1.2922 1.292,0.64604 h 1.938 l 1.2928,-0.64604 1.2917,-1.2922"
         inkscape:connector-curvature="0" />
      <path
         id="path1630"
         style="fill:none;stroke:#000000;stroke-width:0.64606845"
         d="m 1208.802,-125.65889 h 7.7526 v -1.29215 l -0.6459,-1.29205 -0.6462,-0.64611 -1.2917,-0.64605 h -1.9382 l -1.2927,0.64605 -1.2923,1.29209 -0.6456,1.93822 v 1.2922 l 0.6456,1.93816 1.2923,1.2922 1.2927,0.64604 h 1.9382 l 1.2917,-0.64604 1.2921,-1.2922"
         inkscape:connector-curvature="0" />
      <path
         id="path1632"
         style="fill:none;stroke:#000000;stroke-width:0.64606845"
         d="m 1221.077,-126.3049 h 11.6304"
         inkscape:connector-curvature="0" />
      <path
         id="path1634"
         style="fill:none;stroke:#000000;stroke-width:0.64606845"
         d="m 1240.4598,-134.05778 v 13.56749 m -4.5235,-13.56749 h 9.0461"
         inkscape:connector-curvature="0" />
      <path
         id="path1636"
         style="fill:none;stroke:#000000;stroke-width:0.64606845"
         d="m 1251.4424,-134.05778 -1.292,0.64613 -1.292,1.29209 -0.6459,1.29218 -0.6464,1.93818 v 3.23031 l 0.6464,1.93824 0.6459,1.29212 1.292,1.2922 1.292,0.64604 h 2.5846 l 1.2919,-0.64604 1.2919,-1.2922 0.6461,-1.29212 0.6462,-1.93824 v -3.23031 l -0.6462,-1.93818 -0.6461,-1.29218 -1.2919,-1.29209 -1.2919,-0.64613 h -2.5846"
         inkscape:connector-curvature="0" />
      <path
         id="path1638"
         style="fill:none;stroke:#000000;stroke-width:0.64606845"
         d="m 1271.4709,-130.82738 -0.6455,-1.29218 -1.2928,-1.29209 -1.2925,-0.64613 h -2.5836 l -1.2926,0.64613 -1.2927,1.29209 -0.6456,1.29218 -0.6455,1.93818 v 3.23031 l 0.6455,1.93824 0.6456,1.29212 1.2927,1.2922 1.2926,0.64604 h 2.5836 l 1.2925,-0.64604 1.2928,-1.2922 0.6455,-1.29212 v -1.93824 m -3.2308,0 h 3.2308"
         inkscape:connector-curvature="0" />
      <path
         id="path1640"
         style="fill:none;stroke:#000000;stroke-width:0.64606845"
         d="m 1279.2239,-134.05778 -1.2928,0.64613 -1.2914,1.29209 -0.6472,1.29218 -0.6454,1.93818 v 3.23031 l 0.6454,1.93824 0.6472,1.29212 1.2914,1.2922 1.2928,0.64604 h 2.5841 l 1.2928,-0.64604 1.2915,-1.2922 0.6464,-1.29212 0.6459,-1.93824 v -3.23031 l -0.6459,-1.93818 -0.6464,-1.29218 -1.2915,-1.29209 -1.2928,-0.64613 h -2.5841"
         inkscape:connector-curvature="0" />
      <g
         id="g1621"
         transform="matrix(1.0000286,0,0,1.0000286,1036.1877,-255.90401)"
         inkscape:label="Hershey Text">
        <path
           id="path1609"
           transform="translate(11)"
           style="fill:none;stroke:#000000"
           d="M -7,-12 V 9 M -7,-12 7,9 M 7,-12 V 9"
           inkscape:connector-curvature="0" />
        <path
           id="path1611"
           transform="translate(33)"
           style="fill:none;stroke:#000000"
           d="m -2,-12 -2,1 -2,2 -1,2 -1,3 v 5 l 1,3 1,2 2,2 2,1 H 2 L 4,8 6,6 7,4 8,1 V -4 L 7,-7 6,-9 4,-11 2,-12 h -4"
           inkscape:connector-curvature="0" />
        <path
           id="path1613"
           transform="translate(55)"
           style="fill:none;stroke:#000000"
           d="M -7,-12 V 9 m 0,-21 h 9 l 3,1 1,1 1,2 v 2 l -1,2 -1,1 -3,1 h -9 m 7,0 7,11"
           inkscape:connector-curvature="0" />
        <path
           id="path1615"
           transform="translate(77)"
           style="fill:none;stroke:#000000"
           d="M -8,-12 V 9 M -8,-12 0,9 M 8,-12 0,9 M 8,-12 V 9"
           inkscape:connector-curvature="0" />
        <path
           id="path1617"
           transform="translate(99)"
           style="fill:none;stroke:#000000"
           d="M -6,-12 V 9 m 0,-21 H 7 M -6,-2 H 2 M -6,9 H 7"
           inkscape:connector-curvature="0" />
        <path
           id="path1619"
           transform="translate(118)"
           style="fill:none;stroke:#000000"
           d="m 7,-9 -2,-2 -3,-1 h -4 l -3,1 -2,2 v 2 l 1,2 1,1 2,1 6,2 2,1 1,1 1,2 V 6 L 5,8 2,9 H -2 L -5,8 -7,6"
           inkscape:connector-curvature="0" />
      </g>
      <path
         style="fill:none;stroke:#000000;stroke-width:1px;stroke-linecap:butt;stroke-linejoin:miter;stroke-opacity:1"
         d="m 1175.4951,-239.42581 c -0.8061,4.29463 -3.7677,8.79319 -7.5329,10.47662"
         id="path1773"
         inkscape:connector-curvature="0"
         sodipodi:nodetypes="cc" />
      <path
         style="fill:none;stroke:#000000;stroke-width:1.47063136;stroke-linecap:butt;stroke-linejoin:miter;stroke-miterlimit:4;stroke-dasharray:none;stroke-opacity:1"
         d="m 1246.0639,-199.56969 c -3.6361,11.14803 -7.2728,22.29762 -10.9099,33.44859"
         id="path1781"
         inkscape:connector-curvature="0"
         inkscape:path-effect="#path-effect1783"
         inkscape:original-d="m 1246.0639,-199.56969 c -3.6353,11.1483 -7.2721,22.29785 -10.9099,33.44859" />
    </g>
    <path
       style="fill:none;fill-opacity:1;stroke:#1d1d1b;stroke-width:0.16193913;stroke-miterlimit:4;stroke-dasharray:none;stroke-opacity:1"
       d="m 22.227208,259.01715 0.0097,-0.86654 0.236015,-0.064 c 0.129807,-0.0352 0.521954,-0.10518 0.871436,-0.15549 0.349483,-0.0503 0.680357,-0.099 0.735276,-0.10807 l 0.09985,-0.0166 -2.16e-4,0.58913 c -1.2e-4,0.32402 -0.01069,0.72366 -0.02349,0.88807 l -0.02327,0.29895 -0.203447,0.077 c -0.280426,0.10611 -0.661795,0.16755 -1.22987,0.19816 l -0.481773,0.026 z"
       id="path1801"
       inkscape:connector-curvature="0" />
    <path
       style="fill:none;stroke:#000000;stroke-width:0.26458332px;stroke-linecap:butt;stroke-linejoin:miter;stroke-opacity:1"
       d="m 9.1392292,255.80059 -0.067801,33.4509 H 97.13988 v -33.4509 H 9.1392292"
       id="path1813"
       inkscape:connector-curvature="0"
       sodipodi:nodetypes="ccccc" />
  </g>
</svg>
